<?xml version="1.0" encoding="UTF-8" standalone="no"?>
<!-- Generator: Adobe Illustrator 14.0.0, SVG Export Plug-In . SVG Version: 6.00 Build 43363)  -->
<svg xmlns:dc="http://purl.org/dc/elements/1.1/" xmlns:cc="http://creativecommons.org/ns#" xmlns:rdf="http://www.w3.org/1999/02/22-rdf-syntax-ns#" xmlns:svg="http://www.w3.org/2000/svg" xmlns="http://www.w3.org/2000/svg" xmlns:sodipodi="http://sodipodi.sourceforge.net/DTD/sodipodi-0.dtd" xmlns:inkscape="http://www.inkscape.org/namespaces/inkscape" version="1.1" id="Layer_1" x="0px" y="0px" width="365" height="84" viewBox="0 0 365 84" enable-background="new 0 0 612 792" xml:space="preserve" inkscape:version="0.48.2 r9819" sodipodi:docname="pyramid-positive.svg"><metadata id="metadata3137"><rdf:RDF><cc:Work rdf:about=""><dc:format>image/svg+xml</dc:format><dc:type rdf:resource="http://purl.org/dc/dcmitype/StillImage"/></cc:Work></rdf:RDF></metadata><defs id="defs3135"/><sodipodi:namedview pagecolor="#ffffff" bordercolor="#666666" borderopacity="1" objecttolerance="10" gridtolerance="10" guidetolerance="10" inkscape:pageopacity="0" inkscape:pageshadow="2" inkscape:window-width="1280" inkscape:window-height="746" id="namedview3133" showgrid="false" inkscape:zoom="0.74242424" inkscape:cx="306" inkscape:cy="180.4898" inkscape:window-x="0" inkscape:window-y="26" inkscape:window-maximized="1" inkscape:current-layer="Layer_1"/>
<g id="g3082" transform="translate(-125.058,-353.702)">
	<path d="m 477.529,377.496 v -4.758 h -1.699 v -0.969 h 4.551 v 0.969 h -1.695 v 4.758 h -1.157 z" id="path3084" inkscape:connector-curvature="0" style="fill:#010101"/>
	<path d="m 481.111,377.496 v -5.727 h 1.73 l 1.039,3.906 1.027,-3.906 h 1.734 v 5.727 h -1.074 v -4.508 l -1.137,4.508 h -1.113 l -1.133,-4.508 v 4.508 h -1.073 z" id="path3086" inkscape:connector-curvature="0" style="fill:#010101"/>
</g>
<linearGradient id="SVGID_1_" gradientUnits="userSpaceOnUse" x1="167.1611" y1="354.93951" x2="167.1611" y2="437.65781" gradientTransform="translate(-125.058,-353.702)">
	<stop offset="0" style="stop-color:#46494D" id="stop3089"/>
	<stop offset="1" style="stop-color:#010101" id="stop3091"/>
</linearGradient>
<path d="M 84.206,64.408 C 84.206,75.226 75.434,84 64.615,84 H 19.59 C 8.772,84 0,75.227 0,64.408 V 20.36 C 0,9.538 8.771,0.768 19.59,0.768 h 45.025 c 10.818,0 19.591,8.77 19.591,19.592 v 44.048 z" id="path3093" style="fill:url(#SVGID_1_)" inkscape:connector-curvature="0"/>
<linearGradient id="SVGID_2_" gradientUnits="userSpaceOnUse" x1="185.7554" y1="373.82861" x2="177.6091" y2="406.89151">
	<stop offset="0" style="stop-color:#F7CA40" id="stop3096"/>
	<stop offset="0.2077" style="stop-color:#F6C73E" id="stop3098"/>
	<stop offset="0.4291" style="stop-color:#F5BD37" id="stop3100"/>
	<stop offset="0.656" style="stop-color:#F2AE2B" id="stop3102"/>
	<stop offset="0.865" style="stop-color:#EF9A21" id="stop3104"/>
</linearGradient>
<polygon points="166.673,372.445 195.917,411.418 166.673,405.349 " id="polygon3106" style="fill:url(#SVGID_2_)" transform="translate(-125.058,-353.702)"/>
<linearGradient id="SVGID_3_" gradientUnits="userSpaceOnUse" x1="148.26559" y1="374.77441" x2="155.23129" y2="406.35339">
	<stop offset="0" style="stop-color:#F7E9BE" id="stop3109"/>
	<stop offset="0.7432" style="stop-color:#F7CA40" id="stop3111"/>
</linearGradient>
<polygon points="166.673,372.445 166.673,405.349 137.428,411.418 " id="polygon3113" style="fill:url(#SVGID_3_)" transform="translate(-125.058,-353.702)"/>
<polygon points="137.428,411.418 166.673,405.349 195.917,411.418 166.673,416.159 " id="polygon3115" transform="translate(-125.058,-353.702)" style="fill:#ffffff;stroke:#010101"/>
<g id="g3117" transform="translate(-125.058,-353.702)">
	<path d="m 240.411,374.531 c 2.764,-0.46 6.382,-0.855 10.987,-0.855 5.659,0 9.805,1.316 12.436,3.685 2.369,2.105 3.883,5.33 3.883,9.277 0,4.014 -1.185,7.172 -3.422,9.475 -3.092,3.224 -7.961,4.869 -13.554,4.869 -1.711,0 -3.29,-0.065 -4.606,-0.395 v 17.765 h -5.724 v -43.821 z m 5.724,21.384 c 1.251,0.329 2.83,0.461 4.738,0.461 6.908,0 11.119,-3.422 11.119,-9.409 0,-5.921 -4.211,-8.751 -10.461,-8.751 -2.501,0 -4.409,0.198 -5.396,0.461 v 17.238 z" id="path3119" inkscape:connector-curvature="0" style="fill:#010101"/>
	<path d="m 279.103,386.506 6.909,18.818 c 0.789,2.105 1.578,4.605 2.105,6.514 h 0.131 c 0.592,-1.908 1.25,-4.343 2.039,-6.646 l 6.316,-18.686 h 6.119 l -8.686,22.7 c -4.145,10.922 -6.973,16.449 -10.922,19.937 -2.895,2.434 -5.658,3.421 -7.105,3.684 l -1.447,-4.803 c 1.447,-0.461 3.355,-1.382 5.066,-2.829 1.579,-1.25 3.486,-3.487 4.869,-6.448 0.263,-0.592 0.461,-1.053 0.461,-1.382 0,-0.329 -0.133,-0.789 -0.461,-1.513 l -11.712,-29.345 h 6.318 z" id="path3121" inkscape:connector-curvature="0" style="fill:#010101"/>
	<path d="m 309.754,396.441 c 0,-3.75 -0.065,-6.974 -0.263,-9.935 h 5.066 l 0.263,6.316 h 0.197 c 1.448,-4.277 5.001,-6.974 8.883,-6.974 0.592,0 1.053,0.065 1.579,0.131 v 5.461 c -0.592,-0.131 -1.185,-0.131 -1.974,-0.131 -4.08,0 -6.975,3.026 -7.764,7.369 -0.132,0.79 -0.198,1.776 -0.198,2.697 v 16.976 h -5.79 v -21.91 z" id="path3123" inkscape:connector-curvature="0" style="fill:#010101"/>
	<path d="m 354.369,410.719 c 0,2.764 0.132,5.462 0.46,7.633 h -5.197 l -0.461,-4.014 h -0.197 c -1.776,2.5 -5.197,4.737 -9.737,4.737 -6.448,0 -9.738,-4.54 -9.738,-9.146 0,-7.698 6.843,-11.909 19.146,-11.844 v -0.657 c 0,-2.566 -0.724,-7.369 -7.237,-7.304 -3.026,0 -6.119,0.855 -8.356,2.369 l -1.315,-3.882 c 2.632,-1.645 6.514,-2.763 10.527,-2.763 9.737,0 12.106,6.645 12.106,12.962 v 11.909 z m -5.593,-8.619 c -6.316,-0.131 -13.488,0.987 -13.488,7.172 0,3.816 2.5,5.527 5.396,5.527 4.211,0 6.908,-2.632 7.829,-5.33 0.198,-0.657 0.264,-1.315 0.264,-1.842 V 402.1 z" id="path3125" inkscape:connector-curvature="0" style="fill:#010101"/>
	<path d="m 365.687,395.125 c 0,-3.355 -0.131,-5.987 -0.263,-8.619 h 5.066 l 0.263,5.198 h 0.197 c 1.777,-3.026 4.737,-5.855 10.067,-5.855 4.276,0 7.566,2.632 8.948,6.382 h 0.131 c 0.987,-1.842 2.304,-3.158 3.619,-4.145 1.908,-1.448 3.948,-2.237 6.975,-2.237 4.276,0 10.527,2.763 10.527,13.817 v 18.686 h -5.658 v -17.963 c 0,-6.184 -2.303,-9.803 -6.909,-9.803 -3.355,0 -5.855,2.434 -6.908,5.198 -0.264,0.855 -0.461,1.842 -0.461,2.895 v 19.673 h -5.658 v -19.081 c 0,-5.066 -2.237,-8.685 -6.646,-8.685 -3.553,0 -6.25,2.895 -7.172,5.79 -0.329,0.789 -0.46,1.842 -0.46,2.829 v 19.146 h -5.659 v -23.226 z" id="path3127" inkscape:connector-curvature="0" style="fill:#010101"/>
	<path d="m 428.984,377.558 c 0,1.974 -1.382,3.553 -3.685,3.553 -2.105,0 -3.487,-1.579 -3.487,-3.553 0,-1.974 1.448,-3.619 3.619,-3.619 2.106,0 3.553,1.58 3.553,3.619 z m -6.448,40.794 v -31.845 h 5.79 v 31.845 h -5.79 z" id="path3129" inkscape:connector-curvature="0" style="fill:#010101"/>
	<path d="m 467.344,371.637 v 38.49 c 0,2.829 0.132,6.054 0.263,8.225 h -5.132 l -0.263,-5.527 h -0.198 c -1.71,3.554 -5.526,6.251 -10.725,6.251 -7.698,0 -13.686,-6.514 -13.686,-16.186 -0.065,-10.593 6.58,-17.041 14.278,-17.041 4.935,0 8.158,2.303 9.605,4.803 h 0.132 v -19.015 h 5.726 z m -5.725,27.832 c 0,-0.725 -0.065,-1.711 -0.263,-2.436 -0.855,-3.618 -4.014,-6.645 -8.356,-6.645 -5.987,0 -9.54,5.264 -9.54,12.238 0,6.448 3.224,11.778 9.408,11.778 3.882,0 7.436,-2.633 8.488,-6.909 0.197,-0.789 0.263,-1.579 0.263,-2.5 v -5.526 z" id="path3131" inkscape:connector-curvature="0" style="fill:#010101"/>
</g>
</svg>