<?xml version="1.0" encoding="UTF-8" standalone="no"?>
<!-- Created with Inkscape (http://www.inkscape.org/) -->

<svg
   xmlns:dc="http://purl.org/dc/elements/1.1/"
   xmlns:cc="http://creativecommons.org/ns#"
   xmlns:rdf="http://www.w3.org/1999/02/22-rdf-syntax-ns#"
   xmlns:svg="http://www.w3.org/2000/svg"
   xmlns="http://www.w3.org/2000/svg"
   xmlns:sodipodi="http://sodipodi.sourceforge.net/DTD/sodipodi-0.dtd"
   xmlns:inkscape="http://www.inkscape.org/namespaces/inkscape"
   id="svg2"
   version="1.1"
   inkscape:version="0.48.5 r10040"
   width="730"
   height="546.521"
   xml:space="preserve"
   sodipodi:docname="wsgi_as_onion.svg"><metadata
     id="metadata8"><rdf:RDF><cc:Work
         rdf:about=""><dc:format>image/svg+xml</dc:format><dc:type
           rdf:resource="http://purl.org/dc/dcmitype/StillImage" /><dc:title></dc:title></cc:Work></rdf:RDF></metadata><defs
     id="defs6"><marker
       inkscape:stockid="DotM"
       orient="auto"
       refY="0"
       refX="0"
       id="DotM"
       style="overflow:visible"><path
         id="path3847"
         d="m -2.5,-1 c 0,2.76 -2.24,5 -5,5 -2.76,0 -5,-2.24 -5,-5 0,-2.76 2.24,-5 5,-5 2.76,0 5,2.24 5,5 z"
         style="fill-rule:evenodd;stroke:#000000;stroke-width:1pt"
         transform="matrix(0.4,0,0,0.4,2.96,0.4)"
         inkscape:connector-curvature="0" /></marker><marker
       inkscape:stockid="Arrow2Mend"
       orient="auto"
       refY="0"
       refX="0"
       id="Arrow2Mend"
       style="overflow:visible"><path
         id="path3810"
         style="fill-rule:evenodd;stroke-width:0.625;stroke-linejoin:round"
         d="M 8.7185878,4.0337352 -2.2072895,0.01601326 8.7185884,-4.0017078 c -1.7454984,2.3720609 -1.7354408,5.6174519 -6e-7,8.035443 z"
         transform="scale(-0.6,-0.6)"
         inkscape:connector-curvature="0" /></marker><marker
       inkscape:stockid="Arrow1Mend"
       orient="auto"
       refY="0"
       refX="0"
       id="Arrow1Mend"
       style="overflow:visible"><path
         id="path3792"
         d="M 0,0 5,-5 -12.5,0 5,5 0,0 z"
         style="fill-rule:evenodd;stroke:#000000;stroke-width:1pt"
         transform="matrix(-0.4,0,0,-0.4,-4,0)"
         inkscape:connector-curvature="0" /></marker><marker
       inkscape:stockid="Arrow2Lend"
       orient="auto"
       refY="0"
       refX="0"
       id="Arrow2Lend"
       style="overflow:visible"><path
         id="path3804"
         style="fill-rule:evenodd;stroke-width:0.625;stroke-linejoin:round"
         d="M 8.7185878,4.0337352 -2.2072895,0.01601326 8.7185884,-4.0017078 c -1.7454984,2.3720609 -1.7354408,5.6174519 -6e-7,8.035443 z"
         transform="matrix(-1.1,0,0,-1.1,-1.1,0)"
         inkscape:connector-curvature="0" /></marker><marker
       inkscape:stockid="Arrow1Lend"
       orient="auto"
       refY="0"
       refX="0"
       id="Arrow1Lend"
       style="overflow:visible"><path
         id="path3786"
         d="M 0,0 5,-5 -12.5,0 5,5 0,0 z"
         style="fill-rule:evenodd;stroke:#000000;stroke-width:1pt"
         transform="matrix(-0.8,0,0,-0.8,-10,0)"
         inkscape:connector-curvature="0" /></marker><marker
       inkscape:stockid="DotM"
       orient="auto"
       refY="0"
       refX="0"
       id="DotM-0"
       style="overflow:visible"><path
         inkscape:connector-curvature="0"
         id="path3847-7"
         d="m -2.5,-1 c 0,2.76 -2.24,5 -5,5 -2.76,0 -5,-2.24 -5,-5 0,-2.76 2.24,-5 5,-5 2.76,0 5,2.24 5,5 z"
         style="fill-rule:evenodd;stroke:#000000;stroke-width:1pt"
         transform="matrix(0.4,0,0,0.4,2.96,0.4)" /></marker><marker
       inkscape:stockid="DotM"
       orient="auto"
       refY="0"
       refX="0"
       id="DotM-2"
       style="overflow:visible"><path
         inkscape:connector-curvature="0"
         id="path3847-8"
         d="m -2.5,-1 c 0,2.76 -2.24,5 -5,5 -2.76,0 -5,-2.24 -5,-5 0,-2.76 2.24,-5 5,-5 2.76,0 5,2.24 5,5 z"
         style="fill-rule:evenodd;stroke:#000000;stroke-width:1pt"
         transform="matrix(0.4,0,0,0.4,2.96,0.4)" /></marker><marker
       inkscape:stockid="DotM"
       orient="auto"
       refY="0"
       refX="0"
       id="DotM-6"
       style="overflow:visible"><path
         inkscape:connector-curvature="0"
         id="path3847-3"
         d="m -2.5,-1 c 0,2.76 -2.24,5 -5,5 -2.76,0 -5,-2.24 -5,-5 0,-2.76 2.24,-5 5,-5 2.76,0 5,2.24 5,5 z"
         style="fill-rule:evenodd;stroke:#000000;stroke-width:1pt"
         transform="matrix(0.4,0,0,0.4,2.96,0.4)" /></marker><marker
       inkscape:stockid="DotM"
       orient="auto"
       refY="0"
       refX="0"
       id="DotM-29"
       style="overflow:visible"><path
         inkscape:connector-curvature="0"
         id="path3847-9"
         d="m -2.5,-1 c 0,2.76 -2.24,5 -5,5 -2.76,0 -5,-2.24 -5,-5 0,-2.76 2.24,-5 5,-5 2.76,0 5,2.24 5,5 z"
         style="fill-rule:evenodd;stroke:#000000;stroke-width:1pt"
         transform="matrix(0.4,0,0,0.4,2.96,0.4)" /></marker></defs><sodipodi:namedview
     pagecolor="#ffffff"
     bordercolor="#666666"
     borderopacity="1"
     objecttolerance="10"
     gridtolerance="10"
     guidetolerance="10"
     inkscape:pageopacity="0"
     inkscape:pageshadow="2"
     inkscape:window-width="1920"
     inkscape:window-height="1056"
     id="namedview4"
     showgrid="true"
     inkscape:snap-global="false"
     inkscape:zoom="1.5556349"
     inkscape:cx="400"
     inkscape:cy="269.06667"
     inkscape:window-x="1366"
     inkscape:window-y="24"
     inkscape:window-maximized="1"
     inkscape:current-layer="g10"><inkscape:grid
       type="xygrid"
       id="grid5197"
       empspacing="5"
       visible="true"
       enabled="true"
       snapvisiblegridlinesonly="true" /></sodipodi:namedview><g
     id="g10"
     inkscape:groupmode="layer"
     inkscape:label="wsgi"
     transform="matrix(1.25,0,0,-1.25,1.25,545.271)"><path
       d="m 175.54393,2.5821 c 18.3975,-4.2217 -13.0294,13.2831 -18.3378,16.9052 -27.6903,17.6661 -51.9427,10.5463 -67.856603,33.1852 l -3.7959,5.6271 c -16.0075,-6.874 -26.7455,-0.4261 -42.6592,1.1282 11.3579,-5.8836 14.2489,-2.4548 25.1473,-5.074 0.1106,-7.0521 -9.7761,-8.765 -18.9462,-14.4032 18.1358,-0.9501 22.6843,4.6035 32.6205,6.52 -3.2822,-10.8757 -14.5836,-13.1006 -19.1826,-17.8078 15.6116,-0.8612 20.8922,8.6023 26.9002,10.0052 l -1.7183,-7.3576 c 7.0659,-0.5208 8.3106,1.6373 13.743803,1.9074 -0.58,-4.0416 -2.640503,-7.168 -3.907003,-10.3343 11.783003,1.6943 8.394203,-5.8297 17.267803,-8.3344 -1.6226,5.1097 -4.7727,7.7332 -4.3311,13.6576 5.694,3.6717 9.809,3.9345 16.5456,1.2892 0.7923,-5.9607 0.411,-7.56 -2.6476,-12.2763 4.2418,1.4142 2.9537,2.4622 5.1613,6.6348 2.4665,-0.5995 0.8496,0.1267 2.6269,-1.3938 0.9831,-0.841 1.2793,-1.6044 1.7371,-2.2567 3.5597,-5.0734 7.9784,-7.6938 15.2983,-8.346 -2.6252,2.681 -2.4971,2.3207 -5.374,4.2959 l -3.679,5.3198 c 11.0857,2.6175 22.8778,-10.7198 30.088,-16.5079 1.8927,-1.5193 4.2852,-2.2864 5.2985,-2.3836"
       style="fill:#666666;fill-opacity:1;fill-rule:evenodd;stroke:none"
       id="path12"
       inkscape:connector-curvature="0" /><path
       d="m 184.54143,43.8693 c -23.1987,0 -56.7561,8.4271 -74.6042,20.3842 -3.2312,2.1645 -6.429,4.3344 -9.1341,6.8635 -17.308003,16.1816 -22.908703,24.1807 -33.581203,45.409 -13.8061,27.4615 -18.769,62.705 -8.0832,92.7409 l 7.9117,15.0854 c 1.8564,3.7788 2.2269,4.6 4.4791,7.5194 3.564,4.6194 6.5335,7.9884 10.7744,12.2225 16.7508,16.7235 29.499603,29.3695 51.586603,41.4017 28.5956,15.5781 56.9858,21.742 89.3713,26.697 4.4717,0.6842 4.125,1.1023 8.6598,-0.9443 16.3395,-7.3743 12.5351,-18.928 22.6551,-36.3642 15.084,-25.9886 27.4473,-50.5276 31.7015,-83.2839 3.4059,-50.9151 4.4723,-83.903 -34.0404,-122.4394 -19.2268,-16.0767 -40.3611,-25.2918 -67.6964,-25.2918 z m -38.7539,363.3273 c 15.8692,3.5645 66.7798,13.3061 75.4943,-2.8656 1.6464,-3.0554 0.8796,-4.1164 0.3294,-5.265 -6.7643,1.0029 -15.1333,17.8443 -61.8092,7.2527 -4.8707,-0.0973 -62.213903,-20.2116 -63.703003,-19.6538 12.494003,-4.1405 28.249003,3.9844 37.105803,7.6564 11.1048,4.6043 22.089,8.9396 34.524,10.4202 26.3396,3.1354 58.3163,-2.5923 63.6341,-25.2391 -8.6292,0.6233 -14.2064,5.5737 -19.7489,9.3174 -3.932,2.6555 -17.576,9.0664 -23.1673,7.316 6.5018,-0.5471 20.2989,-8.6976 24.677,-11.7417 17.6975,-12.3055 17.0495,-42.7158 -3.5127,-59.675 -7.9773,-6.5786 -26.3795,-10.0485 -36.8181,-12.1337 -24.9806,-4.9901 -46.6296,-13.3534 -68.9244,-25.0551 -1.2263,-0.6437 -1.4876,-0.733 -2.5319,-1.4678 l -2.784503,-2.4565 c 2.861303,-1.4371 1.592003,0.6052 -7.3083,-5.4842 -3.408,-2.3315 -5.3438,-3.708 -8.6935,-6.2742 -15.7907,-12.0963 -19.2527,-19.3487 -28.1455,-31.8787 -24.5149,-34.5418 -20.7213,-86.0598 -3.5773,-121.8455 15.8686,-33.1234 24.0154,-51.4041 54.830803,-66.1088 20.1767,-9.6281 46.7019,-17.9283 69.9129,-19.9369 5.8149,-0.5031 27.1329,0.449 29.815,-1.2067 15.9205,0.3345 33.0846,9.0697 45.1988,15.9463 l 14.1715,9.8237 c 6.6214,5.7595 4.8492,2.4934 6.7739,7.2207 l 9.4473,11.844 c 3.0272,6.3562 6.8891,11.05 9.4352,17.1029 1.6412,3.9019 3.086,8.4237 4.3273,11.7204 13.7705,21.9101 2.5124,88.3253 -3.7134,111.8687 -10.1205,38.274 -45.6338,77.6659 -43.5237,106.3752 0.6996,9.5196 12.2712,19.4082 -1.1755,70.0438 -6.0443,22.7613 -32.4876,42.3867 -55.5463,40.2599 6.5429,-0.0247 29.3105,-11.0778 37.2166,-16.7423 2.0744,-1.4862 3.1961,-2.5186 4.5896,-4.5861 2.1532,-3.1944 2.0373,-4.2676 0.8535,-6.4061 -1.2277,0.0652 -33.6231,19.2615 -60.9959,19.4896 7.5728,-2.908 10.8873,-1.3923 18.2945,-7.0095 -0.2299,-0.1284 -0.5615,-0.2539 -0.7285,-0.3047 -4.3883,-1.3317 -16.2473,0.5766 -26.5898,-0.5269 -8.5768,-0.9151 -17.6607,-2.5906 -26.574,-3.6746 -18.9581,-2.3057 -35.1566,-3.4784 -54.555003,-2.8176 22.389203,-13.6962 16.8018,-13.7912 63.495203,-3.3018"
       style="fill:#7f7f7f;fill-opacity:1;fill-rule:evenodd;stroke:none"
       id="path14"
       inkscape:connector-curvature="0" /><path
       d="M 90.553027,56.8678 z M 163.28693,7.6073 c -5.9743,5.0432 -12.3842,11.736 -18.7407,12.265 4.1176,-5.62 8.4371,-3.2463 8.9989,-9.9987 -21.1487,0 -16.5288,7.0047 -23.997,8.9989 -0.6434,-2.4097 -0.9569,-3.4656 -3.734,-4.4949 -9.762,-3.6176 -1.2651,6.505 -1.2651,12.494 -5.7654,3.8605 -4.4881,2.5166 -10.9988,0.9998 0.1769,-7.9387 3.9994,-5.8964 3.9994,-15.9979 -6.8485,0.1525 -8.6144,2.1957 -12.2235,5.7767 -5.330003,5.2886 -5.652303,2.3808 -12.773203,2.2221 1.0791,4.0413 3.6513,4.2128 4.9992,9.9989 -4.1397,-0.0924 -12.3021,-3.3627 -12.9983,2.9996 -5.7141,-3.0237 -17.4651,-9.5728 -26.9966,-4.9994 3.8461,5.2492 17.1074,7.9186 18.9975,14.9981 -8.0107,-3.8438 -20.6728,-6.6373 -31.9958,-3.9994 3.9997,5.9729 16.5529,7.7995 21.1224,14.6231 -7.7298,0.1723 -26.3971,-0.3328 -27.1216,8.3738 12.7695,0 26.2548,-6.0815 35.7398,-4.7903 5.3084,0.7226 7.2518,2.0911 10.2543,2.7907 -1.2033,4.5071 -7.0458,8.39 -10.2691,11.7278 -12.1393,12.5705 -30.4531,50.6795 -35.5376,69.4494 -5.817,21.4744 -5.9545,54.1074 1.1851,75.4302 2.1833,6.5197 3.4756,9.0522 6.2927,14.7047 15.9661,36.0834 66.155803,68.1528 109.491803,77.3391 13.3172,2.823 44.9493,10.4459 53.5964,18.5403 46.4471,43.478 -26.9076,68.7906 -24.4667,70.0948 2.6328,1.4066 15.9452,2.2779 34.086,-9.9323 3.1074,-2.0917 4.5009,-2.753 7.6037,-4.3948 -2.4335,10.4459 -17.9357,16.4746 -27.1789,18.8155 -12.4412,3.1507 -27.951,2.4176 -40.2247,-0.4057 -18.1276,-4.1697 -31.8334,-13.8109 -51.4162,-16.5764 -4.0006,-0.5649 -14.995303,-2.1574 -18.163003,2.1662 3.7443,0.3705 7.4145,1.3575 10.1026,1.8958 17.293103,3.4637 40.035403,14.779 55.889103,18.1015 -7.0098,4.4487 -48.9294,-17.7517 -72.990203,-0.006 -2.4463,1.5381 -4.1627,2.8686 -5,6.0052 9.2214,0 17.2349,-2.0242 26.723303,-0.7265 l 76.2636,7.7258 c -12.8134,8.9036 -50.4164,-5.0709 -59.9924,7.9988 3.4744,1.667 52.1529,-0.2257 59.5984,-1.3938 11.0823,-1.7391 26.894,-5.83 36.735,-10.2592 3.0634,-1.3787 7.8174,-3.6842 10.6532,-4.3449 -5.1242,7.6521 -34.3897,19.3989 -43.9946,22.9972 10.2243,0.8509 19.084,0.5564 28.8596,-3.1365 31.28,-11.8166 36.0572,-29.7868 41.1437,-59.8437 7.6312,-45.0927 -6.6736,-37.9335 -1.9536,-59.9462 3.988,-18.6001 11.6694,-32.5471 19.991,-47.0007 12.0226,-20.8811 16.1711,-31.9615 22.9842,-56.4593 0.0391,-0.1409 0.1119,-0.4156 0.144,-0.5585 l 5.4212,-31.418 c 1.0644,-4.0233 2.0234,-9.612 2.3222,-13.6758 2.1418,-29.1217 1.5287,-34.5886 -4.8286,-59.0176 -2.7683,-10.6376 -11.5004,-24.4936 -18.4008,-32.5928 -5.8167,-6.8266 -7.77,-9.2967 -13.8883,-14.3818 -32.603,-27.0961 -74.1291,-33.6637 -123.4426,-20.5724 -9.8657,2.868 -17.8155,5.4405 -26.9161,9.0796 L 90.553027,56.8678 c 4.233,-7.9999 10.884803,-12.4719 19.316203,-16.6793 20.0806,-10.0205 24.1174,-1.4485 62.4861,-27.5029 9.2976,-6.6033 10.5148,-9.8212 10.6248,-12.0271 0.1244,-2.5294 -15.4109,2.7536 -19.6932,6.9488 z m 7.5141,-2.7643 c 3.7185,-1.1648 9.4348,-2.8114 10.0982,-2.7473 1.148,1.5573 -20.5059,15.3583 -23.6931,17.3916 -27.6903,17.6661 -51.9427,10.5463 -67.856603,33.1852 l -3.7959,5.6271 c -16.0075,-6.874 -26.7455,-0.4261 -42.6592,1.1282 11.3579,-5.8836 14.2489,-2.4548 25.1473,-5.074 0.1106,-7.0521 -9.7761,-8.765 -18.9462,-14.4032 18.1358,-0.9501 22.6843,4.6035 32.6205,6.52 -3.2822,-10.8757 -14.5836,-13.1006 -19.1826,-17.8078 15.6116,-0.8612 20.8922,8.6023 26.9002,10.0052 l -1.7183,-7.3576 c 7.0659,-0.5208 8.3106,1.6373 13.743803,1.9074 -0.58,-4.0416 -2.640503,-7.168 -3.907003,-10.3343 11.783003,1.6943 8.394203,-5.8297 17.267803,-8.3344 -1.6226,5.1097 -4.7727,7.7332 -4.3311,13.6576 5.694,3.6717 9.809,3.9345 16.5456,1.2892 0.7923,-5.9607 0.411,-7.56 -2.6476,-12.2763 4.2418,1.4142 2.9537,2.4622 5.1613,6.6348 2.4665,-0.5995 0.8496,0.1267 2.6269,-1.3938 0.9831,-0.841 1.2793,-1.6044 1.7371,-2.2567 3.5597,-5.0734 7.9784,-7.6938 15.2983,-8.346 -2.6252,2.681 -2.4971,2.3207 -5.374,4.2959 l -3.679,5.3198 c 15.1965,3.5421 21.6204,-13.7982 34.0562,-16.5994 -0.2613,-0.0802 -0.6026,-0.2809 -0.7625,-0.3025 l -2.6501,0.2713 z m 18.7756,391.6018 c 6.5126,-0.5749 19.1769,-9.0122 23.5471,-12.0507 23.3938,-15.5543 12.1717,-54.2469 -8.8793,-64.3399 -12.5586,-6.0214 -34.823,-10.8905 -47.7008,-13.8396 -29.9129,-6.8502 -50.7685,-18.0683 -73.430603,-35.4297 -15.7907,-12.0963 -19.8154,-18.286 -28.7082,-30.816 -24.5149,-34.5418 -20.7213,-86.0598 -3.5773,-121.8455 15.8686,-33.1234 24.0154,-51.4041 54.830803,-66.1088 20.1767,-9.6281 46.7019,-17.9283 69.9129,-19.9369 30.3329,-1.0534 71.0864,8.3021 92.7799,29.5631 12.5549,12.3049 20.3343,26.8072 26.3891,42.8882 11.8574,31.483 2.3559,82.0749 -5.5885,112.1187 -10.1205,38.274 -43.7587,77.4159 -41.6486,106.1252 0.6996,9.5196 12.2712,19.4082 -1.1755,70.0438 -6.0443,22.7613 -30.9249,39.5118 -55.5463,40.2599 6.5429,-0.0247 29.3105,-11.0778 37.2166,-16.7423 3.3358,-2.3899 9.0916,-7.2224 5.4431,-10.9922 -1.2277,0.0652 -33.6231,19.2615 -60.9959,19.4896 7.5728,-2.908 10.8873,-1.3923 18.2945,-7.0095 -0.2299,-0.1284 -0.5615,-0.2539 -0.7285,-0.3047 -4.3883,-1.3317 -16.2473,0.5766 -26.5898,-0.5269 -8.5768,-0.9151 -17.6607,-2.5906 -26.574,-3.6746 -18.9581,-2.3057 -35.1566,-3.4784 -54.555003,-2.8176 17.1406,-10.4848 44.205503,-6.6272 63.182603,-2.3644 15.8692,3.5646 67.0924,12.3687 75.8069,-3.803 1.6464,-3.0554 0.8796,-4.1164 0.3294,-5.265 -6.7643,1.0029 -15.1333,17.8443 -61.8092,7.2527 -10.817,-2.4548 -25.5387,-8.4305 -36.4651,-12.3905 -3.519,-1.5894 -23.829203,-8.6823 -25.800103,-7.1071 10.337603,-3.2969 26.811203,3.8282 35.668003,7.5002 11.1048,4.6043 22.089,8.9396 34.524,10.4202 26.3396,3.1354 58.3163,-2.5923 63.6341,-25.2391 -8.6292,0.6233 -14.2064,5.5737 -19.7489,9.3174 -2.4693,1.6679 -15.3236,7.6196 -22.0374,7.625"
       style="fill:#110f10;fill-opacity:1;fill-rule:evenodd;stroke:none"
       id="path16"
       inkscape:connector-curvature="0" /><path
       d="m 222.53643,303.8366 c 13.9402,0 17.1326,-20.9049 20.6918,-29.302 3.5354,-8.3407 11.3596,-20.3953 16.7335,-33.2603 6.6501,-15.9203 14.6055,-41.1449 14.5573,-60.4333 -0.1213,-49.2437 -2.9126,-95.7784 -53.8631,-118.0933 -36.7123,-16.0764 -93.5722,-0.2069 -116.8634,23.3575 -25.542403,25.8423 -35.236603,48.5572 -35.236603,87.7479 0,61.3122 69.931003,114.0485 123.230003,124.7386 l 30.7505,5.2449 z M 66.556127,171.8532 c 0,-47.0571 22.6913,-88.5603 65.119203,-105.8592 11.5296,-4.701 28.7452,-10.5021 43.8596,-11.1337 20.2461,-0.8458 34.7388,-0.6245 52.7074,9.2999 11.5798,6.3955 16.6416,10.5146 26.113,19.8811 29.355,29.0296 27.044,95.2787 16.7601,131.3915 -4.9847,17.5036 -5.5366,17.8651 -12.2944,33.6997 -4.4867,10.512 -11.5081,19.6475 -15.427,30.5671 -1.8944,5.2784 -3.3398,11.8757 -6.243,16.7542 -7.2649,12.2068 -17.625,9.5281 -29.2173,6.9874 -5.3458,-1.1719 -10.205,-1.6569 -15.317,-2.6805 -21.2709,-4.259 -34.662,-9.1477 -52.8814,-20.1095 -36.9394,-22.2242 -73.179203,-63.525 -73.179203,-108.798"
       style="fill:#404040;fill-opacity:1;fill-rule:evenodd;stroke:none"
       id="path18"
       inkscape:connector-curvature="0" /><path
       d="m 171.54283,72.8657 c -25.4117,0 -47.463,4.9751 -61.9971,26.9918 -17.887703,27.0972 -22.908403,58.4331 -16.875203,91.8757 0.6432,3.5659 2.141,7.8814 3.5467,11.4511 l 2.4636,4.5357 c 0.7265,0.9536 0.8133,0.7591 1.796103,2.2034 2.1364,3.1388 3.2694,6.5619 7.2042,11.7935 9.1775,12.202 17.3132,21.2258 28.0967,31.8957 2.5662,2.5393 5.1849,4.4686 8.0737,6.9245 21.3959,18.1905 36.784,21.6612 60.8145,29.1742 24.6634,7.7108 17.6779,-0.891 29.4412,-30.297 1.8374,-4.5933 3.0075,-7.5543 4.8588,-12.1388 9.7243,-24.0789 12.564,-52.7267 8.858,-80.7256 -2.5098,-18.9635 -3.4974,-37.7048 -17.1502,-54.8274 l -4.7109,-7.2876 c -6.0607,-9.6699 -22.7463,-22.949 -34.039,-26.9533 -6.5236,-2.3133 -11.9772,-4.6159 -20.3811,-4.6159 z m -8.9988,-1.9998 c 6.7255,0 20.9364,0.3155 27.0193,2.9769 l 17.1136,8.8835 c 10.7336,9.8388 6.6724,3.3423 18.5499,17.4453 l 7.1765,9.8214 c 15.739,28.135 13.4254,29.0481 18.0861,59.9307 1.1668,7.7306 0.0105,6.9355 0.9301,18.1063 l -1.9372,25.7672 c -4.1854,30.0093 -10.0265,33.8936 -17.4952,56.4953 -1.7453,5.2813 -2.1464,9.8116 -4.0357,14.9621 -2.3927,6.5245 -7.9509,9.5831 -9.4144,9.5831 -4.6,0 -7.2794,-0.945 -10.8765,-2.1217 -24.3709,-7.9716 -41.7535,-10.5656 -64.8091,-30.1793 -13.8696,-11.7993 -28.745,-26.9547 -38.7144,-42.2751 l -7.869903,-12.1277 c -0.9312,-1.4372 -1.5888,-2.9472 -2.306,-4.6931 -2.9806,-7.2547 -4.3789,-12.9597 -5.4178,-21.727 l 0.1627,-5.8524 c 0.0193,-0.2832 -0.0303,-2.3777 -0.051,-2.965 -1.0877,-31.123 7.7386,-70.4679 32.727903,-89.1984 7.7786,-5.8303 27.55,-12.8321 41.1611,-12.8321"
       style="fill:#404040;fill-opacity:1;fill-rule:evenodd;stroke:none"
       id="path20"
       inkscape:connector-curvature="0" /><path
       d="m 107.10093,178.3026 c 1.1307,4.5692 1.3076,6.0803 2.8295,10.2155 l 2.6257,8.3163 c 1.0165,2.7867 3.0062,5.544 4.6707,8.3375 12.1019,20.3103 30.4889,39.4336 50.3042,52.6828 6.3303,4.2327 32.1979,15.9857 36.0079,15.9857 8.3934,0 6.5906,-14.5899 11.8678,-30.1269 5.3002,-15.6042 6.1299,-26.5641 6.1299,-43.8639 0,-15.2762 -4.1076,-41.9369 -9.5578,-55.4338 -1.3584,-3.3635 -2.1538,-4.8393 -3.4087,-7.59 l -12.6263,-20.3695 c -5.6535,-5.9907 -3.1873,-6.304 -11.5385,-12.4585 -13.8719,-10.2226 -18.9133,-14.1341 -38.859,-14.1341 -23.1922,0 -34.8752,18.1136 -39.8149,38.1755 -6.510903,26.4447 -3.2405,31.6336 1.3695,50.2634 z m -5.6124,-16.3859 c -0.0856,-3.5258 -0.1791,-4.4399 -0.5479,-7.5155 -0.2789,-2.3281 0.3901,-10.6144 0.6636,-14.4913 1.0329,-14.6347 8.4073,-35.7727 20.3221,-44.6698 11.7556,-8.7783 34.4036,-9.786 48.9728,-2.7331 6.2739,3.0373 9.5136,5.5145 14.5137,9.4833 5.6211,4.4617 6.7328,6.3935 11.3519,11.6455 20.0559,22.8042 26.7718,60.6765 26.7718,91.2133 0,28.3235 -7.8775,39.3213 -10.5823,56.4094 -3.0852,19.4925 -5.6206,16.4492 -27.7121,7.8815 -17.9691,-6.969 -32.7532,-18.2982 -45.9655,-32.0247 l -22.9334,-29.06 c -6.3204,-10.159 -14.5434,-33.3113 -14.8547,-46.1386"
       style="fill:#404040;fill-opacity:1;fill-rule:evenodd;stroke:none"
       id="path22"
       inkscape:connector-curvature="0" /><path
       d="m 149.54573,99.8623 c -28.3898,0 -29.768,44.1105 -26.4509,65.446 2.0905,13.4467 14.1789,33.8222 22.4487,45.5428 1.6662,2.3619 2.1308,3.4274 4.2534,5.7453 2.1152,2.3097 2.5579,3.3112 4.4977,5.5009 1.6044,1.8111 3.1944,3.2871 4.979,5.0196 2.8321,2.7493 19.8057,15.7275 23.268,15.7275 3.5112,0 4.1402,-9.3603 5.1967,-12.801 10.7549,-35.028 16.0435,-65.5379 -1.5299,-100.8522 -3.8945,-7.8258 -3.9846,-8.8905 -9.4124,-14.5845 l -4.4062,-4.5927 c -5.8002,-5.2597 -12.0821,-10.1517 -22.8441,-10.1517 z m -29.9962,47.994 c 0,-14.8578 4.5675,-36.2333 14.7073,-45.2849 8.5354,-7.6193 25.3919,-4.8099 34.8803,1.6965 1.6021,1.0987 1.857,1.6104 3.2666,2.7326 1.4774,1.1758 2.5481,1.7053 3.9229,3.0762 8.5983,8.5714 15.1052,23.7747 18.5862,35.4072 11.7808,35.0978 1.8709,57.3483 -6.2907,89.4427 -1.2225,5.7941 -1.3376,5.8207 -4.0807,9.9173 -14.6599,0 -37.3907,-27.6346 -44.5989,-38.3907 l -13.4178,-23.5777 c -4.9405,-8.8575 -6.9752,-25.4563 -6.9752,-35.0192"
       style="fill:#404040;fill-opacity:1;fill-rule:evenodd;stroke:none"
       id="path24"
       inkscape:connector-curvature="0" /><path
       d="m 149.40433,119.0693 c -6.7936,0 -9.8725,3.8248 -12.5706,9.3044 -11.9063,24.1824 4.2285,56.9197 24.1847,71.8302 11.4012,8.5184 8.8083,5.3609 12.1107,-4.9104 4.9317,-15.3406 7.3982,-31.5681 2.4423,-47.2672 -1.0145,-3.2136 -2.2288,-6.3482 -3.5263,-9.5984 -1.5542,-3.8925 -2.8312,-5.481 -5.2633,-8.7363 -3.871,-5.1806 -10.0168,-10.6223 -17.3775,-10.6223 z m -18.3748,28.8745 c 0,-11.1481 4.4481,-29.7493 14.8745,-29.7493 11.6306,0 14.1608,0.2509 23.0335,11.0909 2.1699,2.6506 1.2124,0.82 2.7295,4.2706 0.9184,2.0892 1.3938,3.0524 2.2479,4.752 8.5668,17.0507 7.0044,41.5557 0.3345,58.9808 -1.4038,3.6675 -0.8918,8.5558 -4.3087,9.5746 -2.1847,0.6514 -6.4046,-2.8352 -8.638,-4.3189 -5.8709,-3.9002 -10.0335,-8.026 -14.2844,-13.7157 -9.6329,-12.8937 -15.9888,-23.7844 -15.9888,-40.885"
       style="fill:#2b2b2a;fill-opacity:1;fill-rule:evenodd;stroke:none"
       id="path26"
       inkscape:connector-curvature="0" /><path
       d="m 175.38863,410.1454 c 37.1118,2.1 39.2828,-7.2748 44.0178,-8.1544 0.3852,0.6781 0.4844,1.6379 -0.6681,3.5649 -6.1005,10.1993 -41.9579,6.8689 -53.0666,5.3271 -2.863,-0.3974 -6.4783,-0.6621 -8.7347,-1.8691 12.354,0.9932 12.1913,0.9836 18.4516,1.1315"
       style="fill:#ffffff;fill-opacity:1;fill-rule:evenodd;stroke:none"
       id="path28"
       inkscape:connector-curvature="0" /><path
       d="m 157.20213,426.7366 c -1.9789,0.4958 -30.079,-0.7704 -30.6196,-0.3815 4.5939,-3.0456 14.4465,-2.7743 18.4289,-2.2632 4.9932,0.6406 9.6894,1.1237 14.8768,0.3558 5.0023,-0.9125 12.5376,0.6871 17.447,-1.1058 l 0.3736,-0.1018 c 0.6794,-0.1848 2.023,-0.0468 2.5494,0.7126 -11.285,2.4874 -9.6582,2.2173 -23.0561,2.7839"
       style="fill:#7f7f7f;fill-opacity:1;fill-rule:evenodd;stroke:none"
       id="path30"
       inkscape:connector-curvature="0" /><path
       style="fill:none;stroke:#000000;stroke-width:6.96000004;stroke-linecap:butt;stroke-linejoin:miter;stroke-miterlimit:4;stroke-opacity:1;stroke-dasharray:none;marker-end:url(#Arrow1Mend)"
       d="M 38.590599,313.3871 C 43.887711,212.82077 89.001543,185.25174 139.56164,167.66754"
       id="path3009"
       inkscape:connector-curvature="0"
       sodipodi:nodetypes="cc" /><text
       xml:space="preserve"
       style="font-size:32px;font-style:normal;font-weight:normal;line-height:125%;letter-spacing:0px;word-spacing:0px;fill:#000000;fill-opacity:1;stroke:none;font-family:Sans"
       x="-3.9225733"
       y="-336.90875"
       id="text4781"
       sodipodi:linespacing="125%"
       transform="scale(1,-1)"><tspan
         sodipodi:role="line"
         id="tspan4783"
         x="-3.9225733"
         y="-336.90875">Request</tspan></text>
<path
       style="fill:none;stroke:#000000;stroke-width:6.96000004;stroke-linecap:butt;stroke-linejoin:miter;stroke-miterlimit:4;stroke-opacity:1;stroke-dasharray:none;marker-end:url(#Arrow2Mend)"
       d="m 172.26249,161.35685 c 54.34061,1.40366 130.57489,50.00403 154.32505,121.0505"
       id="path4787"
       inkscape:connector-curvature="0"
       sodipodi:nodetypes="cc" /><text
       xml:space="preserve"
       style="font-size:32px;font-style:normal;font-weight:normal;line-height:125%;letter-spacing:0px;word-spacing:0px;fill:#000000;fill-opacity:1;stroke:none;font-family:Sans"
       x="293.31299"
       y="-316.25562"
       id="text4979"
       sodipodi:linespacing="125%"
       transform="scale(1,-1)"><tspan
         sodipodi:role="line"
         id="tspan4981"
         x="293.31299"
         y="-316.25562">Response</tspan></text>
<path
       style="fill:none;stroke:#000000;stroke-width:1.67999995;stroke-linecap:butt;stroke-linejoin:miter;stroke-miterlimit:4;stroke-opacity:1;stroke-dasharray:none;marker-start:url(#DotM)"
       d="M 266.06611,147.62138 279.83489,135 l 38.43784,0"
       id="path5191"
       inkscape:connector-curvature="0" /><text
       xml:space="preserve"
       style="font-size:19.20000076px;font-style:normal;font-weight:normal;line-height:125%;letter-spacing:0px;word-spacing:0px;fill:#000000;fill-opacity:1;stroke:none;font-family:Sans"
       x="325.63959"
       y="-55.855206"
       id="text5391"
       sodipodi:linespacing="125%"
       transform="scale(1,-1)"><tspan
         sodipodi:role="line"
         id="tspan5393"
         x="325.63959"
         y="-55.855206"
         style="font-size:19.20000076px;line-height:125%">EvalException Middleware</tspan></text>
<path
       style="fill:none;stroke:#000000;stroke-width:1.67999995;stroke-linecap:butt;stroke-linejoin:miter;stroke-miterlimit:4;stroke-opacity:1;stroke-dasharray:none;marker-start:url(#DotM)"
       d="m 230.91612,145.99214 25.53417,-34.07747 62.78567,-1.30434"
       id="path5191-6"
       inkscape:connector-curvature="0"
       sodipodi:nodetypes="ccc" /><text
       xml:space="preserve"
       style="font-size:19.20000076px;font-style:normal;font-weight:normal;line-height:125%;letter-spacing:0px;word-spacing:0px;fill:#000000;fill-opacity:1;stroke:none;font-family:Sans"
       x="326.63861"
       y="-80.42366"
       id="text5391-4"
       sodipodi:linespacing="125%"
       transform="scale(1,-1)"><tspan
         sodipodi:role="line"
         id="tspan5393-0"
         x="326.63861"
         y="-80.42366"
         style="font-size:19.20000076px;line-height:125%">Session Middleware</tspan></text>
<path
       style="fill:none;stroke:#000000;stroke-width:1.67999995;stroke-linecap:butt;stroke-linejoin:miter;stroke-miterlimit:4;stroke-opacity:1;stroke-dasharray:none;marker-start:url(#DotM)"
       d="m 204.46494,147.27751 34.12478,-59.312369 78.89305,-0.767427"
       id="path5191-6-9"
       inkscape:connector-curvature="0"
       sodipodi:nodetypes="ccc" /><text
       xml:space="preserve"
       style="font-size:19.20000076px;font-style:normal;font-weight:normal;line-height:125%;letter-spacing:0px;word-spacing:0px;fill:#000000;fill-opacity:1;stroke:none;font-family:Sans"
       x="327.04721"
       y="-103.80202"
       id="text5391-4-5"
       sodipodi:linespacing="125%"
       transform="scale(1,-1)"><tspan
         sodipodi:role="line"
         id="tspan5393-0-0"
         x="327.04721"
         y="-103.80202"
         style="font-size:19.20000076px;line-height:125%">Gzip Middleware</tspan></text>
<path
       style="fill:none;stroke:#000000;stroke-width:1.67999995;stroke-linecap:butt;stroke-linejoin:miter;stroke-miterlimit:4;stroke-opacity:1;stroke-dasharray:none;marker-start:url(#DotM)"
       d="m 183.52533,146.7406 24.46035,-82.936528 109.49708,-0.23052"
       id="path5191-6-9-1"
       inkscape:connector-curvature="0"
       sodipodi:nodetypes="ccc" /><text
       xml:space="preserve"
       style="font-size:19.20000076px;font-style:normal;font-weight:normal;line-height:125%;letter-spacing:0px;word-spacing:0px;fill:#000000;fill-opacity:1;stroke:none;font-family:Sans"
       x="325.92966"
       y="-128.00398"
       id="text5391-4-5-4"
       sodipodi:linespacing="125%"
       transform="scale(1,-1)"><tspan
         sodipodi:role="line"
         id="tspan5393-0-0-7"
         x="325.92966"
         y="-128.00398"
         style="font-size:19.20000076px;line-height:125%">Pony Middleware</tspan></text>
<path
       style="fill:none;stroke:#000000;stroke-width:1.67999995;stroke-linecap:butt;stroke-linejoin:miter;stroke-miterlimit:4;stroke-opacity:1;stroke-dasharray:none;marker-start:url(#DotM)"
       d="M 153.17656,145.92658 178.71074,37.755155 317.73802,37.524635"
       id="path5191-6-9-1-4"
       inkscape:connector-curvature="0"
       sodipodi:nodetypes="ccc" /><text
       xml:space="preserve"
       style="font-size:19.20000076px;font-style:normal;font-weight:normal;line-height:125%;letter-spacing:0px;word-spacing:0px;fill:#000000;fill-opacity:1;stroke:none;font-family:Sans"
       x="326.93549"
       y="-31.846588"
       id="text5391-4-5-4-8"
       sodipodi:linespacing="125%"
       transform="scale(1,-1)"><tspan
         sodipodi:role="line"
         id="tspan5393-0-0-7-3"
         x="326.93549"
         y="-31.846588"
         style="font-size:19.20000076px;line-height:125%">You application</tspan></text>
</g></svg>