<?xml version="1.0" standalone="yes"?>

<svg version="1.1" viewBox="0.0 0.0 813.0 280.0" fill="none" stroke="none" stroke-linecap="square" stroke-miterlimit="10" xmlns="http://www.w3.org/2000/svg" xmlns:xlink="http://www.w3.org/1999/xlink"><clipPath id="p.0"><path d="m0 0l813.0 0l0 280.0l-813.0 0l0 -280.0z" clip-rule="nonzero"></path></clipPath><g clip-path="url(#p.0)"><path fill="#000000" fill-opacity="0.0" d="m0 0l813.1365 0l0 280.1496l-813.1365 0z" fill-rule="nonzero"></path><path fill="#ffffff" d="m280.40085 104.93798l0 0c-2.463623 -15.953835 5.624878 -31.74717 20.833221 -40.678307c15.208313 -8.931133 34.869293 -9.433739 50.640015 -1.2945442l0 0c5.5864563 -9.276222 15.81134 -15.680817 27.581787 -17.276512c11.770447 -1.5956993 23.70401 1.804924 32.19098 9.173237l0 0c4.7589417 -8.410419 14.103241 -14.061146 24.71701 -14.94701c10.6138 -0.88586426 20.994965 3.1185074 27.459747 10.592159l0 0c8.597748 -8.915024 22.276978 -12.668621 35.11862 -9.636585c12.841644 3.032032 22.539215 12.305119 24.896515 23.806736l0 0c10.533691 2.5319061 19.308044 8.968346 24.05603 17.646347c4.747986 8.678001 5.003845 18.74627 0.70147705 27.603493l0 0c10.37262 11.896225 12.799072 27.747795 6.3737793 41.639183c-6.425293 13.891388 -20.736938 23.735596 -37.594116 25.858917c-0.11883545 13.037567 -8.233002 25.000687 -21.214935 31.278229c-12.981964 6.2775574 -28.804565 5.8892975 -41.36905 -1.0151367c-5.3518066 15.614746 -20.415344 27.103928 -38.682617 29.503784c-18.267242 2.3998718 -36.4635 -4.719803 -46.727234 -18.28305c-12.581207 6.685364 -27.677612 8.611221 -41.88379 5.343094c-14.206146 -3.2681122 -26.325409 -11.454895 -33.62387 -22.713577l0 0c-12.856415 1.3257446 -25.286804 -4.5438843 -31.12201 -14.695801c-5.8351746 -10.1519165 -3.8330078 -22.425034 5.0128784 -30.728226l0 0c-11.468262 -5.9480133 -17.320068 -17.750854 -14.5039215 -29.2538c2.8161469 -11.502937 13.662094 -20.09938 26.882095 -21.30661z" fill-rule="nonzero"></path><path fill="#000000" fill-opacity="0.0" d="m267.76852 156.11327l0 0c5.4118958 2.8069 11.66391 4.0801697 17.916626 3.6488647m8.189697 41.7762c2.6888733 -0.2772827 5.3244934 -0.8644409 7.8388977 -1.7463531m67.66501 19.116089c-1.8912048 -2.4991455 -3.4746094 -5.1697083 -4.723236 -7.9661713m90.13635 -3.2550201l0 0c0.975708 -2.8468018 1.6079102 -5.776779 1.8859863 -8.741043m60.695618 -21.520966c0.12652588 -13.880508 -8.82016 -26.589645 -22.997162 -32.668457m54.217255 -34.82817c-2.2959595 4.72657 -5.8009033 8.919449 -10.240112 12.249886m-14.515259 -57.50097l0 0c0.39117432 1.908699 0.5722046 3.8460846 0.5405884 5.785301m-60.554718 -19.954876l0 0c-2.1447144 2.2238579 -3.9116821 4.708988 -5.24588 7.37801m-46.931396 -3.0241241l0 0c-1.1429443 2.019909 -1.9964294 4.157322 -2.5407715 6.362999m-57.23285 1.7404404l0 0c3.3370667 1.7222519 6.4243164 3.7951584 9.193909 6.173195m-80.66623 35.79988l0 0c0.33953857 2.1988525 0.8760376 4.370598 1.6044922 6.494911" fill-rule="nonzero"></path><path stroke="#000000" stroke-width="2.0" stroke-linejoin="round" stroke-linecap="butt" stroke-dasharray="16.0,6.0" d="m280.40085 104.93798l0 0c-2.463623 -15.953835 5.624878 -31.74717 20.833221 -40.678307c15.208313 -8.931133 34.869293 -9.433739 50.640015 -1.2945442l0 0c5.5864563 -9.276222 15.81134 -15.680817 27.581787 -17.276512c11.770447 -1.5956993 23.70401 1.804924 32.19098 9.173237l0 0c4.7589417 -8.410419 14.103241 -14.061146 24.71701 -14.94701c10.6138 -0.88586426 20.994965 3.1185074 27.459747 10.592159l0 0c8.597748 -8.915024 22.276978 -12.668621 35.11862 -9.636585c12.841644 3.032032 22.539215 12.305119 24.896515 23.806736l0 0c10.533691 2.5319061 19.308044 8.968346 24.05603 17.646347c4.747986 8.678001 5.003845 18.74627 0.70147705 27.603493l0 0c10.37262 11.896225 12.799072 27.747795 6.3737793 41.639183c-6.425293 13.891388 -20.736938 23.735596 -37.594116 25.858917c-0.11883545 13.037567 -8.233002 25.000687 -21.214935 31.278229c-12.981964 6.2775574 -28.804565 5.8892975 -41.36905 -1.0151367c-5.3518066 15.614746 -20.415344 27.103928 -38.682617 29.503784c-18.267242 2.3998718 -36.4635 -4.719803 -46.727234 -18.28305c-12.581207 6.685364 -27.677612 8.611221 -41.88379 5.343094c-14.206146 -3.2681122 -26.325409 -11.454895 -33.62387 -22.713577l0 0c-12.856415 1.3257446 -25.286804 -4.5438843 -31.12201 -14.695801c-5.8351746 -10.1519165 -3.8330078 -22.425034 5.0128784 -30.728226l0 0c-11.468262 -5.9480133 -17.320068 -17.750854 -14.5039215 -29.2538c2.8161469 -11.502937 13.662094 -20.09938 26.882095 -21.30661z" fill-rule="nonzero"></path><path stroke="#000000" stroke-width="2.0" stroke-linejoin="round" stroke-linecap="butt" stroke-dasharray="16.0,6.0" d="m267.76852 156.11327l0 0c5.4118958 2.8069 11.66391 4.0801697 17.916626 3.6488647m8.189697 41.7762c2.6888733 -0.2772827 5.3244934 -0.8644409 7.8388977 -1.7463531m67.66501 19.116089c-1.8912048 -2.4991455 -3.4746094 -5.1697083 -4.723236 -7.9661713m90.13635 -3.2550201l0 0c0.975708 -2.8468018 1.6079102 -5.776779 1.8859863 -8.741043m60.695618 -21.520966c0.12652588 -13.880508 -8.82016 -26.589645 -22.997162 -32.668457m54.217255 -34.82817c-2.2959595 4.72657 -5.8009033 8.919449 -10.240112 12.249886m-14.515259 -57.50097l0 0c0.39117432 1.908699 0.5722046 3.8460846 0.5405884 5.785301m-60.554718 -19.954876l0 0c-2.1447144 2.2238579 -3.9116821 4.708988 -5.24588 7.37801m-46.931396 -3.0241241l0 0c-1.1429443 2.019909 -1.9964294 4.157322 -2.5407715 6.362999m-57.23285 1.7404404l0 0c3.3370667 1.7222519 6.4243164 3.7951584 9.193909 6.173195m-80.66623 35.79988l0 0c0.33953857 2.1988525 0.8760376 4.370598 1.6044922 6.494911" fill-rule="nonzero"></path><path fill="#000000" d="m384.84354 135.61006l1.796875 0.453125q-0.5625 2.21875 -2.03125 3.390625q-1.46875 1.15625 -3.59375 1.15625q-2.203125 0 -3.578125 -0.890625q-1.375 -0.90625 -2.09375 -2.59375q-0.71875 -1.703125 -0.71875 -3.65625q0 -2.125 0.796875 -3.703125q0.8125 -1.578125 2.3125 -2.390625q1.5 -0.828125 3.296875 -0.828125q2.046875 0 3.4375 1.046875q1.390625 1.03125 1.9375 2.90625l-1.765625 0.421875q-0.46875 -1.484375 -1.375 -2.15625q-0.90625 -0.6875 -2.265625 -0.6875q-1.5625 0 -2.625 0.75q-1.046875 0.75 -1.484375 2.03125q-0.421875 1.265625 -0.421875 2.609375q0 1.734375 0.5 3.03125q0.515625 1.28125 1.578125 1.921875q1.078125 0.640625 2.3125 0.640625q1.515625 0 2.5625 -0.859375q1.046875 -0.875 1.421875 -2.59375zm10.301056 1.59375l1.71875 0.21875q-0.40625 1.5 -1.515625 2.34375q-1.09375 0.828125 -2.8125 0.828125q-2.15625 0 -3.421875 -1.328125q-1.265625 -1.328125 -1.265625 -3.734375q0 -2.484375 1.265625 -3.859375q1.28125 -1.375 3.328125 -1.375q1.984375 0 3.234375 1.34375q1.25 1.34375 1.25 3.796875q0 0.140625 -0.015625 0.4375l-7.34375 0q0.09375 1.625 0.921875 2.484375q0.828125 0.859375 2.0625 0.859375q0.90625 0 1.546875 -0.46875q0.65625 -0.484375 1.046875 -1.546875zm-5.484375 -2.703125l5.5 0q-0.109375 -1.234375 -0.625 -1.859375q-0.796875 -0.96875 -2.078125 -0.96875q-1.140625 0 -1.9375 0.78125q-0.78125 0.765625 -0.859375 2.046875zm8.219482 -3.984375l8.0 0l0 1.390625l-3.171875 0l0 8.46875l-1.65625 0l0 -8.46875l-3.171875 0l0 -1.390625zm9.404083 0l1.671875 0l0 3.859375l2.125 0q2.0625 0 3.171875 0.8125q1.125 0.796875 1.125 2.203125q0 1.234375 -0.9375 2.109375q-0.921875 0.875 -2.96875 0.875l-4.1875 0l0 -9.859375zm1.671875 8.484375l1.75 0q1.59375 0 2.265625 -0.390625q0.6875 -0.390625 0.6875 -1.21875q0 -0.640625 -0.5 -1.140625q-0.5 -0.5 -2.21875 -0.5l-1.984375 0l0 3.25z" fill-rule="nonzero"></path><path fill="#d9ead3" d="m0 88.59055l208.06299 0l0 98.89764l-208.06299 0z" fill-rule="nonzero"></path><path stroke="#000000" stroke-width="2.0" stroke-linejoin="round" stroke-linecap="butt" d="m0 88.59055l208.06299 0l0 98.89764l-208.06299 0z" fill-rule="nonzero"></path><path fill="#000000" d="m41.351807 123.798744l3.796875 0l0 12.546867q2.59375 0 3.640625 -1.0q1.0625 -1.015625 2.703125 -4.84375q1.1875 -2.8124924 1.953125 -3.9687424q0.78125 -1.171875 2.203125 -1.953125q1.4375 -0.796875 3.15625 -0.796875q2.1875 0 2.296875 0.046875l0 3.28125q-0.1875 0 -0.765625 -0.03125q-0.625 -0.015625 -0.75 -0.015625q-1.828125 0 -2.703125 0.875q-0.890625 0.8906174 -2.046875 3.7499924q-1.453125 3.640625 -2.453125 4.59375q-0.984375 0.9375 -2.375 1.5q2.78125 0.765625 5.46875 5.125l5.90625 9.53125l-4.71875 0l-4.78125 -7.78125q-1.96875 -3.21875 -3.296875 -4.421875q-1.328125 -1.203125 -3.4375 -1.203125l0 13.40625l-3.796875 0l0 -28.640617zm24.519531 7.8906174l16.328125 0l0 20.75l-3.5 0l0 -17.828125l-9.3125 0l0 10.328125q0 3.609375 -0.234375 4.765625q-0.234375 1.15625 -1.296875 2.015625q-1.046875 0.859375 -3.046875 0.859375q-1.21875 0 -2.828125 -0.15625l0 -2.9375l1.546875 0q1.09375 0 1.5625 -0.21875q0.46875 -0.234375 0.625 -0.71875q0.15625 -0.484375 0.15625 -3.1875l0 -13.671875zm21.621094 0l3.515625 0l0 15.828125l9.75 -15.828125l3.78125 0l0 20.75l-3.515625 0l0 -15.71875l-9.75 15.71875l-3.78125 0l0 -20.75zm36.546875 14.0625l3.625 0.453125q-0.859375 3.1875 -3.1875 4.953125q-2.3125 1.75 -5.9375 1.75q-4.546875 0 -7.21875 -2.796875q-2.65625 -2.8125 -2.65625 -7.875q0 -5.234375 2.6875 -8.125q2.703125 -2.890625 7.0 -2.890625q4.15625 0 6.796875 2.84375q2.640625 2.828125 2.640625 7.96875q0 0.3125 -0.03125 0.9375l-15.46875 0q0.203125 3.40625 1.9375 5.234375q1.734375 1.8125 4.34375 1.8125q1.921875 0 3.28125 -1.015625q1.375 -1.015625 2.1875 -3.25zm-11.546875 -5.671875l11.578125 0q-0.234375 -2.625 -1.328125 -3.9375q-1.671875 -2.03125 -4.359375 -2.03125q-2.421875 0 -4.078125 1.625q-1.640625 1.625 -1.8125 4.34375zm19.605469 -8.390625l3.515625 0l0 8.640625l9.75 0l0 -8.640625l3.515625 0l0 20.75l-3.515625 0l0 -9.203125l-9.75 0l0 9.203125l-3.515625 0l0 -20.75zm20.183594 0l16.84375 0l0 2.921875l-6.671875 0l0 17.828125l-3.5 0l0 -17.828125l-6.671875 0l0 -2.921875z" fill-rule="nonzero"></path><path fill="#f4cccc" d="m603.12335 88.59055l208.06299 0l0 98.89764l-208.06299 0z" fill-rule="nonzero"></path><path stroke="#000000" stroke-width="2.0" stroke-linejoin="round" stroke-linecap="butt" d="m603.12335 88.59055l208.06299 0l0 98.89764l-208.06299 0z" fill-rule="nonzero"></path><path fill="#000000" d="m661.1099 142.39249l3.796875 0.96875q-1.203125 4.65625 -4.296875 7.109375q-3.09375 2.453125 -7.5625 2.453125q-4.625 0 -7.53125 -1.875q-2.90625 -1.890625 -4.421875 -5.46875q-1.5 -3.578125 -1.5 -7.671875q0 -4.46875 1.703125 -7.796875q1.703125 -3.3437424 4.859375 -5.0624924q3.15625 -1.734375 6.953125 -1.734375q4.296875 0 7.21875 2.1875q2.9375 2.1875 4.078125 6.1562424l-3.71875 0.875q-1.0 -3.125 -2.90625 -4.5468674q-1.890625 -1.421875 -4.75 -1.421875q-3.3125 0 -5.53125 1.5781174q-2.203125 1.578125 -3.109375 4.25q-0.890625 2.65625 -0.890625 5.5q0 3.640625 1.0625 6.375q1.0625 2.71875 3.296875 4.078125q2.25 1.34375 4.875 1.34375q3.1875 0 5.390625 -1.828125q2.203125 -1.84375 2.984375 -5.46875zm22.214844 3.359375l3.625 0.453125q-0.859375 3.1875 -3.1875 4.953125q-2.3125 1.75 -5.9375 1.75q-4.546875 0 -7.21875 -2.796875q-2.65625 -2.8125 -2.65625 -7.875q0 -5.234375 2.6875 -8.125q2.703125 -2.890625 7.0 -2.890625q4.15625 0 6.796875 2.84375q2.640625 2.828125 2.640625 7.96875q0 0.3125 -0.03125 0.9375l-15.46875 0q0.203125 3.40625 1.9375 5.234375q1.734375 1.8125 4.34375 1.8125q1.921875 0 3.28125 -1.015625q1.375 -1.015625 2.1875 -3.25zm-11.546875 -5.671875l11.578125 0q-0.234375 -2.625 -1.328125 -3.9375q-1.671875 -2.03125 -4.359375 -2.03125q-2.421875 0 -4.078125 1.625q-1.640625 1.625 -1.8125 4.34375zm19.589844 20.3125l0 -28.703125l3.203125 0l0 2.703125q1.125 -1.578125 2.546875 -2.375q1.4375 -0.796875 3.46875 -0.796875q2.65625 0 4.6875 1.375q2.03125 1.359375 3.0625 3.859375q1.03125 2.484375 1.03125 5.453125q0 3.1875 -1.140625 5.734375q-1.140625 2.546875 -3.328125 3.90625q-2.171875 1.359375 -4.5625 1.359375q-1.765625 0 -3.171875 -0.734375q-1.390625 -0.75 -2.28125 -1.890625l0 10.109375l-3.515625 0zm3.1875 -18.203125q0 4.0 1.609375 5.921875q1.625 1.90625 3.9375 1.90625q2.34375 0 4.0 -1.984375q1.671875 -1.984375 1.671875 -6.140625q0 -3.96875 -1.625 -5.9375q-1.625 -1.96875 -3.890625 -1.96875q-2.25 0 -3.984375 2.09375q-1.71875 2.09375 -1.71875 6.109375zm19.074219 -10.5l8.109375 0q2.984375 0 4.4375 0.5q1.453125 0.5 2.5 1.828125q1.046875 1.328125 1.046875 3.1875q0 1.484375 -0.625 2.59375q-0.609375 1.09375 -1.828125 1.84375q1.453125 0.484375 2.421875 1.828125q0.96875 1.328125 0.96875 3.171875q-0.1875 2.9375 -2.109375 4.375q-1.90625 1.421875 -5.5625 1.421875l-9.359375 0l0 -20.75zm3.515625 8.734375l3.75 0q2.25 0 3.078125 -0.234375q0.84375 -0.234375 1.5 -0.9375q0.671875 -0.71875 0.671875 -1.71875q0 -1.640625 -1.15625 -2.28125q-1.15625 -0.640625 -3.96875 -0.640625l-3.875 0l0 5.8125zm0 9.125l4.625 0q3.0 0 4.109375 -0.6875q1.109375 -0.703125 1.171875 -2.40625q0 -0.984375 -0.65625 -1.828125q-0.640625 -0.859375 -1.671875 -1.078125q-1.03125 -0.234375 -3.3125 -0.234375l-4.265625 0l0 6.234375zm31.921875 -3.796875l3.625 0.453125q-0.859375 3.1875 -3.1875 4.953125q-2.3125 1.75 -5.9375 1.75q-4.546875 0 -7.21875 -2.796875q-2.65625 -2.8125 -2.65625 -7.875q0 -5.234375 2.6875 -8.125q2.703125 -2.890625 7.0 -2.890625q4.15625 0 6.796875 2.84375q2.640625 2.828125 2.640625 7.96875q0 0.3125 -0.03125 0.9375l-15.46875 0q0.203125 3.40625 1.9375 5.234375q1.734375 1.8125 4.34375 1.8125q1.921875 0 3.28125 -1.015625q1.375 -1.015625 2.1875 -3.25zm-11.546875 -5.671875l11.578125 0q-0.234375 -2.625 -1.328125 -3.9375q-1.671875 -2.03125 -4.359375 -2.03125q-2.421875 0 -4.078125 1.625q-1.640625 1.625 -1.8125 4.34375zm19.589844 20.3125l0 -28.703125l3.203125 0l0 2.703125q1.125 -1.578125 2.546875 -2.375q1.4375 -0.796875 3.46875 -0.796875q2.65625 0 4.6875 1.375q2.03125 1.359375 3.0625 3.859375q1.03125 2.484375 1.03125 5.453125q0 3.1875 -1.140625 5.734375q-1.140625 2.546875 -3.328125 3.90625q-2.171875 1.359375 -4.5625 1.359375q-1.765625 0 -3.171875 -0.734375q-1.390625 -0.75 -2.28125 -1.890625l0 10.109375l-3.515625 0zm3.1875 -18.203125q0 4.0 1.609375 5.921875q1.625 1.90625 3.9375 1.90625q2.34375 0 4.0 -1.984375q1.671875 -1.984375 1.671875 -6.140625q0 -3.96875 -1.625 -5.9375q-1.625 -1.96875 -3.890625 -1.96875q-2.25 0 -3.984375 2.09375q-1.71875 2.09375 -1.71875 6.109375z" fill-rule="nonzero"></path><path fill="#000000" fill-opacity="0.0" d="m104.031494 187.48819c0 12.5 150.77953 24.992126 301.55905 25.0c150.77951 0.007873535 301.55905 -12.468506 301.55905 -24.937012" fill-rule="nonzero"></path><path stroke="#666666" stroke-width="2.0" stroke-linejoin="round" stroke-linecap="butt" d="m114.52648 193.30672l1.0145493 0.27809143c0.35481262 0.09500122 0.7173157 0.18989563 1.0874481 0.2846527c0.74024963 0.18951416 1.5109863 0.37849426 2.3116379 0.5669098c3.202591 0.75364685 6.8837357 1.4981384 11.006615 2.2303925c16.4915 2.9290771 40.05081 5.6627197 68.321976 8.005966c56.542313 4.6865234 131.93207 7.8115234 207.32184 7.81546c150.77951 0.007873535 301.55905 -12.468506 301.55905 -24.937012" fill-rule="evenodd"></path><path fill="#666666" stroke="#666666" stroke-width="2.0" stroke-linecap="butt" d="m116.12826 190.41757l-9.539658 -1.5116882l6.3361053 7.2899933z" fill-rule="evenodd"></path><path fill="#000000" fill-opacity="0.0" d="m104.031494 88.59055c0 -12.5 150.77953 -25.007877 301.55905 -25.000004c150.77951 0.00787735 301.55905 12.531498 301.55905 25.062992" fill-rule="nonzero"></path><path stroke="#666666" stroke-width="2.0" stroke-linejoin="round" stroke-linecap="butt" d="m104.031494 88.59055c0 -12.5 150.77953 -25.007877 301.55905 -25.000004c75.38977 0.0039405823 150.77951 3.136814 207.32187 7.83514c28.271118 2.3491592 51.830444 5.089691 68.32196 8.026146c4.122864 0.734108 7.804016 1.4804688 11.006592 2.236023c0.8007202 0.18888092 1.5713501 0.3783493 2.3117065 0.5683365c0.37005615 0.09499359 0.732605 0.19012451 1.0874023 0.2853775l1.0216064 0.28071594" fill-rule="evenodd"></path><path fill="#666666" stroke="#666666" stroke-width="2.0" stroke-linecap="butt" d="m695.0564 85.709496l9.537842 1.523262l-6.3272705 -7.297676z" fill-rule="evenodd"></path><path fill="#000000" fill-opacity="0.0" d="m65.92126 39.149605l76.22048 0l0 48.409447l-76.22048 0z" fill-rule="nonzero"></path><path fill="#000000" d="m75.49938 63.132103l1.65625 -0.265625q0.140625 1.0 0.765625 1.53125q0.640625 0.515625 1.78125 0.515625q1.15625 0 1.703125 -0.46875q0.5625 -0.46875 0.5625 -1.09375q0 -0.5625 -0.484375 -0.890625q-0.34375 -0.21875 -1.703125 -0.5625q-1.84375 -0.46875 -2.5625 -0.796875q-0.703125 -0.34375 -1.078125 -0.9375q-0.359375 -0.609375 -0.359375 -1.328125q0 -0.65625 0.296875 -1.21875q0.3125 -0.5625 0.828125 -0.9375q0.390625 -0.28125 1.0625 -0.484375q0.671875 -0.203125 1.4375 -0.203125q1.171875 0 2.046875 0.34375q0.875 0.328125 1.28125 0.90625q0.421875 0.5625 0.578125 1.515625l-1.625 0.21875q-0.109375 -0.75 -0.65625 -1.171875q-0.53125 -0.4375 -1.5 -0.4375q-1.15625 0 -1.640625 0.390625q-0.484375 0.375 -0.484375 0.875q0 0.328125 0.203125 0.59375q0.203125 0.265625 0.640625 0.4375q0.25 0.09375 1.46875 0.4375q1.765625 0.46875 2.46875 0.765625q0.703125 0.296875 1.09375 0.875q0.40625 0.578125 0.40625 1.4375q0 0.828125 -0.484375 1.578125q-0.484375 0.734375 -1.40625 1.140625q-0.921875 0.390625 -2.078125 0.390625q-1.921875 0 -2.9375 -0.796875q-1.0 -0.796875 -1.28125 -2.359375zm16.75 -0.234375l1.71875 0.21875q-0.40625 1.5 -1.515625 2.34375q-1.09375 0.828125 -2.8125 0.828125q-2.15625 0 -3.421875 -1.328125q-1.265625 -1.328125 -1.265625 -3.734375q0 -2.484375 1.265625 -3.859375q1.28125 -1.375 3.328125 -1.375q1.984375 0 3.234375 1.34375q1.25 1.34375 1.25 3.796875q0 0.140625 -0.015625 0.4375l-7.34375 0q0.09375 1.625 0.921875 2.484375q0.828125 0.859375 2.0625 0.859375q0.90625 0 1.546875 -0.46875q0.65625 -0.484375 1.046875 -1.546875zm-5.484375 -2.703125l5.5 0q-0.109375 -1.234375 -0.625 -1.859375q-0.796875 -0.96875 -2.078125 -0.96875q-1.140625 0 -1.9375 0.78125q-0.78125 0.765625 -0.859375 2.046875zm9.110092 5.875l0 -9.859375l1.5 0l0 1.40625q1.09375 -1.625 3.140625 -1.625q0.890625 0 1.640625 0.328125q0.75 0.3125 1.109375 0.84375q0.375 0.515625 0.53125 1.21875q0.09375 0.46875 0.09375 1.625l0 6.0625l-1.671875 0l0 -6.0q0 -1.015625 -0.203125 -1.515625q-0.1875 -0.515625 -0.6875 -0.8125q-0.5 -0.296875 -1.171875 -0.296875q-1.0625 0 -1.84375 0.671875q-0.765625 0.671875 -0.765625 2.578125l0 5.375l-1.671875 0zm16.766342 0l0 -1.25q-0.9375 1.46875 -2.75 1.46875q-1.171875 0 -2.171875 -0.640625q-0.984375 -0.65625 -1.53125 -1.8125q-0.53125 -1.171875 -0.53125 -2.6875q0 -1.46875 0.484375 -2.671875q0.5 -1.203125 1.46875 -1.84375q0.984375 -0.640625 2.203125 -0.640625q0.890625 0 1.578125 0.375q0.703125 0.375 1.140625 0.984375l0 -4.875l1.65625 0l0 13.59375l-1.546875 0zm-5.28125 -4.921875q0 1.890625 0.796875 2.828125q0.8125 0.9375 1.890625 0.9375q1.09375 0 1.859375 -0.890625q0.765625 -0.890625 0.765625 -2.734375q0 -2.015625 -0.78125 -2.953125q-0.78125 -0.953125 -1.921875 -0.953125q-1.109375 0 -1.859375 0.90625q-0.75 0.90625 -0.75 2.859375zm12.453842 8.921875q-1.375 -1.75 -2.328125 -4.078125q-0.953125 -2.34375 -0.953125 -4.84375q0 -2.21875 0.703125 -4.234375q0.84375 -2.34375 2.578125 -4.671875l1.203125 0q-1.125 1.921875 -1.484375 2.75q-0.5625 1.28125 -0.890625 2.671875q-0.40625 1.734375 -0.40625 3.484375q0 4.46875 2.78125 8.921875l-1.203125 0zm4.118927 0l-1.1875 0q2.765625 -4.453125 2.765625 -8.921875q0 -1.734375 -0.390625 -3.453125q-0.328125 -1.390625 -0.890625 -2.671875q-0.359375 -0.84375 -1.484375 -2.78125l1.1875 0q1.75 2.328125 2.578125 4.671875q0.71875 2.015625 0.71875 4.234375q0 2.5 -0.96875 4.84375q-0.953125 2.328125 -2.328125 4.078125z" fill-rule="nonzero"></path><path fill="#000000" fill-opacity="0.0" d="m669.042 39.149605l76.22046 0l0 48.409447l-76.22046 0z" fill-rule="nonzero"></path><path fill="#000000" d="m679.27637 66.0696l0 -9.859375l1.5 0l0 1.5q0.578125 -1.046875 1.0625 -1.375q0.484375 -0.34375 1.078125 -0.34375q0.84375 0 1.71875 0.546875l-0.578125 1.546875q-0.609375 -0.359375 -1.234375 -0.359375q-0.546875 0 -0.984375 0.328125q-0.421875 0.328125 -0.609375 0.90625q-0.28125 0.890625 -0.28125 1.953125l0 5.15625l-1.671875 0zm12.9783325 -3.171875l1.71875 0.21875q-0.40625 1.5 -1.515625 2.34375q-1.09375 0.828125 -2.8125 0.828125q-2.15625 0 -3.421875 -1.328125q-1.265625 -1.328125 -1.265625 -3.734375q0 -2.484375 1.265625 -3.859375q1.28125 -1.375 3.328125 -1.375q1.984375 0 3.234375 1.34375q1.25 1.34375 1.25 3.796875q0 0.140625 -0.015625 0.4375l-7.34375 0q0.09375 1.625 0.921875 2.484375q0.828125 0.859375 2.0625 0.859375q0.90625 0 1.546875 -0.46875q0.65625 -0.484375 1.046875 -1.546875zm-5.484375 -2.703125l5.5 0q-0.109375 -1.234375 -0.625 -1.859375q-0.796875 -0.96875 -2.078125 -0.96875q-1.140625 0 -1.9375 0.78125q-0.78125 0.765625 -0.859375 2.046875zm15.547546 2.265625l1.640625 0.21875q-0.265625 1.6875 -1.375 2.65625q-1.109375 0.953125 -2.734375 0.953125q-2.015625 0 -3.25 -1.3125q-1.21875 -1.328125 -1.21875 -3.796875q0 -1.59375 0.515625 -2.78125q0.53125 -1.203125 1.609375 -1.796875q1.09375 -0.609375 2.359375 -0.609375q1.609375 0 2.625 0.8125q1.015625 0.8125 1.3125 2.3125l-1.625 0.25q-0.234375 -1.0 -0.828125 -1.5q-0.59375 -0.5 -1.421875 -0.5q-1.265625 0 -2.0625 0.90625q-0.78125 0.90625 -0.78125 2.859375q0 1.984375 0.765625 2.890625q0.765625 0.890625 1.984375 0.890625q0.984375 0 1.640625 -0.59375q0.65625 -0.609375 0.84375 -1.859375zm5.625 3.609375l-3.75 -9.859375l1.765625 0l2.125 5.90625q0.34375 0.953125 0.625 1.984375q0.21875 -0.78125 0.625 -1.875l2.1875 -6.015625l1.71875 0l-3.734375 9.859375l-1.5625 0zm9.78125 4.0q-1.375 -1.75 -2.328125 -4.078125q-0.953125 -2.34375 -0.953125 -4.84375q0 -2.21875 0.703125 -4.234375q0.84375 -2.34375 2.578125 -4.671875l1.203125 0q-1.125 1.921875 -1.484375 2.75q-0.5625 1.28125 -0.890625 2.671875q-0.40625 1.734375 -0.40625 3.484375q0 4.46875 2.78125 8.921875l-1.203125 0zm4.1189575 0l-1.1875 0q2.765625 -4.453125 2.765625 -8.921875q0 -1.734375 -0.390625 -3.453125q-0.328125 -1.390625 -0.890625 -2.671875q-0.359375 -0.84375 -1.484375 -2.78125l1.1875 0q1.75 2.328125 2.578125 4.671875q0.71875 2.015625 0.71875 4.234375q0 2.5 -0.96875 4.84375q-0.953125 2.328125 -2.328125 4.078125z" fill-rule="nonzero"></path><path fill="#000000" fill-opacity="0.0" d="m65.92126 188.51968l76.22048 0l0 48.409454l-76.22048 0z" fill-rule="nonzero"></path><path fill="#000000" d="m76.15563 215.43968l0 -9.859375l1.5 0l0 1.5q0.578125 -1.046875 1.0625 -1.375q0.484375 -0.34375 1.078125 -0.34375q0.84375 0 1.71875 0.546875l-0.578125 1.546875q-0.609375 -0.359375 -1.234375 -0.359375q-0.546875 0 -0.984375 0.328125q-0.421875 0.328125 -0.609375 0.90625q-0.28125 0.890625 -0.28125 1.953125l0 5.15625l-1.671875 0zm12.978302 -3.171875l1.71875 0.21875q-0.40625 1.5 -1.515625 2.34375q-1.09375 0.828125 -2.8125 0.828125q-2.15625 0 -3.421875 -1.328125q-1.265625 -1.328125 -1.265625 -3.734375q0 -2.484375 1.265625 -3.859375q1.28125 -1.375 3.328125 -1.375q1.984375 0 3.234375 1.34375q1.25 1.34375 1.25 3.796875q0 0.140625 -0.015625 0.4375l-7.34375 0q0.09375 1.625 0.921875 2.484375q0.828125 0.859375 2.0625 0.859375q0.90625 0 1.546875 -0.46875q0.65625 -0.484375 1.046875 -1.546875zm-5.484375 -2.703125l5.5 0q-0.109375 -1.234375 -0.625 -1.859375q-0.796875 -0.96875 -2.078125 -0.96875q-1.140625 0 -1.9375 0.78125q-0.78125 0.765625 -0.859375 2.046875zm15.547592 2.265625l1.640625 0.21875q-0.265625 1.6875 -1.375 2.65625q-1.109375 0.953125 -2.734375 0.953125q-2.015625 0 -3.25 -1.3125q-1.21875 -1.328125 -1.21875 -3.796875q0 -1.59375 0.515625 -2.78125q0.53125 -1.203125 1.609375 -1.796875q1.09375 -0.609375 2.359375 -0.609375q1.609375 0 2.625 0.8125q1.015625 0.8125 1.3125 2.3125l-1.625 0.25q-0.234375 -1.0 -0.828125 -1.5q-0.59375 -0.5 -1.421875 -0.5q-1.265625 0 -2.0625 0.90625q-0.78125 0.90625 -0.78125 2.859375q0 1.984375 0.765625 2.890625q0.765625 0.890625 1.984375 0.890625q0.984375 0 1.640625 -0.59375q0.65625 -0.609375 0.84375 -1.859375zm5.625 3.609375l-3.75 -9.859375l1.765625 0l2.125 5.90625q0.34375 0.953125 0.625 1.984375q0.21875 -0.78125 0.625 -1.875l2.1875 -6.015625l1.71875 0l-3.734375 9.859375l-1.5625 0zm9.78125 4.0q-1.375 -1.75 -2.328125 -4.078125q-0.953125 -2.34375 -0.953125 -4.84375q0 -2.21875 0.703125 -4.234375q0.84375 -2.34375 2.578125 -4.671875l1.203125 0q-1.125 1.921875 -1.484375 2.75q-0.5625 1.28125 -0.890625 2.671875q-0.40625 1.734375 -0.40625 3.484375q0 4.46875 2.78125 8.921875l-1.203125 0zm4.118927 0l-1.1875 0q2.765625 -4.453125 2.765625 -8.921875q0 -1.734375 -0.390625 -3.453125q-0.328125 -1.390625 -0.890625 -2.671875q-0.359375 -0.84375 -1.484375 -2.78125l1.1875 0q1.75 2.328125 2.578125 4.671875q0.71875 2.015625 0.71875 4.234375q0 2.5 -0.96875 4.84375q-0.953125 2.328125 -2.328125 4.078125z" fill-rule="nonzero"></path><path fill="#000000" fill-opacity="0.0" d="m669.042 188.51968l76.22046 0l0 48.409454l-76.22046 0z" fill-rule="nonzero"></path><path fill="#000000" d="m678.6201 212.50218l1.65625 -0.265625q0.140625 1.0 0.765625 1.53125q0.640625 0.515625 1.78125 0.515625q1.15625 0 1.703125 -0.46875q0.5625 -0.46875 0.5625 -1.09375q0 -0.5625 -0.484375 -0.890625q-0.34375 -0.21875 -1.703125 -0.5625q-1.84375 -0.46875 -2.5625 -0.796875q-0.703125 -0.34375 -1.078125 -0.9375q-0.359375 -0.609375 -0.359375 -1.328125q0 -0.65625 0.296875 -1.21875q0.3125 -0.5625 0.828125 -0.9375q0.390625 -0.28125 1.0625 -0.484375q0.671875 -0.203125 1.4375 -0.203125q1.171875 0 2.046875 0.34375q0.875 0.328125 1.28125 0.90625q0.421875 0.5625 0.578125 1.515625l-1.625 0.21875q-0.109375 -0.75 -0.65625 -1.171875q-0.53125 -0.4375 -1.5 -0.4375q-1.15625 0 -1.640625 0.390625q-0.484375 0.375 -0.484375 0.875q0 0.328125 0.203125 0.59375q0.203125 0.265625 0.640625 0.4375q0.25 0.09375 1.46875 0.4375q1.765625 0.46875 2.46875 0.765625q0.703125 0.296875 1.09375 0.875q0.40625 0.578125 0.40625 1.4375q0 0.828125 -0.484375 1.578125q-0.484375 0.734375 -1.40625 1.140625q-0.921875 0.390625 -2.078125 0.390625q-1.921875 0 -2.9375 -0.796875q-1.0 -0.796875 -1.28125 -2.359375zm16.75 -0.234375l1.71875 0.21875q-0.40625 1.5 -1.515625 2.34375q-1.09375 0.828125 -2.8125 0.828125q-2.15625 0 -3.421875 -1.328125q-1.265625 -1.328125 -1.265625 -3.734375q0 -2.484375 1.265625 -3.859375q1.28125 -1.375 3.328125 -1.375q1.984375 0 3.234375 1.34375q1.25 1.34375 1.25 3.796875q0 0.140625 -0.015625 0.4375l-7.34375 0q0.09375 1.625 0.921875 2.484375q0.828125 0.859375 2.0625 0.859375q0.90625 0 1.546875 -0.46875q0.65625 -0.484375 1.046875 -1.546875zm-5.484375 -2.703125l5.5 0q-0.109375 -1.234375 -0.625 -1.859375q-0.796875 -0.96875 -2.078125 -0.96875q-1.140625 0 -1.9375 0.78125q-0.78125 0.765625 -0.859375 2.046875zm9.110107 5.875l0 -9.859375l1.5 0l0 1.40625q1.09375 -1.625 3.140625 -1.625q0.890625 0 1.640625 0.328125q0.75 0.3125 1.109375 0.84375q0.375 0.515625 0.53125 1.21875q0.09375 0.46875 0.09375 1.625l0 6.0625l-1.671875 0l0 -6.0q0 -1.015625 -0.203125 -1.515625q-0.1875 -0.515625 -0.6875 -0.8125q-0.5 -0.296875 -1.171875 -0.296875q-1.0625 0 -1.84375 0.671875q-0.765625 0.671875 -0.765625 2.578125l0 5.375l-1.671875 0zm16.766357 0l0 -1.25q-0.9375 1.46875 -2.75 1.46875q-1.171875 0 -2.171875 -0.640625q-0.984375 -0.65625 -1.53125 -1.8125q-0.53125 -1.171875 -0.53125 -2.6875q0 -1.46875 0.484375 -2.671875q0.5 -1.203125 1.46875 -1.84375q0.984375 -0.640625 2.203125 -0.640625q0.890625 0 1.578125 0.375q0.703125 0.375 1.140625 0.984375l0 -4.875l1.65625 0l0 13.59375l-1.546875 0zm-5.28125 -4.921875q0 1.890625 0.796875 2.828125q0.8125 0.9375 1.890625 0.9375q1.09375 0 1.859375 -0.890625q0.765625 -0.890625 0.765625 -2.734375q0 -2.015625 -0.78125 -2.953125q-0.78125 -0.953125 -1.921875 -0.953125q-1.109375 0 -1.859375 0.90625q-0.75 0.90625 -0.75 2.859375zm12.453796 8.921875q-1.375 -1.75 -2.328125 -4.078125q-0.953125 -2.34375 -0.953125 -4.84375q0 -2.21875 0.703125 -4.234375q0.84375 -2.34375 2.578125 -4.671875l1.203125 0q-1.125 1.921875 -1.484375 2.75q-0.5625 1.28125 -0.890625 2.671875q-0.40625 1.734375 -0.40625 3.484375q0 4.46875 2.78125 8.921875l-1.203125 0zm4.1189575 0l-1.1875 0q2.765625 -4.453125 2.765625 -8.921875q0 -1.734375 -0.390625 -3.453125q-0.328125 -1.390625 -0.890625 -2.671875q-0.359375 -0.84375 -1.484375 -2.78125l1.1875 0q1.75 2.328125 2.578125 4.671875q0.71875 2.015625 0.71875 4.234375q0 2.5 -0.96875 4.84375q-0.953125 2.328125 -2.328125 4.078125z" fill-rule="nonzero"></path><path fill="#000000" fill-opacity="0.0" d="m362.33072 0l111.49606 0l0 39.14961l-111.49606 0z" fill-rule="nonzero"></path><path fill="#000000" d="m372.2526 27.180626l2.15625 -0.5625q0.25 1.265625 1.3125 2.515625q1.078125 1.25 2.859375 1.25q1.796875 0 2.84375 -0.921875q1.046875 -0.921875 1.046875 -2.234375q0 -1.421875 -1.109375 -2.25q-1.09375 -0.84375 -3.0 -0.84375l-1.09375 0l0 -1.984375q1.578125 0 2.40625 -0.171875q0.828125 -0.1875 1.46875 -0.9375q0.640625 -0.75 0.640625 -1.6875q0 -1.125 -0.875 -1.953125q-0.875 -0.84375 -2.359375 -0.84375q-1.296875 0 -2.21875 0.65625q-0.921875 0.640625 -1.28125 1.71875q-0.34375 1.078125 -0.34375 1.59375l-2.171875 -0.484375q0.796875 -5.46875 6.046875 -5.46875q2.515625 0 3.984375 1.40625q1.484375 1.390625 1.484375 3.265625q0 2.40625 -2.28125 3.71875q1.3125 0.375 2.203125 1.5q0.890625 1.109375 0.890625 2.671875q0 2.203125 -1.71875 3.703125q-1.71875 1.5 -4.5625 1.5q-4.875 0 -6.328125 -5.15625zm23.277344 3.328125q-1.171875 0.984375 -2.265625 1.40625q-1.078125 0.40625 -2.3125 0.40625q-2.046875 0 -3.15625 -1.0q-1.09375 -1.0 -1.09375 -2.5625q0 -0.921875 0.40625 -1.671875q0.421875 -0.75 1.09375 -1.203125q0.671875 -0.46875 1.515625 -0.703125q0.625 -0.15625 1.875 -0.3125q2.5625 -0.3125 3.765625 -0.734375q0.015625 -0.421875 0.015625 -0.546875q0 -1.28125 -0.609375 -1.8125q-0.796875 -0.71875 -2.390625 -0.71875q-1.5 0 -2.203125 0.53125q-0.703125 0.515625 -1.046875 1.84375l-2.0625 -0.28125q0.28125 -1.328125 0.921875 -2.140625q0.640625 -0.8125 1.859375 -1.25q1.21875 -0.453125 2.828125 -0.453125q1.59375 0 2.59375 0.375q1.0 0.375 1.46875 0.953125q0.46875 0.5625 0.65625 1.4375q0.09375 0.53125 0.09375 1.9375l0 2.8125q0 2.9375 0.140625 3.71875q0.140625 0.78125 0.53125 1.5l-2.203125 0q-0.328125 -0.65625 -0.421875 -1.53125zm-0.171875 -4.71875q-1.15625 0.46875 -3.453125 0.796875q-1.296875 0.1875 -1.84375 0.421875q-0.53125 0.234375 -0.828125 0.6875q-0.28125 0.453125 -0.28125 1.0q0 0.84375 0.625 1.40625q0.640625 0.5625 1.875 0.5625q1.21875 0 2.171875 -0.53125q0.953125 -0.53125 1.390625 -1.453125q0.34375 -0.71875 0.34375 -2.109375l0 -0.78125zm5.4101562 -6.203125l9.828125 0l0 12.453125l-2.109375 0l0 -10.703125l-5.609375 0l0 10.703125l-2.109375 0l0 -12.453125zm12.980469 17.21875l0 -17.21875l1.921875 0l0 1.625q0.6875 -0.953125 1.53125 -1.421875q0.859375 -0.484375 2.078125 -0.484375q1.59375 0 2.8125 0.828125q1.21875 0.8125 1.84375 2.3125q0.625 1.5 0.625 3.28125q0 1.90625 -0.6875 3.4375q-0.6875 1.53125 -2.0 2.34375q-1.296875 0.8125 -2.734375 0.8125q-1.0625 0 -1.90625 -0.4375q-0.828125 -0.453125 -1.375 -1.140625l0 6.0625l-2.109375 0zm1.921875 -10.921875q0 2.40625 0.96875 3.5625q0.96875 1.140625 2.359375 1.140625q1.40625 0 2.40625 -1.1875q1.0 -1.1875 1.0 -3.6875q0 -2.375 -0.984375 -3.5625q-0.96875 -1.1875 -2.328125 -1.1875q-1.359375 0 -2.390625 1.265625q-1.03125 1.25 -1.03125 3.65625zm10.644531 -0.0625q0 -3.46875 1.921875 -5.125q1.609375 -1.390625 3.921875 -1.390625q2.5625 0 4.1875 1.6875q1.625 1.6875 1.625 4.640625q0 2.40625 -0.71875 3.78125q-0.71875 1.375 -2.09375 2.140625q-1.375 0.765625 -3.0 0.765625q-2.625 0 -4.234375 -1.671875q-1.609375 -1.6875 -1.609375 -4.828125zm2.171875 0q0 2.390625 1.03125 3.578125q1.046875 1.1875 2.640625 1.1875q1.5625 0 2.609375 -1.1875q1.046875 -1.203125 1.046875 -3.65625q0 -2.3125 -1.0625 -3.5q-1.046875 -1.1875 -2.59375 -1.1875q-1.59375 0 -2.640625 1.1875q-1.03125 1.1875 -1.03125 3.578125zm20.082031 1.65625l2.078125 0.265625q-0.34375 2.15625 -1.75 3.375q-1.390625 1.203125 -3.4375 1.203125q-2.546875 0 -4.109375 -1.671875q-1.546875 -1.671875 -1.546875 -4.78125q0 -2.015625 0.671875 -3.53125q0.671875 -1.515625 2.03125 -2.265625q1.359375 -0.765625 2.96875 -0.765625q2.03125 0 3.3125 1.03125q1.296875 1.03125 1.65625 2.90625l-2.046875 0.328125q-0.296875 -1.265625 -1.046875 -1.890625q-0.734375 -0.640625 -1.796875 -0.640625q-1.59375 0 -2.59375 1.15625q-0.984375 1.140625 -0.984375 3.609375q0 2.5 0.953125 3.640625q0.96875 1.140625 2.515625 1.140625q1.234375 0 2.0625 -0.765625q0.84375 -0.765625 1.0625 -2.34375z" fill-rule="nonzero"></path><path fill="#000000" fill-opacity="0.0" d="m362.33075 236.92914l95.1181 0l0 39.149597l-95.1181 0z" fill-rule="nonzero"></path><path fill="#000000" d="m372.487 260.59415q0 -4.265625 2.296875 -6.6875153q2.296875 -2.421875 5.9375 -2.421875q2.375 0 4.28125 1.140625q1.921875 1.125 2.921875 3.171875q1.0 2.0312653 1.0 4.6093903q0 2.609375 -1.0625 4.671875q-1.046875 2.0625 -2.984375 3.125q-1.9375 1.0625 -4.171875 1.0625q-2.421875 0 -4.34375 -1.171875q-1.90625 -1.171875 -2.890625 -3.203125q-0.984375 -2.03125 -0.984375 -4.296875zm2.34375 0.046875q0 3.09375 1.671875 4.890625q1.671875 1.78125 4.1875 1.78125q2.578125 0 4.234375 -1.796875q1.65625 -1.8125 1.65625 -5.125q0 -2.09375 -0.71875 -3.65625q-0.703125 -1.5781403 -2.078125 -2.4375153q-1.359375 -0.859375 -3.046875 -0.859375q-2.421875 0 -4.171875 1.65625q-1.734375 1.6562653 -1.734375 5.5468903zm15.621094 -4.125l10.109375 0l0 1.75l-4.015625 0l0 10.703125l-2.09375 0l0 -10.703125l-4.0 0l0 -1.75zm12.1328125 0l4.859375 0q1.796875 0 2.671875 0.3125q0.875 0.296875 1.5 1.09375q0.625 0.796875 0.625 1.90625q0 0.890625 -0.375 1.5625q-0.359375 0.65625 -1.09375 1.09375q0.875 0.296875 1.453125 1.109375q0.578125 0.796875 0.578125 1.890625q-0.109375 1.765625 -1.265625 2.625q-1.140625 0.859375 -3.34375 0.859375l-5.609375 0l0 -12.453125zm2.109375 5.25l2.25 0q1.34375 0 1.84375 -0.140625q0.515625 -0.140625 0.90625 -0.5625q0.40625 -0.4375 0.40625 -1.03125q0 -0.984375 -0.703125 -1.375q-0.6875 -0.390625 -2.375 -0.390625l-2.328125 0l0 3.5zm0 5.46875l2.78125 0q1.796875 0 2.453125 -0.40625q0.671875 -0.421875 0.703125 -1.453125q0 -0.59375 -0.390625 -1.09375q-0.375 -0.515625 -1.0 -0.640625q-0.625 -0.140625 -1.984375 -0.140625l-2.5625 0l0 3.734375zm19.15625 -2.28125l2.171875 0.28125q-0.515625 1.90625 -1.90625 2.96875q-1.390625 1.046875 -3.5625 1.046875q-2.734375 0 -4.34375 -1.671875q-1.59375 -1.6875 -1.59375 -4.734375q0 -3.140625 1.609375 -4.875q1.625 -1.734375 4.203125 -1.734375q2.5 0 4.078125 1.703125q1.59375 1.703125 1.59375 4.78125q0 0.1875 -0.015625 0.5625l-9.28125 0q0.109375 2.046875 1.15625 3.140625q1.046875 1.09375 2.609375 1.09375q1.15625 0 1.96875 -0.609375q0.828125 -0.609375 1.3125 -1.953125zm-6.9375 -3.40625l6.953125 0q-0.140625 -1.5625 -0.796875 -2.359375q-1.0 -1.21875 -2.609375 -1.21875q-1.453125 0 -2.453125 0.984375q-0.984375 0.96875 -1.09375 2.59375zm10.628906 -5.03125l10.109375 0l0 1.75l-4.015625 0l0 10.703125l-2.09375 0l0 -10.703125l-4.0 0l0 -1.75z" fill-rule="nonzero"></path></g></svg>

