<?xml version="1.0" standalone="yes"?>

<svg version="1.1" viewBox="0.0 0.0 434.0 543.0" fill="none" stroke="none" stroke-linecap="square" stroke-miterlimit="10" xmlns="http://www.w3.org/2000/svg" xmlns:xlink="http://www.w3.org/1999/xlink"><clipPath id="p.0"><path d="m0 0l434.0 0l0 543.0l-434.0 0l0 -543.0z" clip-rule="nonzero"></path></clipPath><g clip-path="url(#p.0)"><path fill="#000000" fill-opacity="0.0" d="m0 0l434.72177 0l0 543.8845l-434.72177 0z" fill-rule="nonzero"></path><path fill="#cfe2f3" d="m0 60.952755l151.40158 0l0 97.85826l-151.40158 0z" fill-rule="nonzero"></path><path stroke="#000000" stroke-width="2.0" stroke-linejoin="round" stroke-linecap="butt" d="m0 60.952755l151.40158 0l0 97.85826l-151.40158 0z" fill-rule="nonzero"></path><path fill="#000000" d="m31.432716 103.20814l10.703125 0l0 13.59375l-1.8125 0l0 -12.0l-7.09375 0l0 12.0l-1.796875 0l0 -13.59375zm13.174805 17.375l0 -13.640625l1.53125 0l0 1.28125q0.53125 -0.75 1.203125 -1.125q0.6875 -0.375 1.640625 -0.375q1.265625 0 2.234375 0.65625q0.96875 0.640625 1.453125 1.828125q0.5 1.1875 0.5 2.59375q0 1.515625 -0.546875 2.734375q-0.546875 1.203125 -1.578125 1.84375q-1.03125 0.640625 -2.171875 0.640625q-0.84375 0 -1.515625 -0.34375q-0.65625 -0.359375 -1.078125 -0.890625l0 4.796875l-1.671875 0zm1.515625 -8.65625q0 1.90625 0.765625 2.8125q0.78125 0.90625 1.875 0.90625q1.109375 0 1.890625 -0.9375q0.796875 -0.9375 0.796875 -2.921875q0 -1.875 -0.78125 -2.8125q-0.765625 -0.9375 -1.84375 -0.9375q-1.0625 0 -1.890625 1.0q-0.8125 1.0 -0.8125 2.890625zm8.235092 -0.046875q0 -2.734375 1.53125 -4.0625q1.265625 -1.09375 3.09375 -1.09375q2.03125 0 3.3125 1.34375q1.296875 1.328125 1.296875 3.671875q0 1.90625 -0.578125 3.0q-0.5625 1.078125 -1.65625 1.6875q-1.078125 0.59375 -2.375 0.59375q-2.0625 0 -3.34375 -1.328125q-1.28125 -1.328125 -1.28125 -3.8125zm1.71875 0q0 1.890625 0.828125 2.828125q0.828125 0.9375 2.078125 0.9375q1.25 0 2.0625 -0.9375q0.828125 -0.953125 0.828125 -2.890625q0 -1.828125 -0.828125 -2.765625q-0.828125 -0.9375 -2.0625 -0.9375q-1.25 0 -2.078125 0.9375q-0.828125 0.9375 -0.828125 2.828125zm9.313217 -4.9375l1.671875 0l0 8.484375l4.625 0l0 -8.484375l1.65625 0l0 8.484375l1.078125 0l0 4.171875l-1.375 0l0 -2.796875l-7.65625 0l0 -9.859375zm17.40419 6.6875l1.71875 0.21875q-0.40625 1.5 -1.515625 2.34375q-1.09375 0.828125 -2.8125 0.828125q-2.15625 0 -3.421875 -1.328125q-1.265625 -1.328125 -1.265625 -3.734375q0 -2.484375 1.265625 -3.859375q1.28125 -1.375 3.328125 -1.375q1.984375 0 3.234375 1.34375q1.25 1.34375 1.25 3.796875q0 0.140625 -0.015625 0.4375l-7.34375 0q0.09375 1.625 0.921875 2.484375q0.828125 0.859375 2.0625 0.859375q0.90625 0 1.546875 -0.46875q0.65625 -0.484375 1.046875 -1.546875zm-5.484375 -2.703125l5.5 0q-0.109375 -1.234375 -0.625 -1.859375q-0.796875 -0.96875 -2.078125 -0.96875q-1.140625 0 -1.9375 0.78125q-0.78125 0.765625 -0.859375 2.046875zm15.547592 2.265625l1.640625 0.21875q-0.265625 1.6875 -1.375 2.65625q-1.109375 0.953125 -2.734375 0.953125q-2.015625 0 -3.25 -1.3125q-1.21875 -1.328125 -1.21875 -3.796875q0 -1.59375 0.515625 -2.78125q0.53125 -1.203125 1.609375 -1.796875q1.09375 -0.609375 2.359375 -0.609375q1.609375 0 2.625 0.8125q1.015625 0.8125 1.3125 2.3125l-1.625 0.25q-0.234375 -1.0 -0.828125 -1.5q-0.59375 -0.5 -1.421875 -0.5q-1.265625 0 -2.0625 0.90625q-0.78125 0.90625 -0.78125 2.859375q0 1.984375 0.765625 2.890625q0.765625 0.890625 1.984375 0.890625q0.984375 0 1.640625 -0.59375q0.65625 -0.609375 0.84375 -1.859375zm9.328125 0l1.640625 0.21875q-0.265625 1.6875 -1.375 2.65625q-1.109375 0.953125 -2.734375 0.953125q-2.015625 0 -3.25 -1.3125q-1.21875 -1.328125 -1.21875 -3.796875q0 -1.59375 0.515625 -2.78125q0.53125 -1.203125 1.609375 -1.796875q1.09375 -0.609375 2.359375 -0.609375q1.609375 0 2.625 0.8125q1.015625 0.8125 1.3125 2.3125l-1.625 0.25q-0.234375 -1.0 -0.828125 -1.5q-0.59375 -0.5 -1.421875 -0.5q-1.265625 0 -2.0625 0.90625q-0.78125 0.90625 -0.78125 2.859375q0 1.984375 0.765625 2.890625q0.765625 0.890625 1.984375 0.890625q0.984375 0 1.640625 -0.59375q0.65625 -0.609375 0.84375 -1.859375zm6.792679 3.609375l5.234375 -13.59375l1.9375 0l5.5625 13.59375l-2.046875 0l-1.59375 -4.125l-5.6875 0l-1.484375 4.125l-1.921875 0zm3.921875 -5.578125l4.609375 0l-1.40625 -3.78125q-0.65625 -1.703125 -0.96875 -2.8125q-0.265625 1.3125 -0.734375 2.59375l-1.5 4.0z" fill-rule="nonzero"></path><path fill="#cfe2f3" d="m280.65616 64.04199l151.40158 0l0 97.85828l-151.40158 0z" fill-rule="nonzero"></path><path stroke="#000000" stroke-width="2.0" stroke-linejoin="round" stroke-linecap="butt" d="m280.65616 64.04199l151.40158 0l0 97.85828l-151.40158 0z" fill-rule="nonzero"></path><path fill="#000000" d="m312.1891 106.29738l10.703125 0l0 13.59375l-1.8125 0l0 -12.0l-7.09375 0l0 12.0l-1.796875 0l0 -13.59375zm13.174805 17.375l0 -13.640625l1.53125 0l0 1.28125q0.53125 -0.75 1.203125 -1.125q0.6875 -0.375 1.640625 -0.375q1.265625 0 2.234375 0.65625q0.96875 0.640625 1.453125 1.828125q0.5 1.1875 0.5 2.59375q0 1.515625 -0.546875 2.734375q-0.546875 1.203125 -1.578125 1.84375q-1.03125 0.640625 -2.171875 0.640625q-0.84375 0 -1.515625 -0.34375q-0.65625 -0.359375 -1.078125 -0.890625l0 4.796875l-1.671875 0zm1.515625 -8.65625q0 1.90625 0.765625 2.8125q0.78125 0.90625 1.875 0.90625q1.109375 0 1.890625 -0.9375q0.796875 -0.9375 0.796875 -2.921875q0 -1.875 -0.78125 -2.8125q-0.765625 -0.9375 -1.84375 -0.9375q-1.0625 0 -1.890625 1.0q-0.8125 1.0 -0.8125 2.890625zm8.235107 -0.046875q0 -2.734375 1.53125 -4.0625q1.265625 -1.09375 3.09375 -1.09375q2.03125 0 3.3125 1.34375q1.296875 1.328125 1.296875 3.671875q0 1.90625 -0.578125 3.0q-0.5625 1.078125 -1.65625 1.6875q-1.078125 0.59375 -2.375 0.59375q-2.0625 0 -3.34375 -1.328125q-1.28125 -1.328125 -1.28125 -3.8125zm1.71875 0q0 1.890625 0.828125 2.828125q0.828125 0.9375 2.078125 0.9375q1.25 0 2.0625 -0.9375q0.828125 -0.953125 0.828125 -2.890625q0 -1.828125 -0.828125 -2.765625q-0.828125 -0.9375 -2.0625 -0.9375q-1.25 0 -2.078125 0.9375q-0.828125 0.9375 -0.828125 2.828125zm9.313202 -4.9375l1.671875 0l0 8.484375l4.625 0l0 -8.484375l1.65625 0l0 8.484375l1.078125 0l0 4.171875l-1.375 0l0 -2.796875l-7.65625 0l0 -9.859375zm17.404205 6.6875l1.71875 0.21875q-0.40625 1.5 -1.515625 2.34375q-1.09375 0.828125 -2.8125 0.828125q-2.15625 0 -3.421875 -1.328125q-1.265625 -1.328125 -1.265625 -3.734375q0 -2.484375 1.265625 -3.859375q1.28125 -1.375 3.328125 -1.375q1.984375 0 3.234375 1.34375q1.25 1.34375 1.25 3.796875q0 0.140625 -0.015625 0.4375l-7.34375 0q0.09375 1.625 0.921875 2.484375q0.828125 0.859375 2.0625 0.859375q0.90625 0 1.546875 -0.46875q0.65625 -0.484375 1.046875 -1.546875zm-5.484375 -2.703125l5.5 0q-0.109375 -1.234375 -0.625 -1.859375q-0.796875 -0.96875 -2.078125 -0.96875q-1.140625 0 -1.9375 0.78125q-0.78125 0.765625 -0.859375 2.046875zm15.547577 2.265625l1.640625 0.21875q-0.265625 1.6875 -1.375 2.65625q-1.109375 0.953125 -2.734375 0.953125q-2.015625 0 -3.25 -1.3125q-1.21875 -1.328125 -1.21875 -3.796875q0 -1.59375 0.515625 -2.78125q0.53125 -1.203125 1.609375 -1.796875q1.09375 -0.609375 2.359375 -0.609375q1.609375 0 2.625 0.8125q1.015625 0.8125 1.3125 2.3125l-1.625 0.25q-0.234375 -1.0 -0.828125 -1.5q-0.59375 -0.5 -1.421875 -0.5q-1.265625 0 -2.0625 0.90625q-0.78125 0.90625 -0.78125 2.859375q0 1.984375 0.765625 2.890625q0.765625 0.890625 1.984375 0.890625q0.984375 0 1.640625 -0.59375q0.65625 -0.609375 0.84375 -1.859375zm9.328125 0l1.640625 0.21875q-0.265625 1.6875 -1.375 2.65625q-1.109375 0.953125 -2.734375 0.953125q-2.015625 0 -3.25 -1.3125q-1.21875 -1.328125 -1.21875 -3.796875q0 -1.59375 0.515625 -2.78125q0.53125 -1.203125 1.609375 -1.796875q1.09375 -0.609375 2.359375 -0.609375q1.609375 0 2.625 0.8125q1.015625 0.8125 1.3125 2.3125l-1.625 0.25q-0.234375 -1.0 -0.828125 -1.5q-0.59375 -0.5 -1.421875 -0.5q-1.265625 0 -2.0625 0.90625q-0.78125 0.90625 -0.78125 2.859375q0 1.984375 0.765625 2.890625q0.765625 0.890625 1.984375 0.890625q0.984375 0 1.640625 -0.59375q0.65625 -0.609375 0.84375 -1.859375zm8.370819 -9.984375l8.828125 0l0 1.59375l-7.03125 0l0 4.203125l3.25 0q1.796875 0 2.859375 0.34375q1.0625 0.34375 1.703125 1.296875q0.640625 0.9375 0.640625 2.203125q0 1.03125 -0.46875 1.9375q-0.453125 0.890625 -1.359375 1.453125q-0.90625 0.5625 -3.09375 0.5625l-5.328125 0l0 -13.59375zm1.796875 12.0625l3.609375 0q1.453125 0 2.171875 -0.59375q0.734375 -0.59375 0.734375 -1.78125q0 -0.84375 -0.421875 -1.40625q-0.40625 -0.5625 -1.15625 -0.75q-0.734375 -0.1875 -2.53125 -0.1875l-2.40625 0l0 4.71875z" fill-rule="nonzero"></path><path fill="#fff2cc" d="m151.40158 76.4042l105.44882 0l0 -12.3622055l24.724396 24.724411l-24.724396 24.724411l0 -12.3622055l-105.44882 0z" fill-rule="nonzero"></path><path stroke="#000000" stroke-width="2.0" stroke-linejoin="round" stroke-linecap="butt" d="m151.40158 76.4042l105.44882 0l0 -12.3622055l24.724396 24.724411l-24.724396 24.724411l0 -12.3622055l-105.44882 0z" fill-rule="nonzero"></path><path fill="#d9ead3" d="m159.65617 80.53018l18.551178 0l0 16.472443l-18.551178 0z" fill-rule="nonzero"></path><path stroke="#000000" stroke-width="2.0" stroke-linejoin="round" stroke-linecap="butt" d="m159.65617 80.53018l18.551178 0l0 16.472443l-18.551178 0z" fill-rule="nonzero"></path><path fill="#d9ead3" d="m186.46194 80.53018l18.551178 0l0 16.472443l-18.551178 0z" fill-rule="nonzero"></path><path stroke="#000000" stroke-width="2.0" stroke-linejoin="round" stroke-linecap="butt" d="m186.46194 80.53018l18.551178 0l0 16.472443l-18.551178 0z" fill-rule="nonzero"></path><path fill="#d9ead3" d="m213.26772 80.53018l18.551178 0l0 16.472443l-18.551178 0z" fill-rule="nonzero"></path><path stroke="#000000" stroke-width="2.0" stroke-linejoin="round" stroke-linecap="butt" d="m213.26772 80.53018l18.551178 0l0 16.472443l-18.551178 0z" fill-rule="nonzero"></path><path fill="#fff2cc" d="m281.5748 114.514435l-105.44881 0l0 -12.3622055l-24.724411 24.724411l24.724411 24.724403l0 -12.362198l105.44881 0z" fill-rule="nonzero"></path><path stroke="#000000" stroke-width="2.0" stroke-linejoin="round" stroke-linecap="butt" d="m281.5748 114.514435l-105.44881 0l0 -12.3622055l-24.724411 24.724411l24.724411 24.724403l0 -12.362198l105.44881 0z" fill-rule="nonzero"></path><path fill="#d9ead3" d="m225.92126 118.64042l18.551178 0l0 16.472435l-18.551178 0z" fill-rule="nonzero"></path><path stroke="#000000" stroke-width="2.0" stroke-linejoin="round" stroke-linecap="butt" d="m225.92126 118.64042l18.551178 0l0 16.472435l-18.551178 0z" fill-rule="nonzero"></path><path fill="#d9ead3" d="m253.28871 118.64042l18.551193 0l0 16.472435l-18.551193 0z" fill-rule="nonzero"></path><path stroke="#000000" stroke-width="2.0" stroke-linejoin="round" stroke-linecap="butt" d="m253.28871 118.64042l18.551193 0l0 16.472435l-18.551193 0z" fill-rule="nonzero"></path><path fill="#cfe2f3" d="m-0.001312336 246.00656l151.40158 0l0 97.85828l-151.40158 0z" fill-rule="nonzero"></path><path stroke="#000000" stroke-width="2.0" stroke-linejoin="round" stroke-linecap="butt" d="m-0.001312336 246.00656l151.40158 0l0 97.85828l-151.40158 0z" fill-rule="nonzero"></path><path fill="#000000" d="m31.431404 288.26193l10.703125 0l0 13.59375l-1.8125 0l0 -12.0l-7.09375 0l0 12.0l-1.796875 0l0 -13.59375zm13.174805 17.375l0 -13.640625l1.53125 0l0 1.28125q0.53125 -0.75 1.203125 -1.125q0.6875 -0.375 1.640625 -0.375q1.265625 0 2.234375 0.65625q0.96875 0.640625 1.453125 1.828125q0.5 1.1875 0.5 2.59375q0 1.515625 -0.546875 2.734375q-0.546875 1.203125 -1.578125 1.84375q-1.03125 0.640625 -2.171875 0.640625q-0.84375 0 -1.515625 -0.34375q-0.65625 -0.359375 -1.078125 -0.890625l0 4.796875l-1.671875 0zm1.515625 -8.65625q0 1.90625 0.765625 2.8125q0.78125 0.90625 1.875 0.90625q1.109375 0 1.890625 -0.9375q0.796875 -0.9375 0.796875 -2.921875q0 -1.875 -0.78125 -2.8125q-0.765625 -0.9375 -1.84375 -0.9375q-1.0625 0 -1.890625 1.0q-0.8125 1.0 -0.8125 2.890625zm8.235092 -0.046875q0 -2.734375 1.53125 -4.0625q1.265625 -1.09375 3.09375 -1.09375q2.03125 0 3.3125 1.34375q1.296875 1.328125 1.296875 3.671875q0 1.90625 -0.578125 3.0q-0.5625 1.078125 -1.65625 1.6875q-1.078125 0.59375 -2.375 0.59375q-2.0625 0 -3.34375 -1.328125q-1.28125 -1.328125 -1.28125 -3.8125zm1.71875 0q0 1.890625 0.828125 2.828125q0.828125 0.9375 2.078125 0.9375q1.25 0 2.0625 -0.9375q0.828125 -0.953125 0.828125 -2.890625q0 -1.828125 -0.828125 -2.765625q-0.828125 -0.9375 -2.0625 -0.9375q-1.25 0 -2.078125 0.9375q-0.828125 0.9375 -0.828125 2.828125zm9.313217 -4.9375l1.671875 0l0 8.484375l4.625 0l0 -8.484375l1.65625 0l0 8.484375l1.078125 0l0 4.171875l-1.375 0l0 -2.796875l-7.65625 0l0 -9.859375zm17.40419 6.6875l1.71875 0.21875q-0.40625 1.5 -1.515625 2.34375q-1.09375 0.828125 -2.8125 0.828125q-2.15625 0 -3.421875 -1.328125q-1.265625 -1.328125 -1.265625 -3.734375q0 -2.484375 1.265625 -3.859375q1.28125 -1.375 3.328125 -1.375q1.984375 0 3.234375 1.34375q1.25 1.34375 1.25 3.796875q0 0.140625 -0.015625 0.4375l-7.34375 0q0.09375 1.625 0.921875 2.484375q0.828125 0.859375 2.0625 0.859375q0.90625 0 1.546875 -0.46875q0.65625 -0.484375 1.046875 -1.546875zm-5.484375 -2.703125l5.5 0q-0.109375 -1.234375 -0.625 -1.859375q-0.796875 -0.96875 -2.078125 -0.96875q-1.140625 0 -1.9375 0.78125q-0.78125 0.765625 -0.859375 2.046875zm15.547592 2.265625l1.640625 0.21875q-0.265625 1.6875 -1.375 2.65625q-1.109375 0.953125 -2.734375 0.953125q-2.015625 0 -3.25 -1.3125q-1.21875 -1.328125 -1.21875 -3.796875q0 -1.59375 0.515625 -2.78125q0.53125 -1.203125 1.609375 -1.796875q1.09375 -0.609375 2.359375 -0.609375q1.609375 0 2.625 0.8125q1.015625 0.8125 1.3125 2.3125l-1.625 0.25q-0.234375 -1.0 -0.828125 -1.5q-0.59375 -0.5 -1.421875 -0.5q-1.265625 0 -2.0625 0.90625q-0.78125 0.90625 -0.78125 2.859375q0 1.984375 0.765625 2.890625q0.765625 0.890625 1.984375 0.890625q0.984375 0 1.640625 -0.59375q0.65625 -0.609375 0.84375 -1.859375zm9.328125 0l1.640625 0.21875q-0.265625 1.6875 -1.375 2.65625q-1.109375 0.953125 -2.734375 0.953125q-2.015625 0 -3.25 -1.3125q-1.21875 -1.328125 -1.21875 -3.796875q0 -1.59375 0.515625 -2.78125q0.53125 -1.203125 1.609375 -1.796875q1.09375 -0.609375 2.359375 -0.609375q1.609375 0 2.625 0.8125q1.015625 0.8125 1.3125 2.3125l-1.625 0.25q-0.234375 -1.0 -0.828125 -1.5q-0.59375 -0.5 -1.421875 -0.5q-1.265625 0 -2.0625 0.90625q-0.78125 0.90625 -0.78125 2.859375q0 1.984375 0.765625 2.890625q0.765625 0.890625 1.984375 0.890625q0.984375 0 1.640625 -0.59375q0.65625 -0.609375 0.84375 -1.859375zm6.792679 3.609375l5.234375 -13.59375l1.9375 0l5.5625 13.59375l-2.046875 0l-1.59375 -4.125l-5.6875 0l-1.484375 4.125l-1.921875 0zm3.921875 -5.578125l4.609375 0l-1.40625 -3.78125q-0.65625 -1.703125 -0.96875 -2.8125q-0.265625 1.3125 -0.734375 2.59375l-1.5 4.0z" fill-rule="nonzero"></path><path fill="#cfe2f3" d="m271.8399 313.19684l151.40155 0l0 97.85828l-151.40155 0z" fill-rule="nonzero"></path><path stroke="#000000" stroke-width="2.0" stroke-linejoin="round" stroke-linecap="butt" d="m271.8399 313.19684l151.40155 0l0 97.85828l-151.40155 0z" fill-rule="nonzero"></path><path fill="#000000" d="m298.18497 355.45224l10.703125 0l0 13.59375l-1.8125 0l0 -12.0l-7.09375 0l0 12.0l-1.796875 0l0 -13.59375zm13.174805 17.375l0 -13.640625l1.53125 0l0 1.28125q0.53125 -0.75 1.203125 -1.125q0.6875 -0.375 1.640625 -0.375q1.265625 0 2.234375 0.65625q0.96875 0.640625 1.453125 1.828125q0.5 1.1875 0.5 2.59375q0 1.515625 -0.546875 2.734375q-0.546875 1.203125 -1.578125 1.84375q-1.03125 0.640625 -2.171875 0.640625q-0.84375 0 -1.515625 -0.34375q-0.65625 -0.359375 -1.078125 -0.890625l0 4.796875l-1.671875 0zm1.515625 -8.65625q0 1.90625 0.765625 2.8125q0.78125 0.90625 1.875 0.90625q1.109375 0 1.890625 -0.9375q0.796875 -0.9375 0.796875 -2.921875q0 -1.875 -0.78125 -2.8125q-0.765625 -0.9375 -1.84375 -0.9375q-1.0625 0 -1.890625 1.0q-0.8125 1.0 -0.8125 2.890625zm8.235077 -0.046875q0 -2.734375 1.53125 -4.0625q1.265625 -1.09375 3.09375 -1.09375q2.03125 0 3.3125 1.34375q1.296875 1.328125 1.296875 3.671875q0 1.90625 -0.578125 3.0q-0.5625 1.078125 -1.65625 1.6875q-1.078125 0.59375 -2.375 0.59375q-2.0625 0 -3.34375 -1.328125q-1.28125 -1.328125 -1.28125 -3.8125zm1.71875 0q0 1.890625 0.828125 2.828125q0.828125 0.9375 2.078125 0.9375q1.25 0 2.0625 -0.9375q0.828125 -0.953125 0.828125 -2.890625q0 -1.828125 -0.828125 -2.765625q-0.828125 -0.9375 -2.0625 -0.9375q-1.25 0 -2.078125 0.9375q-0.828125 0.9375 -0.828125 2.828125zm9.313232 -4.9375l1.671875 0l0 8.484375l4.625 0l0 -8.484375l1.65625 0l0 8.484375l1.078125 0l0 4.171875l-1.375 0l0 -2.796875l-7.65625 0l0 -9.859375zm17.404175 6.6875l1.71875 0.21875q-0.40625 1.5 -1.515625 2.34375q-1.09375 0.828125 -2.8125 0.828125q-2.15625 0 -3.421875 -1.328125q-1.265625 -1.328125 -1.265625 -3.734375q0 -2.484375 1.265625 -3.859375q1.28125 -1.375 3.328125 -1.375q1.984375 0 3.234375 1.34375q1.25 1.34375 1.25 3.796875q0 0.140625 -0.015625 0.4375l-7.34375 0q0.09375 1.625 0.921875 2.484375q0.828125 0.859375 2.0625 0.859375q0.90625 0 1.546875 -0.46875q0.65625 -0.484375 1.046875 -1.546875zm-5.484375 -2.703125l5.5 0q-0.109375 -1.234375 -0.625 -1.859375q-0.796875 -0.96875 -2.078125 -0.96875q-1.140625 0 -1.9375 0.78125q-0.78125 0.765625 -0.859375 2.046875zm15.547607 2.265625l1.640625 0.21875q-0.265625 1.6875 -1.375 2.65625q-1.109375 0.953125 -2.734375 0.953125q-2.015625 0 -3.25 -1.3125q-1.21875 -1.328125 -1.21875 -3.796875q0 -1.59375 0.515625 -2.78125q0.53125 -1.203125 1.609375 -1.796875q1.09375 -0.609375 2.359375 -0.609375q1.609375 0 2.625 0.8125q1.015625 0.8125 1.3125 2.3125l-1.625 0.25q-0.234375 -1.0 -0.828125 -1.5q-0.59375 -0.5 -1.421875 -0.5q-1.265625 0 -2.0625 0.90625q-0.78125 0.90625 -0.78125 2.859375q0 1.984375 0.765625 2.890625q0.765625 0.890625 1.984375 0.890625q0.984375 0 1.640625 -0.59375q0.65625 -0.609375 0.84375 -1.859375zm9.328125 0l1.640625 0.21875q-0.265625 1.6875 -1.375 2.65625q-1.109375 0.953125 -2.734375 0.953125q-2.015625 0 -3.25 -1.3125q-1.21875 -1.328125 -1.21875 -3.796875q0 -1.59375 0.515625 -2.78125q0.53125 -1.203125 1.609375 -1.796875q1.09375 -0.609375 2.359375 -0.609375q1.609375 0 2.625 0.8125q1.015625 0.8125 1.3125 2.3125l-1.625 0.25q-0.234375 -1.0 -0.828125 -1.5q-0.59375 -0.5 -1.421875 -0.5q-1.265625 0 -2.0625 0.90625q-0.78125 0.90625 -0.78125 2.859375q0 1.984375 0.765625 2.890625q0.765625 0.890625 1.984375 0.890625q0.984375 0 1.640625 -0.59375q0.65625 -0.609375 0.84375 -1.859375zm8.370789 -9.984375l8.828125 0l0 1.59375l-7.03125 0l0 4.203125l3.25 0q1.796875 0 2.859375 0.34375q1.0625 0.34375 1.703125 1.296875q0.640625 0.9375 0.640625 2.203125q0 1.03125 -0.46875 1.9375q-0.453125 0.890625 -1.359375 1.453125q-0.90625 0.5625 -3.09375 0.5625l-5.328125 0l0 -13.59375zm1.796875 12.0625l3.609375 0q1.453125 0 2.171875 -0.59375q0.734375 -0.59375 0.734375 -1.78125q0 -0.84375 -0.421875 -1.40625q-0.40625 -0.5625 -1.15625 -0.75q-0.734375 -0.1875 -2.53125 -0.1875l-2.40625 0l0 4.71875zm15.977539 1.53125l-1.671875 0l0 -10.640625q-0.59375 0.578125 -1.578125 1.15625q-0.984375 0.5625 -1.765625 0.859375l0 -1.625q1.40625 -0.65625 2.453125 -1.59375q1.046875 -0.9375 1.484375 -1.8125l1.078125 0l0 13.65625z" fill-rule="nonzero"></path><path fill="#fff2cc" d="m164.42792 290.18524l89.025055 35.11447l4.535431 -11.503937l13.935577 32.082367l-32.077316 13.93338l4.535446 -11.503937l-89.02507 -35.11447z" fill-rule="nonzero"></path><path stroke="#000000" stroke-width="2.0" stroke-linejoin="round" stroke-linecap="butt" d="m164.42792 290.18524l89.025055 35.11447l4.535431 -11.503937l13.935577 32.082367l-32.077316 13.93338l4.535446 -11.503937l-89.02507 -35.11447z" fill-rule="nonzero"></path><path fill="#000000" fill-opacity="0.0" d="m152.44357 258.84647l73.63779 -0.47244263" fill-rule="nonzero"></path><path stroke="#000000" stroke-width="2.0" stroke-linejoin="round" stroke-linecap="butt" d="m152.44357 258.84647l66.05794 -0.4237976" fill-rule="evenodd"></path><path fill="#000000" stroke="#000000" stroke-width="2.0" stroke-linecap="butt" d="m225.08139 258.38043c0.011657715 1.8169861 -1.4518433 3.2993774 -3.2688293 3.3110352c-1.8169861 0.011657715 -3.2993774 -1.4518433 -3.3110352 -3.2688293c-0.011657715 -1.8169861 1.4518433 -3.2993774 3.268814 -3.3110352c1.8169861 -0.011657715 3.2993927 1.4518433 3.3110504 3.2688293z" fill-rule="nonzero"></path><path fill="#d9ead3" d="m170.24161 296.1326l38.604095 16.480042l-6.4676666 15.149933l-38.604095 -16.480042z" fill-rule="nonzero"></path><path fill="#000000" fill-opacity="0.0" d="m175.06712 298.19263l-6.4676666 15.149902m35.42073 -2.7898865l-6.4676666 15.149933" fill-rule="nonzero"></path><path fill="#000000" fill-opacity="0.0" d="m170.24161 296.1326l38.604095 16.480042l-6.4676666 15.149933l-38.604095 -16.480042z" fill-rule="nonzero"></path><path stroke="#000000" stroke-width="2.0" stroke-linejoin="round" stroke-linecap="butt" d="m175.06712 298.19263l-6.4676666 15.149902m35.42073 -2.7898865l-6.4676666 15.149933" fill-rule="nonzero"></path><path stroke="#000000" stroke-width="2.0" stroke-linejoin="round" stroke-linecap="butt" d="m170.24161 296.1326l38.604095 16.480042l-6.4676666 15.149933l-38.604095 -16.480042z" fill-rule="nonzero"></path><path fill="#fff2cc" d="m259.13394 396.76135l-89.025055 -35.11447l-4.535431 11.503937l-13.935577 -32.082367l32.077316 -13.93338l-4.535446 11.503937l89.025055 35.11447z" fill-rule="nonzero"></path><path stroke="#000000" stroke-width="2.0" stroke-linejoin="round" stroke-linecap="butt" d="m259.13394 396.76135l-89.025055 -35.11447l-4.535431 11.503937l-13.935577 -32.082367l32.077316 -13.93338l-4.535446 11.503937l89.025055 35.11447z" fill-rule="nonzero"></path><path fill="#d9ead3" d="m253.32016 390.81494l-37.165466 -15.867249l6.466812 -15.150757l37.16548 15.867249z" fill-rule="nonzero"></path><path fill="#000000" fill-opacity="0.0" d="m248.67448 388.83154l6.466797 -15.150757m-34.340897 3.2503052l6.466797 -15.150757" fill-rule="nonzero"></path><path fill="#000000" fill-opacity="0.0" d="m253.32016 390.81494l-37.165466 -15.867249l6.466812 -15.150757l37.16548 15.867249z" fill-rule="nonzero"></path><path stroke="#000000" stroke-width="2.0" stroke-linejoin="round" stroke-linecap="butt" d="m248.67448 388.83154l6.466797 -15.150757m-34.340897 3.2503052l6.466797 -15.150757" fill-rule="nonzero"></path><path stroke="#000000" stroke-width="2.0" stroke-linejoin="round" stroke-linecap="butt" d="m253.32016 390.81494l-37.165466 -15.867249l6.466812 -15.150757l37.16548 15.867249z" fill-rule="nonzero"></path><path fill="#000000" fill-opacity="0.0" d="m224.19423 233.70998l178.20473 0l0 31.023605l-178.20473 0z" fill-rule="nonzero"></path><path fill="#000000" d="m240.39735 250.7706l0 4.265625q0.796875 0 1.125 -0.296875q0.328125 -0.3125 0.953125 -1.796875q0.578125 -1.390625 1.046875 -1.78125q0.453125 -0.390625 1.4375 -0.390625l0.625 0l0 1.390625l-0.453125 -0.015625q-0.671875 0 -0.859375 0.203125q-0.203125 0.203125 -0.59375 1.21875q-0.375 0.953125 -0.6875 1.328125q-0.3125 0.375 -0.984375 0.671875q1.09375 0.296875 2.109375 2.015625l1.84375 3.046875l-1.84375 0l-1.78125 -3.046875q-0.546875 -0.9375 -0.953125 -1.21875q-0.40625 -0.296875 -0.984375 -0.296875l0 4.5625l-1.703125 0l0 -4.5625q-0.5625 0 -0.96875 0.296875q-0.40625 0.28125 -0.953125 1.21875l-1.78125 3.046875l-1.84375 0l1.828125 -3.046875q1.046875 -1.71875 2.125 -2.015625q-0.75 -0.34375 -1.046875 -0.734375q-0.296875 -0.40625 -0.890625 -1.9375q-0.203125 -0.5 -0.421875 -0.625q-0.25 -0.125 -0.71875 -0.125q-0.125 0 -0.5 0.015625l0 -1.390625l0.234375 0q0.96875 0 1.359375 0.125q0.390625 0.109375 0.703125 0.484375q0.3125 0.375 0.8125 1.5625q0.609375 1.46875 0.921875 1.78125q0.328125 0.3125 1.140625 0.3125l0 -4.265625l1.703125 0zm7.839386 0l6.875 0l0 8.484375l1.0624847 0l0 4.171875l-1.3749847 0l0 -2.796875l-7.75 0l0 2.796875l-1.375 0l0 -4.171875l0.875 0q1.765625 -2.390625 1.6875 -8.484375zm1.40625 1.390625q-0.1875 4.796875 -1.484375 7.09375l5.296875 0l0 -7.09375l-3.8125 0zm14.917099 5.296875l1.71875 0.21875q-0.40625 1.5 -1.515625 2.34375q-1.09375 0.828125 -2.8125 0.828125q-2.15625 0 -3.421875 -1.328125q-1.265625 -1.328125 -1.265625 -3.734375q0 -2.484375 1.265625 -3.859375q1.28125 -1.375 3.328125 -1.375q1.984375 0 3.234375 1.34375q1.25 1.34375 1.25 3.796875q0 0.140625 -0.015625 0.4375l-7.34375 0q0.09375 1.625 0.921875 2.484375q0.828125 0.859375 2.0625 0.859375q0.90625 0 1.546875 -0.46875q0.65625 -0.484375 1.046875 -1.546875zm-5.484375 -2.703125l5.5 0q-0.109375 -1.234375 -0.625 -1.859375q-0.796875 -0.96875 -2.078125 -0.96875q-1.140625 0 -1.9375 0.78125q-0.78125 0.765625 -0.859375 2.046875zm0.046875 -5.90625l0 -1.90625l1.75 0l0 1.90625l-1.75 0zm3.46875 0l0 -1.90625l1.734375 0l0 1.90625l-1.734375 0zm4.703827 1.921875l8.0 0l0 1.390625l-3.171875 0l0 8.46875l-1.65625 0l0 -8.46875l-3.171875 0l0 -1.390625zm21.056152 6.25l1.640625 0.21875q-0.265625 1.6875 -1.375 2.65625q-1.109375 0.953125 -2.734375 0.953125q-2.015625 0 -3.25 -1.3125q-1.21875 -1.328125 -1.21875 -3.796875q0 -1.59375 0.515625 -2.78125q0.53125 -1.203125 1.609375 -1.796875q1.09375 -0.609375 2.359375 -0.609375q1.609375 0 2.625 0.8125q1.015625 0.8125 1.3125 2.3125l-1.625 0.25q-0.234375 -1.0 -0.828125 -1.5q-0.59375 -0.5 -1.421875 -0.5q-1.265625 0 -2.0625 0.90625q-0.78125 0.90625 -0.78125 2.859375q0 1.984375 0.765625 2.890625q0.765625 0.890625 1.984375 0.890625q0.984375 0 1.640625 -0.59375q0.65625 -0.609375 0.84375 -1.859375zm2.265625 -1.3125q0 -2.734375 1.53125 -4.0625q1.265625 -1.09375 3.09375 -1.09375q2.03125 0 3.3125 1.34375q1.296875 1.328125 1.296875 3.671875q0 1.90625 -0.578125 3.0q-0.5625 1.078125 -1.65625 1.6875q-1.078125 0.59375 -2.375 0.59375q-2.0625 0 -3.34375 -1.328125q-1.28125 -1.328125 -1.28125 -3.8125zm1.71875 0q0 1.890625 0.828125 2.828125q0.828125 0.9375 2.078125 0.9375q1.25 0 2.0625 -0.9375q0.828125 -0.953125 0.828125 -2.890625q0 -1.828125 -0.828125 -2.765625q-0.828125 -0.9375 -2.0625 -0.9375q-1.25 0 -2.078125 0.9375q-0.828125 0.9375 -0.828125 2.828125zm16.031952 1.75l1.71875 0.21875q-0.40625 1.5 -1.515625 2.34375q-1.09375 0.828125 -2.8125 0.828125q-2.15625 0 -3.421875 -1.328125q-1.265625 -1.328125 -1.265625 -3.734375q0 -2.484375 1.265625 -3.859375q1.28125 -1.375 3.328125 -1.375q1.984375 0 3.234375 1.34375q1.25 1.34375 1.25 3.796875q0 0.140625 -0.015625 0.4375l-7.34375 0q0.09375 1.625 0.921875 2.484375q0.828125 0.859375 2.0625 0.859375q0.90625 0 1.546875 -0.46875q0.65625 -0.484375 1.046875 -1.546875zm-5.484375 -2.703125l5.5 0q-0.109375 -1.234375 -0.625 -1.859375q-0.796875 -0.96875 -2.078125 -0.96875q-1.140625 0 -1.9375 0.78125q-0.78125 0.765625 -0.859375 2.046875zm10.422607 -3.984375l6.875 0l0 8.484375l1.0625 0l0 4.171875l-1.375 0l0 -2.796875l-7.75 0l0 2.796875l-1.375 0l0 -4.171875l0.875 0q1.765625 -2.390625 1.6875 -8.484375zm1.40625 1.390625q-0.1875 4.796875 -1.484375 7.09375l5.296875 0l0 -7.09375l-3.8125 0zm8.167084 -1.390625l1.671875 0l0 7.515625l4.625 -7.515625l1.8125 0l0 9.859375l-1.671875 0l0 -7.46875l-4.640625 7.46875l-1.796875 0l0 -9.859375zm10.43689 0l1.671875 0l0 4.109375l4.625 0l0 -4.109375l1.671875 0l0 9.859375l-1.671875 0l0 -4.375l-4.625 0l0 4.375l-1.671875 0l0 -9.859375zm17.037231 6.6875l1.71875 0.21875q-0.40625 1.5 -1.515625 2.34375q-1.09375 0.828125 -2.8125 0.828125q-2.15625 0 -3.421875 -1.328125q-1.265625 -1.328125 -1.265625 -3.734375q0 -2.484375 1.265625 -3.859375q1.28125 -1.375 3.328125 -1.375q1.984375 0 3.234375 1.34375q1.25 1.34375 1.25 3.796875q0 0.140625 -0.015625 0.4375l-7.34375 0q0.09375 1.625 0.921875 2.484375q0.828125 0.859375 2.0625 0.859375q0.90625 0 1.546875 -0.46875q0.65625 -0.484375 1.046875 -1.546875zm-5.484375 -2.703125l5.5 0q-0.109375 -1.234375 -0.625 -1.859375q-0.796875 -0.96875 -2.078125 -0.96875q-1.140625 0 -1.9375 0.78125q-0.78125 0.765625 -0.859375 2.046875zm9.125702 -3.984375l1.671875 0l0 4.109375l4.625 0l0 -4.109375l1.671875 0l0 9.859375l-1.671875 0l0 -4.375l-4.625 0l0 4.375l-1.671875 0l0 -9.859375zm10.287231 0l1.671875 0l0 7.515625l4.625 -7.515625l1.8125 0l0 9.859375l-1.671875 0l0 -7.46875l-4.640625 7.46875l-1.796875 0l0 -9.859375zm18.18689 0l0 9.859375l-1.671875 0l0 -3.84375l-0.953125 0q-0.890625 0 -1.328125 0.234375q-0.421875 0.21875 -1.25 1.453125l-1.453125 2.15625l-2.078125 0l1.8125 -2.65625q0.8125 -1.21875 1.640625 -1.375q-1.4375 -0.1875 -2.125 -1.015625q-0.6875 -0.84375 -0.6875 -1.9375q0 -1.265625 0.90625 -2.0625q0.90625 -0.8125 2.609375 -0.8125l4.578125 0zm-1.671875 1.390625l-2.375 0q-1.484375 0 -1.921875 0.46875q-0.4375 0.453125 -0.4375 1.078125q0 0.875 0.640625 1.296875q0.640625 0.40625 2.25 0.40625l1.84375 0l0 -3.25z" fill-rule="nonzero"></path><path fill="#000000" fill-opacity="0.0" d="m118.238846 188.14174l219.81102 0l0 31.62204l-219.81102 0z" fill-rule="nonzero"></path><path fill="#000000" d="m129.11385 202.99423l13.515625 0l0 17.1875l-2.28125 0l0 -15.15625l-8.953125 0l0 15.15625l-2.28125 0l0 -17.1875zm16.171875 10.96875q0 -3.46875 1.921875 -5.125q1.609375 -1.390625 3.921875 -1.390625q2.5625 0 4.1875 1.6875q1.625 1.6875 1.625 4.640625q0 2.40625 -0.71875 3.78125q-0.71875 1.375 -2.09375 2.140625q-1.375 0.765625 -3.0 0.765625q-2.625 0 -4.234375 -1.671875q-1.609375 -1.6875 -1.609375 -4.828125zm2.171875 0q0 2.390625 1.03125 3.578125q1.046875 1.1875 2.640625 1.1875q1.5625 0 2.609375 -1.1875q1.046875 -1.203125 1.046875 -3.65625q0 -2.3125 -1.0625 -3.5q-1.046875 -1.1875 -2.59375 -1.1875q-1.59375 0 -2.640625 1.1875q-1.03125 1.1875 -1.03125 3.578125zm10.832031 -6.234375l10.109375 0l0 1.75l-4.015625 0l0 10.703125l-2.09375 0l0 -10.703125l-4.0 0l0 -1.75zm11.3359375 6.234375q0 -3.46875 1.921875 -5.125q1.609375 -1.390625 3.921875 -1.390625q2.5625 0 4.1875 1.6875q1.625 1.6875 1.625 4.640625q0 2.40625 -0.71875 3.78125q-0.71875 1.375 -2.09375 2.140625q-1.375 0.765625 -3.0 0.765625q-2.625 0 -4.234375 -1.671875q-1.609375 -1.6875 -1.609375 -4.828125zm2.171875 0q0 2.390625 1.03125 3.578125q1.046875 1.1875 2.640625 1.1875q1.5625 0 2.609375 -1.1875q1.046875 -1.203125 1.046875 -3.65625q0 -2.3125 -1.0625 -3.5q-1.046875 -1.1875 -2.59375 -1.1875q-1.59375 0 -2.640625 1.1875q-1.03125 1.1875 -1.03125 3.578125zm11.957031 -6.234375l2.109375 0l0 5.390625q1.0 0 1.40625 -0.390625q0.40625 -0.390625 1.1875 -2.25q0.625 -1.484375 1.0 -1.953125q0.390625 -0.46875 0.890625 -0.625q0.515625 -0.171875 1.625 -0.171875l0.421875 0l0 1.75l-0.578125 -0.015625q-0.84375 0 -1.078125 0.25q-0.234375 0.265625 -0.75 1.53125q-0.46875 1.21875 -0.875 1.6875q-0.390625 0.46875 -1.234375 0.859375q1.359375 0.359375 2.671875 2.53125l2.3125 3.859375l-2.3125 0l-2.25 -3.859375q-0.703125 -1.15625 -1.21875 -1.515625q-0.515625 -0.375 -1.21875 -0.375l0 5.75l-2.109375 0l0 -12.453125zm9.71875 6.234375q0 -3.46875 1.921875 -5.125q1.609375 -1.390625 3.921875 -1.390625q2.5625 0 4.1875 1.6875q1.625 1.6875 1.625 4.640625q0 2.40625 -0.71875 3.78125q-0.71875 1.375 -2.09375 2.140625q-1.375 0.765625 -3.0 0.765625q-2.625 0 -4.234375 -1.671875q-1.609375 -1.6875 -1.609375 -4.828125zm2.171875 0q0 2.390625 1.03125 3.578125q1.046875 1.1875 2.640625 1.1875q1.5625 0 2.609375 -1.1875q1.046875 -1.203125 1.046875 -3.65625q0 -2.3125 -1.0625 -3.5q-1.046875 -1.1875 -2.59375 -1.1875q-1.59375 0 -2.640625 1.1875q-1.03125 1.1875 -1.03125 3.578125zm11.972656 -6.234375l4.859375 0q1.796875 0 2.671875 0.3125q0.875 0.296875 1.5 1.09375q0.625 0.796875 0.625 1.90625q0 0.890625 -0.375 1.5625q-0.359375 0.65625 -1.09375 1.09375q0.875 0.296875 1.453125 1.109375q0.578125 0.796875 0.578125 1.890625q-0.109375 1.765625 -1.265625 2.625q-1.140625 0.859375 -3.34375 0.859375l-5.609375 0l0 -12.453125zm2.109375 5.25l2.25 0q1.34375 0 1.84375 -0.140625q0.515625 -0.140625 0.90625 -0.5625q0.40625 -0.4375 0.40625 -1.03125q0 -0.984375 -0.703125 -1.375q-0.6875 -0.390625 -2.375 -0.390625l-2.328125 0l0 3.5zm0 5.46875l2.78125 0q1.796875 0 2.453125 -0.40625q0.671875 -0.421875 0.703125 -1.453125q0 -0.59375 -0.390625 -1.09375q-0.375 -0.515625 -1.0 -0.640625q-0.625 -0.140625 -1.984375 -0.140625l-2.5625 0l0 3.734375zm22.484375 -10.71875l2.109375 0l0 12.453125l-2.109375 0l0 -12.453125zm-11.8125 0l2.109375 0l0 4.875l2.671875 0q2.625 0 4.03125 1.015625q1.40625 1.0 1.40625 2.78125q0 1.5625 -1.171875 2.671875q-1.171875 1.109375 -3.765625 1.109375l-5.28125 0l0 -12.453125zm2.109375 10.71875l2.21875 0q2.0 0 2.859375 -0.484375q0.859375 -0.5 0.859375 -1.546875q0 -0.8125 -0.640625 -1.4375q-0.625 -0.640625 -2.796875 -0.640625l-2.5 0l0 4.109375zm15.09375 -10.71875l2.109375 0l0 9.5l5.859375 -9.5l2.265625 0l0 12.453125l-2.109375 0l0 -9.4375l-5.84375 9.4375l-2.28125 0l0 -12.453125zm7.453125 -4.703125l1.4375 0q-0.171875 1.46875 -1.078125 2.25q-0.890625 0.78125 -2.375 0.78125q-1.5 0 -2.40625 -0.78125q-0.890625 -0.78125 -1.0625 -2.25l1.4375 0q0.15625 0.796875 0.640625 1.1875q0.5 0.390625 1.3125 0.390625q0.953125 0 1.4375 -0.375q0.484375 -0.390625 0.65625 -1.203125zm20.746078 12.59375l2.078125 0.265625q-0.34375 2.15625 -1.75 3.375q-1.390625 1.203125 -3.4375 1.203125q-2.546875 0 -4.109375 -1.671875q-1.546875 -1.671875 -1.546875 -4.78125q0 -2.015625 0.671875 -3.53125q0.671875 -1.515625 2.03125 -2.265625q1.359375 -0.765625 2.96875 -0.765625q2.03125 0 3.3125 1.03125q1.296875 1.03125 1.65625 2.90625l-2.046875 0.328125q-0.296875 -1.265625 -1.046875 -1.890625q-0.734375 -0.640625 -1.796875 -0.640625q-1.59375 0 -2.59375 1.15625q-0.984375 1.140625 -0.984375 3.609375q0 2.5 0.953125 3.640625q0.96875 1.140625 2.515625 1.140625q1.234375 0 2.0625 -0.765625q0.84375 -0.765625 1.0625 -2.34375zm3.09375 -1.65625q0 -3.46875 1.921875 -5.125q1.609375 -1.390625 3.921875 -1.390625q2.5625 0 4.1875 1.6875q1.625 1.6875 1.625 4.640625q0 2.40625 -0.71875 3.78125q-0.71875 1.375 -2.09375 2.140625q-1.375 0.765625 -3.0 0.765625q-2.625 0 -4.234375 -1.671875q-1.609375 -1.6875 -1.609375 -4.828125zm2.171875 0q0 2.390625 1.03125 3.578125q1.046875 1.1875 2.640625 1.1875q1.5625 0 2.609375 -1.1875q1.046875 -1.203125 1.046875 -3.65625q0 -2.3125 -1.0625 -3.5q-1.046875 -1.1875 -2.59375 -1.1875q-1.59375 0 -2.640625 1.1875q-1.03125 1.1875 -1.03125 3.578125zm11.957031 -6.234375l2.109375 0l0 5.390625q1.0 0 1.40625 -0.390625q0.40625 -0.390625 1.1875 -2.25q0.625 -1.484375 1.0 -1.953125q0.390625 -0.46875 0.890625 -0.625q0.515625 -0.171875 1.625 -0.171875l0.421875 0l0 1.75l-0.578125 -0.015625q-0.84375 0 -1.078125 0.25q-0.234375 0.265625 -0.75 1.53125q-0.46875 1.21875 -0.875 1.6875q-0.390625 0.46875 -1.234375 0.859375q1.359375 0.359375 2.671875 2.53125l2.3125 3.859375l-2.3125 0l-2.25 -3.859375q-0.703125 -1.15625 -1.21875 -1.515625q-0.515625 -0.375 -1.21875 -0.375l0 5.75l-2.109375 0l0 -12.453125zm19.03125 8.4375l2.171875 0.28125q-0.515625 1.90625 -1.90625 2.96875q-1.390625 1.046875 -3.5625 1.046875q-2.734375 0 -4.34375 -1.671875q-1.59375 -1.6875 -1.59375 -4.734375q0 -3.140625 1.609375 -4.875q1.625 -1.734375 4.203125 -1.734375q2.5 0 4.078125 1.703125q1.59375 1.703125 1.59375 4.78125q0 0.1875 -0.015625 0.5625l-9.28125 0q0.109375 2.046875 1.15625 3.140625q1.046875 1.09375 2.609375 1.09375q1.15625 0 1.96875 -0.609375q0.828125 -0.609375 1.3125 -1.953125zm-6.9375 -3.40625l6.953125 0q-0.140625 -1.5625 -0.796875 -2.359375q-1.0 -1.21875 -2.609375 -1.21875q-1.453125 0 -2.453125 0.984375q-0.984375 0.96875 -1.09375 2.59375zm10.628906 -5.03125l10.109375 0l0 1.75l-4.015625 0l0 10.703125l-2.09375 0l0 -10.703125l-4.0 0l0 -1.75zm12.7109375 2.40625l0 -2.40625l2.40625 0l0 2.40625l-2.40625 0zm0 10.046875l0 -2.40625l2.40625 0l0 2.40625l-2.40625 0z" fill-rule="nonzero"></path><path fill="#000000" fill-opacity="0.0" d="m99.32546 0l277.29132 0l0 31.622047l-277.29132 0z" fill-rule="nonzero"></path><path fill="#000000" d="m111.73171 14.852501l10.453125 0l0 15.15625l1.546875 0l0 6.046875l-2.015625 0l0 -4.015625l-11.359375 0l0 4.015625l-2.03125 0l0 -6.046875l1.34375 0q2.0625 -3.125 2.0625 -12.640625l0 -2.515625zm8.1875 2.03125l-5.984375 0l0 0.875q0 2.203125 -0.40625 6.0q-0.390625 3.796875 -1.53125 6.25l7.921875 0l0 -13.125zm14.363274 13.625q-1.171875 0.984375 -2.265625 1.40625q-1.078125 0.40625 -2.3125 0.40625q-2.0468674 0 -3.1562424 -1.0q-1.09375 -1.0 -1.09375 -2.5625q0 -0.921875 0.40625 -1.671875q0.421875 -0.75 1.09375 -1.203125q0.671875 -0.46875 1.5156174 -0.703125q0.625 -0.15625 1.875 -0.3125q2.5625 -0.3125 3.765625 -0.734375q0.015625 -0.421875 0.015625 -0.546875q0 -1.28125 -0.609375 -1.8125q-0.796875 -0.71875 -2.390625 -0.71875q-1.5 0 -2.203125 0.53125q-0.703125 0.515625 -1.0468674 1.84375l-2.0625 -0.28125q0.28125 -1.328125 0.921875 -2.140625q0.640625 -0.8125 1.8593674 -1.25q1.21875 -0.453125 2.828125 -0.453125q1.59375 0 2.59375 0.375q1.0 0.375 1.46875 0.953125q0.46875 0.5625 0.65625 1.4375q0.09375 0.53125 0.09375 1.9375l0 2.8125q0 2.9375 0.140625 3.71875q0.140625 0.78125 0.53125 1.5l-2.203125 0q-0.328125 -0.65625 -0.421875 -1.53125zm-0.171875 -4.71875q-1.15625 0.46875 -3.453125 0.796875q-1.296875 0.1875 -1.84375 0.421875q-0.53125 0.234375 -0.8281174 0.6875q-0.28125 0.453125 -0.28125 1.0q0 0.84375 0.6249924 1.40625q0.640625 0.5625 1.875 0.5625q1.21875 0 2.171875 -0.53125q0.953125 -0.53125 1.390625 -1.453125q0.34375 -0.71875 0.34375 -2.109375l0 -0.78125zm4.2695312 -6.203125l10.109375 0l0 1.75l-4.015625 0l0 10.703125l-2.09375 0l0 -10.703125l-4.0 0l0 -1.75zm20.242188 10.921875q-1.171875 0.984375 -2.265625 1.40625q-1.078125 0.40625 -2.3125 0.40625q-2.046875 0 -3.15625 -1.0q-1.09375 -1.0 -1.09375 -2.5625q0 -0.921875 0.40625 -1.671875q0.421875 -0.75 1.09375 -1.203125q0.671875 -0.46875 1.515625 -0.703125q0.625 -0.15625 1.875 -0.3125q2.5625 -0.3125 3.765625 -0.734375q0.015625 -0.421875 0.015625 -0.546875q0 -1.28125 -0.609375 -1.8125q-0.796875 -0.71875 -2.390625 -0.71875q-1.5 0 -2.203125 0.53125q-0.703125 0.515625 -1.046875 1.84375l-2.0625 -0.28125q0.28125 -1.328125 0.921875 -2.140625q0.640625 -0.8125 1.859375 -1.25q1.21875 -0.453125 2.828125 -0.453125q1.59375 0 2.59375 0.375q1.0 0.375 1.46875 0.953125q0.46875 0.5625 0.65625 1.4375q0.09375 0.53125 0.09375 1.9375l0 2.8125q0 2.9375 0.140625 3.71875q0.140625 0.78125 0.53125 1.5l-2.203125 0q-0.328125 -0.65625 -0.421875 -1.53125zm-0.171875 -4.71875q-1.15625 0.46875 -3.453125 0.796875q-1.296875 0.1875 -1.84375 0.421875q-0.53125 0.234375 -0.828125 0.6875q-0.28125 0.453125 -0.28125 1.0q0 0.84375 0.625 1.40625q0.640625 0.5625 1.875 0.5625q1.21875 0 2.171875 -0.53125q0.953125 -0.53125 1.390625 -1.453125q0.34375 -0.71875 0.34375 -2.109375l0 -0.78125zm5.4101562 -6.203125l7.15625 0l0 1.75l-5.046875 0l0 10.703125l-2.109375 0l0 -12.453125zm8.738281 17.21875l0 -17.21875l1.921875 0l0 1.625q0.6875 -0.953125 1.53125 -1.421875q0.859375 -0.484375 2.078125 -0.484375q1.59375 0 2.8125 0.828125q1.21875 0.8125 1.84375 2.3125q0.625 1.5 0.625 3.28125q0 1.90625 -0.6875 3.4375q-0.6875 1.53125 -2.0 2.34375q-1.296875 0.8125 -2.734375 0.8125q-1.0625 0 -1.90625 -0.4375q-0.828125 -0.453125 -1.375 -1.140625l0 6.0625l-2.109375 0zm1.921875 -10.921875q0 2.40625 0.96875 3.5625q0.96875 1.140625 2.359375 1.140625q1.40625 0 2.40625 -1.1875q1.0 -1.1875 1.0 -3.6875q0 -2.375 -0.984375 -3.5625q-0.96875 -1.1875 -2.328125 -1.1875q-1.359375 0 -2.390625 1.265625q-1.03125 1.25 -1.03125 3.65625zm19.550781 4.625q-1.171875 0.984375 -2.265625 1.40625q-1.078125 0.40625 -2.3125 0.40625q-2.046875 0 -3.15625 -1.0q-1.09375 -1.0 -1.09375 -2.5625q0 -0.921875 0.40625 -1.671875q0.421875 -0.75 1.09375 -1.203125q0.671875 -0.46875 1.515625 -0.703125q0.625 -0.15625 1.875 -0.3125q2.5625 -0.3125 3.765625 -0.734375q0.015625 -0.421875 0.015625 -0.546875q0 -1.28125 -0.609375 -1.8125q-0.796875 -0.71875 -2.390625 -0.71875q-1.5 0 -2.203125 0.53125q-0.703125 0.515625 -1.046875 1.84375l-2.0625 -0.28125q0.28125 -1.328125 0.921875 -2.140625q0.640625 -0.8125 1.859375 -1.25q1.21875 -0.453125 2.828125 -0.453125q1.59375 0 2.59375 0.375q1.0 0.375 1.46875 0.953125q0.46875 0.5625 0.65625 1.4375q0.09375 0.53125 0.09375 1.9375l0 2.8125q0 2.9375 0.140625 3.71875q0.140625 0.78125 0.53125 1.5l-2.203125 0q-0.328125 -0.65625 -0.421875 -1.53125zm-0.171875 -4.71875q-1.15625 0.46875 -3.453125 0.796875q-1.296875 0.1875 -1.84375 0.421875q-0.53125 0.234375 -0.828125 0.6875q-0.28125 0.453125 -0.28125 1.0q0 0.84375 0.625 1.40625q0.640625 0.5625 1.875 0.5625q1.21875 0 2.171875 -0.53125q0.953125 -0.53125 1.390625 -1.453125q0.34375 -0.71875 0.34375 -2.109375l0 -0.78125zm5.4570312 -6.203125l3.28125 0l3.265625 9.96875l3.640625 -9.96875l3.03125 0l0 12.453125l-2.109375 0l0 -10.015625l-3.671875 10.015625l-1.890625 0l-3.484375 -10.5l0 10.5l-2.0625 0l0 -12.453125zm16.5 0l3.28125 0l3.265625 9.96875l3.640625 -9.96875l3.03125 0l0 12.453125l-2.109375 0l0 -10.015625l-3.671875 10.015625l-1.890625 0l-3.484375 -10.5l0 10.5l-2.0625 0l0 -12.453125zm16.453125 0l2.109375 0l0 5.1875l5.84375 0l0 -5.1875l2.109375 0l0 12.453125l-2.109375 0l0 -5.515625l-5.84375 0l0 5.515625l-2.109375 0l0 -12.453125zm25.097672 0l2.109375 0l0 12.453125l-2.109375 0l0 -12.453125zm-11.812515 0l2.109375 0l0 4.875l2.671875 0q2.625 0 4.03125 1.015625q1.40625 1.0 1.40625 2.78125q0 1.5625 -1.171875 2.671875q-1.171875 1.109375 -3.765625 1.109375l-5.28125 0l0 -12.453125zm2.109375 10.71875l2.21875 0q2.0 0 2.859375 -0.484375q0.859375 -0.5 0.859375 -1.546875q0 -0.8125 -0.640625 -1.4375q-0.625 -0.640625 -2.796875 -0.640625l-2.5 0l0 4.109375zm15.093765 -10.71875l2.109375 0l0 9.5l5.859375 -9.5l2.265625 0l0 12.453125l-2.109375 0l0 -9.4375l-5.84375 9.4375l-2.28125 0l0 -12.453125zm7.453125 -4.703125l1.4375 0q-0.171875 1.46875 -1.078125 2.25q-0.890625 0.78125 -2.375 0.78125q-1.5 0 -2.40625 -0.78125q-0.890625 -0.78125 -1.0625 -2.25l1.4375 0q0.15625 0.796875 0.640625 1.1875q0.5 0.390625 1.3125 0.390625q0.953125 0 1.4375 -0.375q0.484375 -0.390625 0.65625 -1.203125zm20.746094 12.59375l2.078125 0.265625q-0.34375 2.15625 -1.75 3.375q-1.390625 1.203125 -3.4375 1.203125q-2.546875 0 -4.109375 -1.671875q-1.546875 -1.671875 -1.546875 -4.78125q0 -2.015625 0.671875 -3.53125q0.671875 -1.515625 2.03125 -2.265625q1.359375 -0.765625 2.96875 -0.765625q2.03125 0 3.3125 1.03125q1.296875 1.03125 1.65625 2.90625l-2.046875 0.328125q-0.296875 -1.265625 -1.046875 -1.890625q-0.734375 -0.640625 -1.796875 -0.640625q-1.59375 0 -2.59375 1.15625q-0.984375 1.140625 -0.984375 3.609375q0 2.5 0.953125 3.640625q0.96875 1.140625 2.515625 1.140625q1.234375 0 2.0625 -0.765625q0.84375 -0.765625 1.0625 -2.34375zm3.09375 -1.65625q0 -3.46875 1.921875 -5.125q1.609375 -1.390625 3.921875 -1.390625q2.5625 0 4.1875 1.6875q1.625 1.6875 1.625 4.640625q0 2.40625 -0.71875 3.78125q-0.71875 1.375 -2.09375 2.140625q-1.375 0.765625 -3.0 0.765625q-2.625 0 -4.234375 -1.671875q-1.609375 -1.6875 -1.609375 -4.828125zm2.171875 0q0 2.390625 1.03125 3.578125q1.046875 1.1875 2.640625 1.1875q1.5625 0 2.609375 -1.1875q1.046875 -1.203125 1.046875 -3.65625q0 -2.3125 -1.0625 -3.5q-1.046875 -1.1875 -2.59375 -1.1875q-1.59375 0 -2.640625 1.1875q-1.03125 1.1875 -1.03125 3.578125zm11.957031 -6.234375l2.109375 0l0 5.390625q1.0 0 1.40625 -0.390625q0.40625 -0.390625 1.1875 -2.25q0.625 -1.484375 1.0 -1.953125q0.390625 -0.46875 0.890625 -0.625q0.515625 -0.171875 1.625 -0.171875l0.421875 0l0 1.75l-0.578125 -0.015625q-0.84375 0 -1.078125 0.25q-0.234375 0.265625 -0.75 1.53125q-0.46875 1.21875 -0.875 1.6875q-0.390625 0.46875 -1.234375 0.859375q1.359375 0.359375 2.671875 2.53125l2.3125 3.859375l-2.3125 0l-2.25 -3.859375q-0.703125 -1.15625 -1.21875 -1.515625q-0.515625 -0.375 -1.21875 -0.375l0 5.75l-2.109375 0l0 -12.453125zm19.03125 8.4375l2.171875 0.28125q-0.515625 1.90625 -1.90625 2.96875q-1.390625 1.046875 -3.5625 1.046875q-2.734375 0 -4.34375 -1.671875q-1.59375 -1.6875 -1.59375 -4.734375q0 -3.140625 1.609375 -4.875q1.625 -1.734375 4.203125 -1.734375q2.5 0 4.078125 1.703125q1.59375 1.703125 1.59375 4.78125q0 0.1875 -0.015625 0.5625l-9.28125 0q0.109375 2.046875 1.15625 3.140625q1.046875 1.09375 2.609375 1.09375q1.15625 0 1.96875 -0.609375q0.828125 -0.609375 1.3125 -1.953125zm-6.9375 -3.40625l6.953125 0q-0.140625 -1.5625 -0.796875 -2.359375q-1.0 -1.21875 -2.609375 -1.21875q-1.453125 0 -2.453125 0.984375q-0.984375 0.96875 -1.09375 2.59375zm10.628906 -5.03125l10.109375 0l0 1.75l-4.015625 0l0 10.703125l-2.09375 0l0 -10.703125l-4.0 0l0 -1.75zm12.7109375 2.40625l0 -2.40625l2.40625 0l0 2.40625l-2.40625 0zm0 10.046875l0 -2.40625l2.40625 0l0 2.40625l-2.40625 0z" fill-rule="nonzero"></path><path fill="#cfe2f3" d="m208.9252 443.80054l151.40158 0l0 97.85828l-151.40158 0z" fill-rule="nonzero"></path><path stroke="#000000" stroke-width="2.0" stroke-linejoin="round" stroke-linecap="butt" d="m208.9252 443.80054l151.40158 0l0 97.85828l-151.40158 0z" fill-rule="nonzero"></path><path fill="#000000" d="m235.27026 486.0559l10.703125 0l0 13.59375l-1.8125 0l0 -12.0l-7.09375 0l0 12.0l-1.796875 0l0 -13.59375zm13.174805 17.375l0 -13.640625l1.53125 0l0 1.28125q0.53125 -0.75 1.203125 -1.125q0.6875 -0.375 1.640625 -0.375q1.265625 0 2.234375 0.65625q0.96875 0.640625 1.453125 1.828125q0.5 1.1875 0.5 2.59375q0 1.515625 -0.546875 2.734375q-0.546875 1.203125 -1.578125 1.84375q-1.03125 0.640625 -2.171875 0.640625q-0.84375 0 -1.515625 -0.34375q-0.65625 -0.359375 -1.078125 -0.890625l0 4.796875l-1.671875 0zm1.515625 -8.65625q0 1.90625 0.765625 2.8125q0.78125 0.90625 1.875 0.90625q1.109375 0 1.890625 -0.9375q0.796875 -0.9375 0.796875 -2.921875q0 -1.875 -0.78125 -2.8125q-0.765625 -0.9375 -1.84375 -0.9375q-1.0625 0 -1.890625 1.0q-0.8125 1.0 -0.8125 2.890625zm8.235077 -0.046875q0 -2.734375 1.53125 -4.0625q1.265625 -1.09375 3.09375 -1.09375q2.03125 0 3.3125 1.34375q1.296875 1.328125 1.296875 3.671875q0 1.90625 -0.578125 3.0q-0.5625 1.078125 -1.65625 1.6875q-1.078125 0.59375 -2.375 0.59375q-2.0625 0 -3.34375 -1.328125q-1.28125 -1.328125 -1.28125 -3.8125zm1.71875 0q0 1.890625 0.828125 2.828125q0.828125 0.9375 2.078125 0.9375q1.25 0 2.0625 -0.9375q0.828125 -0.953125 0.828125 -2.890625q0 -1.828125 -0.828125 -2.765625q-0.828125 -0.9375 -2.0625 -0.9375q-1.25 0 -2.078125 0.9375q-0.828125 0.9375 -0.828125 2.828125zm9.313232 -4.9375l1.671875 0l0 8.484375l4.625 0l0 -8.484375l1.65625 0l0 8.484375l1.078125 0l0 4.171875l-1.375 0l0 -2.796875l-7.65625 0l0 -9.859375zm17.404175 6.6875l1.71875 0.21875q-0.40625 1.5 -1.515625 2.34375q-1.09375 0.828125 -2.8125 0.828125q-2.15625 0 -3.421875 -1.328125q-1.265625 -1.328125 -1.265625 -3.734375q0 -2.484375 1.265625 -3.859375q1.28125 -1.375 3.328125 -1.375q1.984375 0 3.234375 1.34375q1.25 1.34375 1.25 3.796875q0 0.140625 -0.015625 0.4375l-7.34375 0q0.09375 1.625 0.921875 2.484375q0.828125 0.859375 2.0625 0.859375q0.90625 0 1.546875 -0.46875q0.65625 -0.484375 1.046875 -1.546875zm-5.484375 -2.703125l5.5 0q-0.109375 -1.234375 -0.625 -1.859375q-0.796875 -0.96875 -2.078125 -0.96875q-1.140625 0 -1.9375 0.78125q-0.78125 0.765625 -0.859375 2.046875zm15.547607 2.265625l1.640625 0.21875q-0.265625 1.6875 -1.375 2.65625q-1.109375 0.953125 -2.734375 0.953125q-2.015625 0 -3.25 -1.3125q-1.21875 -1.328125 -1.21875 -3.796875q0 -1.59375 0.515625 -2.78125q0.53125 -1.203125 1.609375 -1.796875q1.09375 -0.609375 2.359375 -0.609375q1.609375 0 2.625 0.8125q1.015625 0.8125 1.3125 2.3125l-1.625 0.25q-0.234375 -1.0 -0.828125 -1.5q-0.59375 -0.5 -1.421875 -0.5q-1.265625 0 -2.0625 0.90625q-0.78125 0.90625 -0.78125 2.859375q0 1.984375 0.765625 2.890625q0.765625 0.890625 1.984375 0.890625q0.984375 0 1.640625 -0.59375q0.65625 -0.609375 0.84375 -1.859375zm9.328125 0l1.640625 0.21875q-0.265625 1.6875 -1.375 2.65625q-1.109375 0.953125 -2.734375 0.953125q-2.015625 0 -3.25 -1.3125q-1.21875 -1.328125 -1.21875 -3.796875q0 -1.59375 0.515625 -2.78125q0.53125 -1.203125 1.609375 -1.796875q1.09375 -0.609375 2.359375 -0.609375q1.609375 0 2.625 0.8125q1.015625 0.8125 1.3125 2.3125l-1.625 0.25q-0.234375 -1.0 -0.828125 -1.5q-0.59375 -0.5 -1.421875 -0.5q-1.265625 0 -2.0625 0.90625q-0.78125 0.90625 -0.78125 2.859375q0 1.984375 0.765625 2.890625q0.765625 0.890625 1.984375 0.890625q0.984375 0 1.640625 -0.59375q0.65625 -0.609375 0.84375 -1.859375zm8.370789 -9.984375l8.828125 0l0 1.59375l-7.03125 0l0 4.203125l3.25 0q1.796875 0 2.859375 0.34375q1.0625 0.34375 1.703125 1.296875q0.640625 0.9375 0.640625 2.203125q0 1.03125 -0.46875 1.9375q-0.453125 0.890625 -1.359375 1.453125q-0.90625 0.5625 -3.09375 0.5625l-5.328125 0l0 -13.59375zm1.796875 12.0625l3.609375 0q1.453125 0 2.171875 -0.59375q0.734375 -0.59375 0.734375 -1.78125q0 -0.84375 -0.421875 -1.40625q-0.40625 -0.5625 -1.15625 -0.75q-0.734375 -0.1875 -2.53125 -0.1875l-2.40625 0l0 4.71875zm18.461914 -0.078125l0 1.609375l-8.984375 0q-0.015625 -0.609375 0.1875 -1.15625q0.34375 -0.921875 1.09375 -1.8125q0.765625 -0.890625 2.1875 -2.0625q2.21875 -1.8125 3.0 -2.875q0.78125 -1.0625 0.78125 -2.015625q0 -0.984375 -0.71875 -1.671875q-0.703125 -0.6875 -1.84375 -0.6875q-1.203125 0 -1.9375 0.734375q-0.71875 0.71875 -0.71875 2.0l-1.71875 -0.171875q0.171875 -1.921875 1.328125 -2.921875q1.15625 -1.015625 3.09375 -1.015625q1.953125 0 3.09375 1.09375q1.140625 1.078125 1.140625 2.6875q0 0.8125 -0.34375 1.609375q-0.328125 0.78125 -1.109375 1.65625q-0.765625 0.859375 -2.5625 2.390625q-1.5 1.265625 -1.9375 1.71875q-0.421875 0.4375 -0.703125 0.890625l6.671875 0z" fill-rule="nonzero"></path><path fill="#fff2cc" d="m111.07608 346.29916l86.91615 87.49332l8.771652 -8.716522l-0.11300659 34.979126l-34.973602 -0.112976074l8.771652 -8.716553l-86.91615 -87.49332z" fill-rule="nonzero"></path><path stroke="#000000" stroke-width="2.0" stroke-linejoin="round" stroke-linecap="butt" d="m111.07608 346.29916l86.91615 87.49332l8.771652 -8.716522l-0.11300659 34.979126l-34.973602 -0.112976074l8.771652 -8.716553l-86.91615 -87.49332z" fill-rule="nonzero"></path><path fill="#d9ead3" d="m113.824646 354.37103l28.742401 30.589752l-12.004929 11.279694l-28.742393 -30.589752z" fill-rule="nonzero"></path><path fill="#000000" fill-opacity="0.0" d="m117.41744 358.19473l-12.004921 11.279724m33.56172 11.662598l-12.004921 11.279694" fill-rule="nonzero"></path><path fill="#000000" fill-opacity="0.0" d="m113.824646 354.37103l28.742401 30.589752l-12.004929 11.279694l-28.742393 -30.589752z" fill-rule="nonzero"></path><path stroke="#000000" stroke-width="2.0" stroke-linejoin="round" stroke-linecap="butt" d="m117.41744 358.19473l-12.004921 11.279724m33.56172 11.662598l-12.004921 11.279694" fill-rule="nonzero"></path><path stroke="#000000" stroke-width="2.0" stroke-linejoin="round" stroke-linecap="butt" d="m113.824646 354.37103l28.742401 30.589752l-12.004929 11.279694l-28.742393 -30.589752z" fill-rule="nonzero"></path><path fill="#d9ead3" d="m189.33676 512.12714l-31.209549 -33.7518l13.035385 -12.445679l31.209549 33.7518z" fill-rule="nonzero"></path><path fill="#000000" fill-opacity="0.0" d="m185.43558 507.90817l13.035385 -12.445679m-36.44255 -12.868164l13.035385 -12.445679" fill-rule="nonzero"></path><path fill="#000000" fill-opacity="0.0" d="m189.33676 512.12714l-31.209549 -33.7518l13.035385 -12.445679l31.209549 33.7518z" fill-rule="nonzero"></path><path stroke="#000000" stroke-width="2.0" stroke-linejoin="round" stroke-linecap="butt" d="m185.43558 507.90817l13.035385 -12.445679m-36.44255 -12.868164l13.035385 -12.445679" fill-rule="nonzero"></path><path stroke="#000000" stroke-width="2.0" stroke-linejoin="round" stroke-linecap="butt" d="m189.33676 512.12714l-31.209549 -33.7518l13.035385 -12.445679l31.209549 33.7518z" fill-rule="nonzero"></path><path fill="#fff2cc" d="m189.69029 518.3412l-138.43144 -141.61786l-9.527557 9.614166l0.1322174 -38.586823l37.978016 0.13012695l-9.527557 9.614166l138.43143 141.61792z" fill-rule="nonzero"></path><path stroke="#000000" stroke-width="2.0" stroke-linejoin="round" stroke-linecap="butt" d="m189.69029 518.3412l-138.43144 -141.61786l-9.527557 9.614166l0.1322174 -38.586823l37.978016 0.13012695l-9.527557 9.614166l138.43143 141.61792z" fill-rule="nonzero"></path><path fill="#d9ead3" d="m171.88107 467.47864l28.742401 30.589752l-12.004929 11.279694l-28.742386 -30.589752z" fill-rule="nonzero"></path><path fill="#000000" fill-opacity="0.0" d="m175.47388 471.30237l-12.004929 11.279694m33.56172 11.662598l-12.004913 11.279694" fill-rule="nonzero"></path><path fill="#000000" fill-opacity="0.0" d="m171.88107 467.47864l28.742401 30.589752l-12.004929 11.279694l-28.742386 -30.589752z" fill-rule="nonzero"></path><path stroke="#000000" stroke-width="2.0" stroke-linejoin="round" stroke-linecap="butt" d="m175.47388 471.30237l-12.004929 11.279694m33.56172 11.662598l-12.004913 11.279694" fill-rule="nonzero"></path><path stroke="#000000" stroke-width="2.0" stroke-linejoin="round" stroke-linecap="butt" d="m171.88107 467.47864l28.742401 30.589752l-12.004929 11.279694l-28.742386 -30.589752z" fill-rule="nonzero"></path></g></svg>

