<?xml version="1.0" standalone="yes"?>

<svg version="1.1" viewBox="0.0 0.0 1188.0 607.0" fill="none" stroke="none" stroke-linecap="square" stroke-miterlimit="10" xmlns="http://www.w3.org/2000/svg" xmlns:xlink="http://www.w3.org/1999/xlink"><clipPath id="p.0"><path d="m0 0l1188.0 0l0 607.0l-1188.0 0l0 -607.0z" clip-rule="nonzero"></path></clipPath><g clip-path="url(#p.0)"><path fill="#000000" fill-opacity="0.0" d="m0 0l1188.7716 0l0 607.82153l-1188.7716 0z" fill-rule="nonzero"></path><path fill="#c9daf8" d="m6.39895 392.51706l370.86615 0l0 79.68503l-370.86615 0z" fill-rule="nonzero"></path><path stroke="#000000" stroke-width="2.0" stroke-linejoin="round" stroke-linecap="butt" d="m6.39895 392.51706l370.86615 0l0 79.68503l-370.86615 0z" fill-rule="nonzero"></path><path fill="#000000" d="m27.320826 444.0796l-2.8125 0l0 -17.921875q-1.015625 0.96875 -2.671875 1.9375q-1.640625 0.96875 -2.953125 1.453125l0 -2.71875q2.359375 -1.109375 4.125 -2.6875q1.765625 -1.578125 2.5 -3.0625l1.8125 0l0 23.0zm8.781248 0l0 -3.203125l3.203125 0l0 3.203125l-3.203125 0zm19.421875 -22.90625l13.9375 0l0 20.203125l2.0625 0l0 8.046875l-2.703125 0l0 -5.34375l-15.140625 0l0 5.34375l-2.703125 0l0 -8.046875l1.78125 0q2.765625 -4.171875 2.765625 -16.859375l0 -3.34375zm10.90625 2.703125l-7.984375 0l0 1.171875q0 2.921875 -0.53125 8.0q-0.515625 5.0625 -2.046875 8.328125l10.5625 0l0 -17.5zm7.28125 11.90625q0 -4.609375 2.5625 -6.828125q2.140625 -1.84375 5.21875 -1.84375q3.421875 0 5.59375 2.25q2.171875 2.234375 2.171875 6.1875q0 3.203125 -0.96875 5.046875q-0.953125 1.828125 -2.796875 2.84375q-1.828125 1.015625 -4.0 1.015625q-3.484375 0 -5.640625 -2.234375q-2.140625 -2.234375 -2.140625 -6.4375zm2.890625 0q0 3.1875 1.390625 4.78125q1.390625 1.578125 3.5 1.578125q2.09375 0 3.484375 -1.59375q1.390625 -1.59375 1.390625 -4.859375q0 -3.078125 -1.40625 -4.65625q-1.390625 -1.59375 -3.46875 -1.59375q-2.109375 0 -3.5 1.578125q-1.390625 1.578125 -1.390625 4.765625zm26.78125 2.21875l2.765625 0.359375q-0.453125 2.859375 -2.328125 4.484375q-1.859375 1.609375 -4.578125 1.609375q-3.40625 0 -5.484375 -2.21875q-2.0625 -2.234375 -2.0625 -6.390625q0 -2.6875 0.890625 -4.703125q0.890625 -2.015625 2.703125 -3.015625q1.828125 -1.015625 3.96875 -1.015625q2.703125 0 4.421875 1.375q1.71875 1.359375 2.203125 3.875l-2.734375 0.421875q-0.390625 -1.671875 -1.390625 -2.515625q-0.984375 -0.84375 -2.390625 -0.84375q-2.125 0 -3.453125 1.53125q-1.328125 1.515625 -1.328125 4.8125q0 3.34375 1.28125 4.859375q1.28125 1.515625 3.34375 1.515625q1.65625 0 2.765625 -1.015625q1.109375 -1.015625 1.40625 -3.125zm3.65625 -10.515625l13.484375 0l0 2.328125l-5.34375 0l0 14.265625l-2.796875 0l0 -14.265625l-5.34375 0l0 -2.328125zm16.046875 22.984375l-0.3125 -2.640625q0.921875 0.25 1.609375 0.25q0.9375 0 1.5 -0.3125q0.5625 -0.3125 0.921875 -0.875q0.265625 -0.421875 0.859375 -2.09375q0.078125 -0.234375 0.25 -0.6875l-6.296875 -16.625l3.03125 0l3.4531326 9.609375q0.671875 1.828125 1.203125 3.84375q0.484375 -1.9375 1.15625 -3.78125l3.546875 -9.671875l2.8125 0l-6.3125 16.875q-1.015625 2.734375 -1.578125 3.765625q-0.75 1.390625 -1.7187576 2.03125q-0.96875 0.65625 -2.3125 0.65625q-0.8125 0 -1.8125 -0.34375zm16.140633 -22.984375l13.09375 0l0 16.59375l-2.8125 0l0 -14.265625l-7.46875 0l0 14.265625l-2.8125 0l0 -16.59375zm28.140625 14.546875q-1.5625 1.328125 -3.015625 1.875q-1.4375 0.546875 -3.09375 0.546875q-2.734375 0 -4.203125 -1.328125q-1.46875 -1.34375 -1.46875 -3.421875q0 -1.21875 0.546875 -2.21875q0.5625 -1.015625 1.453125 -1.625q0.90625 -0.609375 2.03125 -0.921875q0.828125 -0.21875 2.5 -0.421875q3.40625 -0.40625 5.015625 -0.96875q0.015625 -0.578125 0.015625 -0.734375q0 -1.71875 -0.796875 -2.421875q-1.078125 -0.953125 -3.203125 -0.953125q-1.984375 0 -2.9375 0.703125q-0.9375 0.6875 -1.390625 2.453125l-2.75 -0.375q0.375 -1.765625 1.234375 -2.84375q0.859375 -1.09375 2.484375 -1.671875q1.625 -0.59375 3.765625 -0.59375q2.125 0 3.453125 0.5q1.328125 0.5 1.953125 1.265625q0.625 0.75 0.875 1.90625q0.140625 0.71875 0.140625 2.59375l0 3.75q0 3.921875 0.171875 4.96875q0.1875 1.03125 0.71875 1.984375l-2.9375 0q-0.4375 -0.875 -0.5625 -2.046875zm-0.234375 -6.28125q-1.53125 0.625 -4.59375 1.0625q-1.734375 0.25 -2.453125 0.5625q-0.71875 0.3125 -1.109375 0.921875q-0.390625 0.59375 -0.390625 1.328125q0 1.125 0.84375 1.875q0.859375 0.75 2.5 0.75q1.625 0 2.890625 -0.703125q1.265625 -0.71875 1.859375 -1.953125q0.453125 -0.953125 0.453125 -2.8125l0 -1.03125zm16.078125 -8.265625l2.8125 0l0 7.171875q1.34375 0 1.875 -0.515625q0.546875 -0.515625 1.59375 -3.0q0.828125 -1.96875 1.34375 -2.59375q0.515625 -0.625 1.1875 -0.84375q0.671875 -0.21875 2.15625 -0.21875l0.5625 0l0 2.328125l-0.78125 -0.015625q-1.109375 0 -1.421875 0.328125q-0.328125 0.34375 -1.0 2.046875q-0.640625 1.625 -1.171875 2.25q-0.53125 0.625 -1.640625 1.140625q1.8125 0.484375 3.5625 3.375l3.078125 5.140625l-3.09375 0l-3.0 -5.140625q-0.921875 -1.546875 -1.609375 -2.03125q-0.6875 -0.5 -1.640625 -0.5l0 7.671875l-2.8125 0l0 -16.59375zm33.734375 10.515625l2.765625 0.359375q-0.453125 2.859375 -2.328125 4.484375q-1.859375 1.609375 -4.578125 1.609375q-3.40625 0 -5.484375 -2.21875q-2.0625 -2.234375 -2.0625 -6.390625q0 -2.6875 0.890625 -4.703125q0.890625 -2.015625 2.703125 -3.015625q1.828125 -1.015625 3.96875 -1.015625q2.703125 0 4.421875 1.375q1.71875 1.359375 2.203125 3.875l-2.734375 0.421875q-0.390625 -1.671875 -1.390625 -2.515625q-0.984375 -0.84375 -2.390625 -0.84375q-2.125 0 -3.453125 1.53125q-1.328125 1.515625 -1.328125 4.8125q0 3.34375 1.28125 4.859375q1.28125 1.515625 3.34375 1.515625q1.65625 0 2.765625 -1.015625q1.109375 -1.015625 1.40625 -3.125zm5.171875 12.4375l0 -22.953125l2.5625 0l0 2.15625q0.90625 -1.265625 2.046875 -1.890625q1.140625 -0.640625 2.765625 -0.640625q2.125 0 3.75 1.09375q1.625 1.09375 2.453125 3.09375q0.828125 1.984375 0.828125 4.359375q0 2.546875 -0.921875 4.59375q-0.90625 2.03125 -2.65625 3.125q-1.734375 1.078125 -3.65625 1.078125q-1.40625 0 -2.53125 -0.59375q-1.109375 -0.59375 -1.828125 -1.5l0 8.078125l-2.8125 0zm2.546875 -14.5625q0 3.203125 1.296875 4.734375q1.296875 1.53125 3.140625 1.53125q1.875 0 3.203125 -1.578125q1.34375 -1.59375 1.34375 -4.921875q0 -3.171875 -1.3125 -4.75q-1.296875 -1.578125 -3.109375 -1.578125q-1.796875 0 -3.1875 1.6875q-1.375 1.671875 -1.375 4.875zm26.609375 2.859375l2.90625 0.359375q-0.6875 2.546875 -2.546875 3.953125q-1.859375 1.40625 -4.75 1.40625q-3.640625 0 -5.78125 -2.234375q-2.125 -2.25 -2.125 -6.296875q0 -4.1875 2.15625 -6.5q2.15625 -2.3125 5.59375 -2.3125q3.328125 0 5.4375 2.265625q2.109375 2.265625 2.109375 6.375q0 0.25 -0.015625 0.75l-12.375 0q0.15625 2.734375 1.546875 4.1875q1.390625 1.453125 3.46875 1.453125q1.546875 0 2.640625 -0.8125q1.09375 -0.8125 1.734375 -2.59375zm-9.234375 -4.546875l9.265625 0q-0.1875 -2.09375 -1.0625 -3.140625q-1.34375 -1.625 -3.484375 -1.625q-1.9375 0 -3.265625 1.296875q-1.3125 1.296875 -1.453125 3.46875zm17.890625 -6.703125l11.5625 0l0 14.28125l1.796875 0l0 7.015625l-2.3125 0l0 -4.703125l-13.0625 0l0 4.703125l-2.3125 0l0 -7.015625l1.484375 0q2.96875 -4.03125 2.84375 -14.28125zm2.34375 2.328125q-0.3125 8.078125 -2.5 11.953125l8.921875 0l0 -11.953125l-6.421875 0zm25.46875 8.921875l2.90625 0.359375q-0.6875 2.546875 -2.546875 3.953125q-1.859375 1.40625 -4.75 1.40625q-3.640625 0 -5.78125 -2.234375q-2.125 -2.25 -2.125 -6.296875q0 -4.1875 2.15625 -6.5q2.15625 -2.3125 5.59375 -2.3125q3.328125 0 5.4375 2.265625q2.109375 2.265625 2.109375 6.375q0 0.25 -0.015625 0.75l-12.375 0q0.15625 2.734375 1.546875 4.1875q1.390625 1.453125 3.46875 1.453125q1.546875 0 2.640625 -0.8125q1.09375 -0.8125 1.734375 -2.59375zm-9.234375 -4.546875l9.265625 0q-0.1875 -2.09375 -1.0625 -3.140625q-1.34375 -1.625 -3.484375 -1.625q-1.9375 0 -3.265625 1.296875q-1.3125 1.296875 -1.453125 3.46875z" fill-rule="nonzero"></path><path fill="#d9ead3" d="m6.39895 312.83203l370.86615 0l0 79.68503l-370.86615 0z" fill-rule="nonzero"></path><path stroke="#000000" stroke-width="2.0" stroke-linejoin="round" stroke-linecap="butt" d="m6.39895 312.83203l370.86615 0l0 79.68503l-370.86615 0z" fill-rule="nonzero"></path><path fill="#000000" d="m31.508326 361.6914l0 2.703125l-15.140625 0q-0.03125 -1.015625 0.328125 -1.953125q0.578125 -1.546875 1.84375 -3.046875q1.28125 -1.5 3.6875 -3.46875q3.734375 -3.0625 5.046875 -4.84375q1.3125 -1.796875 1.3125 -3.390625q0 -1.671875 -1.203125 -2.8125q-1.1875 -1.15625 -3.109375 -1.15625q-2.03125 0 -3.25 1.21875q-1.21875 1.21875 -1.234375 3.375l-2.890625 -0.296875q0.296875 -3.234375 2.234375 -4.921875q1.9375 -1.703125 5.203125 -1.703125q3.296875 0 5.21875 1.828125q1.921875 1.828125 1.921875 4.53125q0 1.375 -0.5625 2.703125q-0.5625 1.328125 -1.875 2.796875q-1.296875 1.46875 -4.328125 4.03125q-2.53125 2.125 -3.25 2.890625q-0.71875 0.75 -1.1875 1.515625l11.234375 0zm4.593748 2.703125l0 -3.203125l3.203125 0l0 3.203125l-3.203125 0zm33.6875 -8.03125l3.03125 0.765625q-0.953125 3.734375 -3.4375 5.703125q-2.46875 1.953125 -6.046875 1.953125q-3.703125 0 -6.03125 -1.5q-2.3125 -1.515625 -3.53125 -4.375q-1.203125 -2.859375 -1.203125 -6.140625q0 -3.578125 1.359375 -6.234375q1.375 -2.671875 3.890625 -4.046875q2.53125 -1.390625 5.5625 -1.390625q3.4375 0 5.78125 1.75q2.34375 1.75 3.265625 4.921875l-2.984375 0.703125q-0.796875 -2.5 -2.3125 -3.640625q-1.515625 -1.140625 -3.8125 -1.140625q-2.640625 0 -4.421875 1.265625q-1.765625 1.265625 -2.484375 3.40625q-0.71875 2.125 -0.71875 4.390625q0 2.921875 0.84375 5.109375q0.859375 2.171875 2.65625 3.25q1.796875 1.078125 3.890625 1.078125q2.546875 0 4.3125 -1.46875q1.765625 -1.46875 2.390625 -4.359375zm17.765625 2.6875l2.90625 0.359375q-0.6875 2.546875 -2.546875 3.953125q-1.859375 1.40625 -4.75 1.40625q-3.640625 0 -5.78125 -2.234375q-2.125 -2.25 -2.125 -6.296875q0 -4.1875 2.15625 -6.5q2.15625 -2.3125 5.59375 -2.3125q3.328125 0 5.4375 2.265625q2.109375 2.265625 2.109375 6.375q0 0.25 -0.015625 0.75l-12.375 0q0.15625 2.734375 1.546875 4.1875q1.390625 1.453125 3.46875 1.453125q1.546875 0 2.640625 -0.8125q1.09375 -0.8125 1.734375 -2.59375zm-9.234375 -4.546875l9.265625 0q-0.1875 -2.09375 -1.0625 -3.140625q-1.34375 -1.625 -3.484375 -1.625q-1.9375 0 -3.265625 1.296875q-1.3125 1.296875 -1.453125 3.46875zm14.15625 -6.703125l13.484375 0l0 2.328125l-5.34375 0l0 14.265625l-2.796875 0l0 -14.265625l-5.34375 0l0 -2.328125zm27.53125 11.25l2.90625 0.359375q-0.6875 2.546875 -2.546875 3.953125q-1.859375 1.40625 -4.75 1.40625q-3.640625 0 -5.78125 -2.234375q-2.125 -2.25 -2.125 -6.296875q0 -4.1875 2.15625 -6.5q2.15625 -2.3125 5.59375 -2.3125q3.328125 0 5.4375 2.265625q2.109375 2.265625 2.109375 6.375q0 0.25 -0.015625 0.75l-12.375 0q0.15625 2.734375 1.546875 4.1875q1.390625 1.453125 3.46875 1.453125q1.546875 0 2.640625 -0.8125q1.09375 -0.8125 1.734375 -2.59375zm-9.234375 -4.546875l9.265625 0q-0.1875 -2.09375 -1.0625 -3.140625q-1.34375 -1.625 -3.484375 -1.625q-1.9375 0 -3.265625 1.296875q-1.3125 1.296875 -1.453125 3.46875zm15.6875 -6.703125l6.4843826 0q2.390625 0 3.546875 0.40625q1.171875 0.390625 2.0 1.453125q0.84375 1.0625 0.84375 2.546875q0 1.1875 -0.5 2.078125q-0.484375 0.875 -1.46875 1.46875q1.171875 0.390625 1.9375 1.46875q0.78125 1.0625 0.78125 2.53125q-0.15625 2.359375 -1.6875 3.5q-1.53125 1.140625 -4.453125 1.140625l-7.4843826 0l0 -16.59375zm2.8125076 6.984375l3.0 0q1.796875 0 2.46875 -0.1875q0.671875 -0.1875 1.203125 -0.75q0.53125 -0.578125 0.53125 -1.375q0 -1.3125 -0.9375 -1.828125q-0.921875 -0.515625 -3.171875 -0.515625l-3.09375 0l0 4.65625zm0 7.296875l3.703125 0q2.390625 0 3.28125 -0.546875q0.890625 -0.5625 0.9375 -1.921875q0 -0.796875 -0.515625 -1.46875q-0.515625 -0.6875 -1.34375 -0.859375q-0.828125 -0.1875 -2.65625 -0.1875l-3.40625 0l0 4.984375zm13.125 -5.984375q0 -4.609375 2.5625 -6.828125q2.140625 -1.84375 5.21875 -1.84375q3.421875 0 5.59375 2.25q2.171875 2.234375 2.171875 6.1875q0 3.203125 -0.96875 5.046875q-0.953125 1.828125 -2.796875 2.84375q-1.828125 1.015625 -4.0 1.015625q-3.484375 0 -5.640625 -2.234375q-2.140625 -2.234375 -2.140625 -6.4375zm2.890625 0q0 3.1875 1.390625 4.78125q1.390625 1.578125 3.5 1.578125q2.09375 0 3.484375 -1.59375q1.390625 -1.59375 1.390625 -4.859375q0 -3.078125 -1.40625 -4.65625q-1.390625 -1.59375 -3.46875 -1.59375q-2.109375 0 -3.5 1.578125q-1.390625 1.578125 -1.390625 4.765625zm15.953125 -8.296875l2.8125 0l0 12.65625l7.796875 -12.65625l3.03125 0l0 16.59375l-2.8125 0l0 -12.578125l-7.796875 12.578125l-3.03125 0l0 -16.59375zm9.921875 -6.28125l1.921875 0q-0.234375 1.953125 -1.4375 3.0q-1.1875 1.046875 -3.171875 1.046875q-2.0 0 -3.203125 -1.03125q-1.1875 -1.046875 -1.421875 -3.015625l1.921875 0q0.21875 1.0625 0.859375 1.59375q0.65625 0.515625 1.75 0.515625q1.265625 0 1.90625 -0.5q0.65625 -0.515625 0.875 -1.609375z" fill-rule="nonzero"></path><path fill="#fce5cd" d="m6.39895 233.14699l370.86615 0l0 79.68504l-370.86615 0z" fill-rule="nonzero"></path><path stroke="#000000" stroke-width="2.0" stroke-linejoin="round" stroke-linecap="butt" d="m6.39895 233.14699l370.86615 0l0 79.68504l-370.86615 0z" fill-rule="nonzero"></path><path fill="#000000" d="m16.7427 278.66263l2.8125 -0.375q0.484375 2.390625 1.640625 3.453125q1.171875 1.046875 2.84375 1.046875q1.984375 0 3.34375 -1.375q1.375 -1.375 1.375 -3.40625q0 -1.9375 -1.265625 -3.1875q-1.265625 -1.265625 -3.21875 -1.265625q-0.796875 0 -1.984375 0.3125l0.3125 -2.46875q0.28125 0.03125 0.453125 0.03125q1.796875 0 3.234375 -0.9375q1.4375 -0.9375 1.4375 -2.890625q0 -1.546875 -1.046875 -2.5625q-1.046875 -1.015625 -2.703125 -1.015625q-1.640625 0 -2.734375 1.03125q-1.09375 1.03125 -1.40625 3.09375l-2.8125 -0.5q0.515625 -2.828125 2.34375 -4.375q1.828125 -1.5625 4.546875 -1.5625q1.875 0 3.453125 0.8125q1.578125 0.796875 2.40625 2.1875q0.84375 1.390625 0.84375 2.953125q0 1.484375 -0.796875 2.703125q-0.796875 1.21875 -2.359375 1.9375q2.03125 0.46875 3.15625 1.953125q1.125 1.46875 1.125 3.6875q0 3.0 -2.1875 5.09375q-2.1875 2.078125 -5.53125 2.078125q-3.015625 0 -5.015625 -1.796875q-1.984375 -1.796875 -2.265625 -4.65625zm19.359373 6.046875l0 -3.203125l3.203125 0l0 3.203125l-3.203125 0zm23.171875 0l0 -20.203125l-7.546875 0l0 -2.703125l18.15625 0l0 2.703125l-7.578125 0l0 20.203125l-3.03125 0zm13.359375 6.359375l0 -22.953125l2.5625 0l0 2.15625q0.90625 -1.265625 2.046875 -1.890625q1.140625 -0.640625 2.765625 -0.640625q2.125 0 3.75 1.09375q1.625 1.09375 2.453125 3.09375q0.828125 1.984375 0.828125 4.359375q0 2.546875 -0.921875 4.59375q-0.90625 2.03125 -2.65625 3.125q-1.734375 1.078125 -3.65625 1.078125q-1.40625 0 -2.53125 -0.59375q-1.109375 -0.59375 -1.828125 -1.5l0 8.078125l-2.8125 0zm2.546875 -14.5625q0 3.203125 1.296875 4.734375q1.296875 1.53125 3.140625 1.53125q1.875 0 3.203125 -1.578125q1.34375 -1.59375 1.34375 -4.921875q0 -3.171875 -1.3125 -4.75q-1.296875 -1.578125 -3.109375 -1.578125q-1.796875 0 -3.1875 1.6875q-1.375 1.671875 -1.375 4.875zm26.078125 6.15625q-1.5625 1.328125 -3.015625 1.875q-1.4375 0.546875 -3.09375 0.546875q-2.734375 0 -4.203125 -1.328125q-1.46875 -1.34375 -1.46875 -3.421875q0 -1.21875 0.546875 -2.21875q0.5625 -1.015625 1.453125 -1.625q0.90625 -0.609375 2.03125 -0.921875q0.828125 -0.21875 2.5 -0.421875q3.40625 -0.40625 5.015625 -0.96875q0.015625 -0.578125 0.015625 -0.734375q0 -1.71875 -0.796875 -2.421875q-1.078125 -0.953125 -3.203125 -0.953125q-1.984375 0 -2.9375 0.703125q-0.9375 0.6875 -1.390625 2.453125l-2.75 -0.375q0.375 -1.765625 1.234375 -2.84375q0.859375 -1.09375 2.484375 -1.671875q1.625 -0.59375 3.765625 -0.59375q2.125 0 3.453125 0.5q1.328125 0.5 1.953125 1.265625q0.625 0.75 0.875 1.90625q0.140625 0.71875 0.140625 2.59375l0 3.75q0 3.921875 0.171875 4.96875q0.1875 1.03125 0.71875 1.984375l-2.9375 0q-0.4375 -0.875 -0.5625 -2.046875zm-0.234375 -6.28125q-1.53125 0.625 -4.59375 1.0625q-1.734375 0.25 -2.453125 0.5625q-0.71875 0.3125 -1.109375 0.921875q-0.390625 0.59375 -0.390625 1.328125q0 1.125 0.84375 1.875q0.859375 0.75 2.5 0.75q1.625 0 2.890625 -0.703125q1.265625 -0.71875 1.859375 -1.953125q0.453125 -0.953125 0.453125 -2.8125l0 -1.03125zm7.21875 -8.265625l2.8125 0l0 6.90625l7.796875 0l0 -6.90625l2.8125 0l0 16.59375l-2.8125 0l0 -7.359375l-7.796875 0l0 7.359375l-2.8125 0l0 -16.59375zm28.484383 10.515625l2.765625 0.359375q-0.453125 2.859375 -2.328125 4.484375q-1.859375 1.609375 -4.578125 1.609375q-3.40625 0 -5.4843826 -2.21875q-2.0625 -2.234375 -2.0625 -6.390625q0 -2.6875 0.890625 -4.703125q0.890625 -2.015625 2.7031326 -3.015625q1.828125 -1.015625 3.96875 -1.015625q2.703125 0 4.421875 1.375q1.71875 1.359375 2.203125 3.875l-2.734375 0.421875q-0.390625 -1.671875 -1.390625 -2.515625q-0.984375 -0.84375 -2.390625 -0.84375q-2.125 0 -3.453125 1.53125q-1.3281326 1.515625 -1.3281326 4.8125q0 3.34375 1.2812576 4.859375q1.28125 1.515625 3.34375 1.515625q1.65625 0 2.765625 -1.015625q1.109375 -1.015625 1.40625 -3.125zm5.1875 -10.515625l13.09375 0l0 16.59375l-2.8125 0l0 -14.265625l-7.46875 0l0 14.265625l-2.8125 0l0 -16.59375zm16.265625 8.296875q0 -4.609375 2.5625 -6.828125q2.140625 -1.84375 5.21875 -1.84375q3.421875 0 5.59375 2.25q2.171875 2.234375 2.171875 6.1875q0 3.203125 -0.96875 5.046875q-0.953125 1.828125 -2.796875 2.84375q-1.828125 1.015625 -4.0 1.015625q-3.484375 0 -5.640625 -2.234375q-2.140625 -2.234375 -2.140625 -6.4375zm2.890625 0q0 3.1875 1.390625 4.78125q1.390625 1.578125 3.5 1.578125q2.09375 0 3.484375 -1.59375q1.390625 -1.59375 1.390625 -4.859375q0 -3.078125 -1.40625 -4.65625q-1.390625 -1.59375 -3.46875 -1.59375q-2.109375 0 -3.5 1.578125q-1.390625 1.578125 -1.390625 4.765625zm15.953125 14.65625l0 -22.953125l2.5625 0l0 2.15625q0.90625 -1.265625 2.046875 -1.890625q1.140625 -0.640625 2.765625 -0.640625q2.125 0 3.75 1.09375q1.625 1.09375 2.453125 3.09375q0.828125 1.984375 0.828125 4.359375q0 2.546875 -0.921875 4.59375q-0.90625 2.03125 -2.65625 3.125q-1.734375 1.078125 -3.65625 1.078125q-1.40625 0 -2.53125 -0.59375q-1.109375 -0.59375 -1.828125 -1.5l0 8.078125l-2.8125 0zm2.546875 -14.5625q0 3.203125 1.296875 4.734375q1.296875 1.53125 3.140625 1.53125q1.875 0 3.203125 -1.578125q1.34375 -1.59375 1.34375 -4.921875q0 -3.171875 -1.3125 -4.75q-1.296875 -1.578125 -3.109375 -1.578125q-1.796875 0 -3.1875 1.6875q-1.375 1.671875 -1.375 4.875zm13.734375 -8.390625l13.484375 0l0 2.328125l-5.34375 0l0 14.265625l-2.796875 0l0 -14.265625l-5.34375 0l0 -2.328125zm16.1875 0l2.8125 0l0 6.90625l7.796875 0l0 -6.90625l2.8125 0l0 16.59375l-2.8125 0l0 -7.359375l-7.796875 0l0 7.359375l-2.8125 0l0 -16.59375zm33.453125 0l2.8125 0l0 16.59375l-2.8125 0l0 -16.59375zm-15.734375 0l2.8125 0l0 6.484375l3.5625 0q3.484375 0 5.359375 1.359375q1.890625 1.34375 1.890625 3.71875q0 2.078125 -1.578125 3.5625q-1.5625 1.46875 -5.015625 1.46875l-7.03125 0l0 -16.59375zm2.8125 14.28125l2.953125 0q2.671875 0 3.8125 -0.65625q1.140625 -0.65625 1.140625 -2.046875q0 -1.078125 -0.84375 -1.921875q-0.84375 -0.84375 -3.734375 -0.84375l-3.328125 0l0 5.46875zm20.125 -14.28125l2.8125 0l0 12.65625l7.796875 -12.65625l3.03125 0l0 16.59375l-2.8125 0l0 -12.578125l-7.796875 12.578125l-3.03125 0l0 -16.59375zm9.921875 -6.28125l1.921875 0q-0.234375 1.953125 -1.4375 3.0q-1.1875 1.046875 -3.171875 1.046875q-2.0 0 -3.203125 -1.03125q-1.1875 -1.046875 -1.421875 -3.015625l1.921875 0q0.21875 1.0625 0.859375 1.59375q0.65625 0.515625 1.75 0.515625q1.265625 0 1.90625 -0.5q0.65625 -0.515625 0.875 -1.609375z" fill-rule="nonzero"></path><path fill="#f4cccc" d="m6.39895 153.46194l370.86615 0l0 79.68504l-370.86615 0z" fill-rule="nonzero"></path><path stroke="#000000" stroke-width="2.0" stroke-linejoin="round" stroke-linecap="butt" d="m6.39895 153.46194l370.86615 0l0 79.68504l-370.86615 0z" fill-rule="nonzero"></path><path fill="#000000" d="m25.7427 205.02446l0 -5.484375l-9.9375 0l0 -2.578125l10.453125 -14.84375l2.296875 0l0 14.84375l3.09375 0l0 2.578125l-3.09375 0l0 5.484375l-2.8125 0zm0 -8.0625l0 -10.328125l-7.171875 10.328125l7.171875 0zm10.359373 8.0625l0 -3.203125l3.203125 0l0 3.203125l-3.203125 0zm17.375 -22.90625l18.015625 0l0 22.90625l-3.046875 0l0 -20.203125l-11.9375 0l0 20.203125l-3.03125 0l0 -22.90625zm22.609375 29.265625l0 -22.953125l2.5625 0l0 2.15625q0.90625 -1.265625 2.046875 -1.890625q1.140625 -0.640625 2.765625 -0.640625q2.125 0 3.75 1.09375q1.625 1.09375 2.453125 3.09375q0.828125 1.984375 0.828125 4.359375q0 2.546875 -0.921875 4.59375q-0.90625 2.03125 -2.65625 3.125q-1.734375 1.078125 -3.65625 1.078125q-1.40625 0 -2.53125 -0.59375q-1.109375 -0.59375 -1.828125 -1.5l0 8.078125l-2.8125 0zm2.546875 -14.5625q0 3.203125 1.296875 4.734375q1.296875 1.53125 3.140625 1.53125q1.875 0 3.203125 -1.578125q1.34375 -1.59375 1.34375 -4.921875q0 -3.171875 -1.3125 -4.75q-1.296875 -1.578125 -3.109375 -1.578125q-1.796875 0 -3.1875 1.6875q-1.375 1.671875 -1.375 4.875zm15.25 -8.390625l2.8125 0l0 12.65625l7.796875 -12.65625l3.03125 0l0 16.59375l-2.8125 0l0 -12.578125l-7.796875 12.578125l-3.03125 0l0 -16.59375zm17.859375 0l2.8125 0l0 7.171875q1.34375 0 1.875 -0.515625q0.546875 -0.515625 1.59375 -3.0q0.828125 -1.96875 1.34375 -2.59375q0.515625 -0.625 1.1875 -0.84375q0.671875 -0.21875 2.15625 -0.21875l0.5625 0l0 2.328125l-0.78125 -0.015625q-1.109375 0 -1.421875 0.328125q-0.328125 0.34375 -1.0 2.046875q-0.640625 1.625 -1.171875 2.25q-0.53125 0.625 -1.640625 1.140625q1.8125 0.484375 3.5625 3.375l3.078125 5.140625l-3.09375 0l-3.0 -5.140625q-0.921875 -1.546875 -1.609375 -2.03125q-0.6875 -0.5 -1.640625 -0.5l0 7.671875l-2.8125 0l0 -16.59375zm15.390625 0l13.062508 0l0 16.59375l-2.796875 0l0 -14.265625l-7.453125 0l0 8.265625q0 2.890625 -0.1875 3.8125q-0.1875 0.921875 -1.03125 1.609375q-0.8437576 0.6875 -2.4375076 0.6875q-0.984375 0 -2.265625 -0.125l0 -2.34375l1.234375 0q0.875 0 1.25 -0.171875q0.375 -0.1875 0.5 -0.578125q0.125 -0.390625 0.125 -2.546875l0 -10.9375zm28.125008 14.546875q-1.5625 1.328125 -3.015625 1.875q-1.4375 0.546875 -3.09375 0.546875q-2.734375 0 -4.203125 -1.328125q-1.46875 -1.34375 -1.46875 -3.421875q0 -1.21875 0.546875 -2.21875q0.5625 -1.015625 1.453125 -1.625q0.90625 -0.609375 2.03125 -0.921875q0.828125 -0.21875 2.5 -0.421875q3.40625 -0.40625 5.015625 -0.96875q0.015625 -0.578125 0.015625 -0.734375q0 -1.71875 -0.796875 -2.421875q-1.078125 -0.953125 -3.203125 -0.953125q-1.984375 0 -2.9375 0.703125q-0.9375 0.6875 -1.390625 2.453125l-2.75 -0.375q0.375 -1.765625 1.234375 -2.84375q0.859375 -1.09375 2.484375 -1.671875q1.625 -0.59375 3.765625 -0.59375q2.125 0 3.453125 0.5q1.328125 0.5 1.953125 1.265625q0.625 0.75 0.875 1.90625q0.140625 0.71875 0.140625 2.59375l0 3.75q0 3.921875 0.171875 4.96875q0.1875 1.03125 0.71875 1.984375l-2.9375 0q-0.4375 -0.875 -0.5625 -2.046875zm-0.234375 -6.28125q-1.53125 0.625 -4.59375 1.0625q-1.734375 0.25 -2.453125 0.5625q-0.71875 0.3125 -1.109375 0.921875q-0.390625 0.59375 -0.390625 1.328125q0 1.125 0.84375 1.875q0.859375 0.75 2.5 0.75q1.625 0 2.890625 -0.703125q1.265625 -0.71875 1.859375 -1.953125q0.453125 -0.953125 0.453125 -2.8125l0 -1.03125zm9.421875 -8.265625l11.5625 0l0 14.28125l1.796875 0l0 7.015625l-2.3125 0l0 -4.703125l-13.0625 0l0 4.703125l-2.3125 0l0 -7.015625l1.484375 0q2.96875 -4.03125 2.84375 -14.28125zm2.34375 2.328125q-0.3125 8.078125 -2.5 11.953125l8.921875 0l0 -11.953125l-6.421875 0zm14.125 -2.328125l2.8125 0l0 6.90625l7.796875 0l0 -6.90625l2.8125 0l0 16.59375l-2.8125 0l0 -7.359375l-7.796875 0l0 7.359375l-2.8125 0l0 -16.59375zm16.609375 8.296875q0 -4.609375 2.5625 -6.828125q2.140625 -1.84375 5.21875 -1.84375q3.421875 0 5.59375 2.25q2.171875 2.234375 2.171875 6.1875q0 3.203125 -0.96875 5.046875q-0.953125 1.828125 -2.796875 2.84375q-1.828125 1.015625 -4.0 1.015625q-3.484375 0 -5.640625 -2.234375q-2.140625 -2.234375 -2.140625 -6.4375zm2.890625 0q0 3.1875 1.390625 4.78125q1.390625 1.578125 3.5 1.578125q2.09375 0 3.484375 -1.59375q1.390625 -1.59375 1.390625 -4.859375q0 -3.078125 -1.40625 -4.65625q-1.390625 -1.59375 -3.46875 -1.59375q-2.109375 0 -3.5 1.578125q-1.390625 1.578125 -1.390625 4.765625zm15.953125 -8.296875l2.8125 0l0 12.65625l7.796875 -12.65625l3.03125 0l0 16.59375l-2.8125 0l0 -12.578125l-7.796875 12.578125l-3.03125 0l0 -16.59375zm9.921875 -6.28125l1.921875 0q-0.234375 1.953125 -1.4375 3.0q-1.1875 1.046875 -3.171875 1.046875q-2.0 0 -3.203125 -1.03125q-1.1875 -1.046875 -1.421875 -3.015625l1.921875 0q0.21875 1.0625 0.859375 1.59375q0.65625 0.515625 1.75 0.515625q1.265625 0 1.90625 -0.5q0.65625 -0.515625 0.875 -1.609375z" fill-rule="nonzero"></path><path fill="#f3f3f3" d="m6.39895 7.67979l370.86615 0l0 79.68504l-370.86615 0z" fill-rule="nonzero"></path><path stroke="#000000" stroke-width="2.0" stroke-linejoin="round" stroke-linecap="butt" d="m6.39895 7.67979l370.86615 0l0 79.68504l-370.86615 0z" fill-rule="nonzero"></path><path fill="#000000" d="m143.73047 59.24231l8.859375 -11.9375l-7.8125 -10.96875l3.609375 0l4.15625 5.875q1.296875 1.828125 1.84375 2.8125q0.765625 -1.25 1.8125 -2.609375l4.609375 -6.078125l3.296875 0l-8.046875 10.796875l8.671875 12.109375l-3.75 0l-5.765625 -8.171875q-0.484375 -0.703125 -1.0 -1.53125q-0.765625 1.25 -1.09375 1.71875l-5.75 7.984375l-3.640625 0zm22.265625 -8.296875q0 -4.609375 2.5625 -6.828125q2.140625 -1.84375 5.21875 -1.84375q3.421875 0 5.59375 2.25q2.171875 2.234375 2.171875 6.1875q0 3.203125 -0.96875 5.046875q-0.953125 1.828125 -2.796875 2.84375q-1.828125 1.015625 -4.0 1.015625q-3.484375 0 -5.640625 -2.234375q-2.140625 -2.234375 -2.140625 -6.4375zm2.890625 0q0 3.1875 1.390625 4.78125q1.390625 1.578125 3.5 1.578125q2.09375 0 3.484375 -1.59375q1.390625 -1.59375 1.390625 -4.859375q0 -3.078125 -1.40625 -4.65625q-1.390625 -1.59375 -3.46875 -1.59375q-2.109375 0 -3.5 1.578125q-1.390625 1.578125 -1.390625 4.765625zm26.78125 2.21875l2.765625 0.359375q-0.453125 2.859375 -2.328125 4.484375q-1.859375 1.609375 -4.578125 1.609375q-3.40625 0 -5.484375 -2.21875q-2.0625 -2.234375 -2.0625 -6.390625q0 -2.6875 0.890625 -4.703125q0.890625 -2.015625 2.703125 -3.015625q1.828125 -1.015625 3.96875 -1.015625q2.703125 0 4.421875 1.375q1.71875 1.359375 2.203125 3.875l-2.734375 0.421875q-0.390625 -1.671875 -1.390625 -2.515625q-0.984375 -0.84375 -2.390625 -0.84375q-2.125 0 -3.453125 1.53125q-1.328125 1.515625 -1.328125 4.8125q0 3.34375 1.28125 4.859375q1.28125 1.515625 3.34375 1.515625q1.65625 0 2.765625 -1.015625q1.109375 -1.015625 1.40625 -3.125zm3.65625 -10.515625l13.484375 0l0 2.328125l-5.34375 0l0 14.265625l-2.796875 0l0 -14.265625l-5.34375 0l0 -2.328125zm34.875 16.59375l-2.8125 0l0 -17.921875q-1.015625 0.96875 -2.671875 1.9375q-1.640625 0.96875 -2.953125 1.453125l0 -2.71875q2.359375 -1.109375 4.125 -2.6875q1.765625 -1.578125 2.5 -3.0625l1.8125 0l0 23.0z" fill-rule="nonzero"></path><path fill="#000000" fill-opacity="0.0" d="m191.83202 87.36483l0 66.11024" fill-rule="nonzero"></path><path stroke="#000000" stroke-width="4.0" stroke-linejoin="round" stroke-linecap="butt" d="m191.83202 87.36483l0 42.110237" fill-rule="evenodd"></path><path fill="#000000" stroke="#000000" stroke-width="4.0" stroke-linecap="butt" d="m185.2251 129.47507l6.6069183 18.15239l6.6069336 -18.15239z" fill-rule="evenodd"></path><path fill="#c9daf8" d="m810.5066 392.51706l370.8661 0l0 79.68503l-370.8661 0z" fill-rule="nonzero"></path><path stroke="#000000" stroke-width="2.0" stroke-linejoin="round" stroke-linecap="butt" d="m810.5066 392.51706l370.8661 0l0 79.68503l-370.8661 0z" fill-rule="nonzero"></path><path fill="#000000" d="m884.7722 444.0796l-2.8125 0l0 -17.921875q-1.015625 0.96875 -2.671875 1.9375q-1.640625 0.96875 -2.953125 1.453125l0 -2.71875q2.359375 -1.109375 4.125 -2.6875q1.765625 -1.578125 2.5 -3.0625l1.8125 0l0 23.0zm8.78125 0l0 -3.203125l3.203125 0l0 3.203125l-3.203125 0zm19.421875 -22.90625l13.9375 0l0 20.203125l2.0625 0l0 8.046875l-2.703125 0l0 -5.34375l-15.140625 0l0 5.34375l-2.703125 0l0 -8.046875l1.78125 0q2.765625 -4.171875 2.765625 -16.859375l0 -3.34375zm10.90625 2.703125l-7.984375 0l0 1.171875q0 2.921875 -0.53125 8.0q-0.515625 5.0625 -2.046875 8.328125l10.5625 0l0 -17.5zm7.28125 11.90625q0 -4.609375 2.5625 -6.828125q2.140625 -1.84375 5.21875 -1.84375q3.421875 0 5.59375 2.25q2.171875 2.234375 2.171875 6.1875q0 3.203125 -0.96875 5.046875q-0.953125 1.828125 -2.796875 2.84375q-1.828125 1.015625 -4.0 1.015625q-3.484375 0 -5.640625 -2.234375q-2.140625 -2.234375 -2.140625 -6.4375zm2.890625 0q0 3.1875 1.390625 4.78125q1.390625 1.578125 3.5 1.578125q2.09375 0 3.484375 -1.59375q1.390625 -1.59375 1.390625 -4.859375q0 -3.078125 -1.40625 -4.65625q-1.390625 -1.59375 -3.46875 -1.59375q-2.109375 0 -3.5 1.578125q-1.390625 1.578125 -1.390625 4.765625zm26.78125 2.21875l2.765625 0.359375q-0.453125 2.859375 -2.328125 4.484375q-1.859375 1.609375 -4.578125 1.609375q-3.40625 0 -5.484375 -2.21875q-2.0625 -2.234375 -2.0625 -6.390625q0 -2.6875 0.890625 -4.703125q0.890625 -2.015625 2.703125 -3.015625q1.828125 -1.015625 3.96875 -1.015625q2.703125 0 4.421875 1.375q1.71875 1.359375 2.203125 3.875l-2.734375 0.421875q-0.390625 -1.671875 -1.390625 -2.515625q-0.984375 -0.84375 -2.390625 -0.84375q-2.125 0 -3.453125 1.53125q-1.328125 1.515625 -1.328125 4.8125q0 3.34375 1.28125 4.859375q1.28125 1.515625 3.34375 1.515625q1.65625 0 2.765625 -1.015625q1.109375 -1.015625 1.40625 -3.125zm3.65625 -10.515625l13.484375 0l0 2.328125l-5.34375 0l0 14.265625l-2.796875 0l0 -14.265625l-5.34375 0l0 -2.328125zm16.046875 22.984375l-0.3125 -2.640625q0.921875 0.25 1.609375 0.25q0.9375 0 1.5 -0.3125q0.5625 -0.3125 0.921875 -0.875q0.265625 -0.421875 0.859375 -2.09375q0.078125 -0.234375 0.25 -0.6875l-6.296875 -16.625l3.03125 0l3.453125 9.609375q0.671875 1.828125 1.203125 3.84375q0.484375 -1.9375 1.15625 -3.78125l3.546875 -9.671875l2.8125 0l-6.3125 16.875q-1.015625 2.734375 -1.578125 3.765625q-0.75 1.390625 -1.71875 2.03125q-0.96875 0.65625 -2.3125 0.65625q-0.8125 0 -1.8125 -0.34375zm16.140625 -22.984375l13.09375 0l0 16.59375l-2.8125 0l0 -14.265625l-7.46875 0l0 14.265625l-2.8125 0l0 -16.59375zm28.140625 14.546875q-1.5625 1.328125 -3.015625 1.875q-1.4375 0.546875 -3.09375 0.546875q-2.734375 0 -4.203125 -1.328125q-1.46875 -1.34375 -1.46875 -3.421875q0 -1.21875 0.546875 -2.21875q0.5625 -1.015625 1.453125 -1.625q0.90625 -0.609375 2.03125 -0.921875q0.828125 -0.21875 2.5 -0.421875q3.40625 -0.40625 5.015625 -0.96875q0.015625 -0.578125 0.015625 -0.734375q0 -1.71875 -0.796875 -2.421875q-1.078125 -0.953125 -3.203125 -0.953125q-1.984375 0 -2.9375 0.703125q-0.9375 0.6875 -1.390625 2.453125l-2.75 -0.375q0.375 -1.765625 1.234375 -2.84375q0.859375 -1.09375 2.484375 -1.671875q1.625 -0.59375 3.765625 -0.59375q2.125 0 3.453125 0.5q1.328125 0.5 1.953125 1.265625q0.625 0.75 0.875 1.90625q0.140625 0.71875 0.140625 2.59375l0 3.75q0 3.921875 0.171875 4.96875q0.1875 1.03125 0.71875 1.984375l-2.9375 0q-0.4375 -0.875 -0.5625 -2.046875zm-0.234375 -6.28125q-1.53125 0.625 -4.59375 1.0625q-1.734375 0.25 -2.453125 0.5625q-0.71875 0.3125 -1.109375 0.921875q-0.390625 0.59375 -0.390625 1.328125q0 1.125 0.84375 1.875q0.859375 0.75 2.5 0.75q1.625 0 2.890625 -0.703125q1.265625 -0.71875 1.859375 -1.953125q0.453125 -0.953125 0.453125 -2.8125l0 -1.03125zm16.078125 -8.265625l2.8125 0l0 7.171875q1.34375 0 1.875 -0.515625q0.546875 -0.515625 1.59375 -3.0q0.828125 -1.96875 1.34375 -2.59375q0.515625 -0.625 1.1875 -0.84375q0.671875 -0.21875 2.15625 -0.21875l0.5625 0l0 2.328125l-0.78125 -0.015625q-1.109375 0 -1.421875 0.328125q-0.328125 0.34375 -1.0 2.046875q-0.640625 1.625 -1.171875 2.25q-0.53125 0.625 -1.640625 1.140625q1.8125 0.484375 3.5625 3.375l3.078125 5.140625l-3.09375 0l-3.0 -5.140625q-0.921875 -1.546875 -1.609375 -2.03125q-0.6875 -0.5 -1.640625 -0.5l0 7.671875l-2.8125 0l0 -16.59375zm33.734375 10.515625l2.765625 0.359375q-0.453125 2.859375 -2.328125 4.484375q-1.859375 1.609375 -4.578125 1.609375q-3.40625 0 -5.484375 -2.21875q-2.0625 -2.234375 -2.0625 -6.390625q0 -2.6875 0.890625 -4.703125q0.890625 -2.015625 2.703125 -3.015625q1.828125 -1.015625 3.96875 -1.015625q2.703125 0 4.421875 1.375q1.71875 1.359375 2.203125 3.875l-2.734375 0.421875q-0.390625 -1.671875 -1.390625 -2.515625q-0.984375 -0.84375 -2.390625 -0.84375q-2.125 0 -3.453125 1.53125q-1.328125 1.515625 -1.328125 4.8125q0 3.34375 1.28125 4.859375q1.28125 1.515625 3.34375 1.515625q1.65625 0 2.765625 -1.015625q1.109375 -1.015625 1.40625 -3.125zm5.171875 12.4375l0 -22.953125l2.5625 0l0 2.15625q0.90625 -1.265625 2.046875 -1.890625q1.140625 -0.640625 2.765625 -0.640625q2.125 0 3.75 1.09375q1.625 1.09375 2.453125 3.09375q0.828125 1.984375 0.828125 4.359375q0 2.546875 -0.921875 4.59375q-0.90625 2.03125 -2.65625 3.125q-1.734375 1.078125 -3.65625 1.078125q-1.40625 0 -2.53125 -0.59375q-1.109375 -0.59375 -1.828125 -1.5l0 8.078125l-2.8125 0zm2.546875 -14.5625q0 3.203125 1.296875 4.734375q1.296875 1.53125 3.140625 1.53125q1.875 0 3.203125 -1.578125q1.34375 -1.59375 1.34375 -4.921875q0 -3.171875 -1.3125 -4.75q-1.296875 -1.578125 -3.109375 -1.578125q-1.796875 0 -3.1875 1.6875q-1.375 1.671875 -1.375 4.875zm26.609375 2.859375l2.90625 0.359375q-0.6875 2.546875 -2.546875 3.953125q-1.859375 1.40625 -4.75 1.40625q-3.640625 0 -5.78125 -2.234375q-2.125 -2.25 -2.125 -6.296875q0 -4.1875 2.15625 -6.5q2.15625 -2.3125 5.59375 -2.3125q3.328125 0 5.4375 2.265625q2.109375 2.265625 2.109375 6.375q0 0.25 -0.015625 0.75l-12.375 0q0.15625 2.734375 1.546875 4.1875q1.390625 1.453125 3.46875 1.453125q1.546875 0 2.640625 -0.8125q1.09375 -0.8125 1.734375 -2.59375zm-9.234375 -4.546875l9.265625 0q-0.1875 -2.09375 -1.0625 -3.140625q-1.34375 -1.625 -3.484375 -1.625q-1.9375 0 -3.265625 1.296875q-1.3125 1.296875 -1.453125 3.46875zm17.890625 -6.703125l11.5625 0l0 14.28125l1.796875 0l0 7.015625l-2.3125 0l0 -4.703125l-13.0625 0l0 4.703125l-2.3125 0l0 -7.015625l1.484375 0q2.96875 -4.03125 2.84375 -14.28125zm2.34375 2.328125q-0.3125 8.078125 -2.5 11.953125l8.921875 0l0 -11.953125l-6.421875 0zm25.46875 8.921875l2.90625 0.359375q-0.6875 2.546875 -2.546875 3.953125q-1.859375 1.40625 -4.75 1.40625q-3.640625 0 -5.78125 -2.234375q-2.125 -2.25 -2.125 -6.296875q0 -4.1875 2.15625 -6.5q2.15625 -2.3125 5.59375 -2.3125q3.328125 0 5.4375 2.265625q2.109375 2.265625 2.109375 6.375q0 0.25 -0.015625 0.75l-12.375 0q0.15625 2.734375 1.546875 4.1875q1.390625 1.453125 3.46875 1.453125q1.546875 0 2.640625 -0.8125q1.09375 -0.8125 1.734375 -2.59375zm-9.234375 -4.546875l9.265625 0q-0.1875 -2.09375 -1.0625 -3.140625q-1.34375 -1.625 -3.484375 -1.625q-1.9375 0 -3.265625 1.296875q-1.3125 1.296875 -1.453125 3.46875z" fill-rule="nonzero"></path><path fill="#d9ead3" d="m810.5066 312.83203l370.8661 0l0 79.68503l-370.8661 0z" fill-rule="nonzero"></path><path stroke="#000000" stroke-width="2.0" stroke-linejoin="round" stroke-linecap="butt" d="m810.5066 312.83203l370.8661 0l0 79.68503l-370.8661 0z" fill-rule="nonzero"></path><path fill="#000000" d="m888.9597 361.6914l0 2.703125l-15.140625 0q-0.03125 -1.015625 0.328125 -1.953125q0.578125 -1.546875 1.84375 -3.046875q1.28125 -1.5 3.6875 -3.46875q3.734375 -3.0625 5.046875 -4.84375q1.3125 -1.796875 1.3125 -3.390625q0 -1.671875 -1.203125 -2.8125q-1.1875 -1.15625 -3.109375 -1.15625q-2.03125 0 -3.25 1.21875q-1.21875 1.21875 -1.234375 3.375l-2.890625 -0.296875q0.296875 -3.234375 2.234375 -4.921875q1.9375 -1.703125 5.203125 -1.703125q3.296875 0 5.21875 1.828125q1.921875 1.828125 1.921875 4.53125q0 1.375 -0.5625 2.703125q-0.5625 1.328125 -1.875 2.796875q-1.296875 1.46875 -4.328125 4.03125q-2.53125 2.125 -3.25 2.890625q-0.71875 0.75 -1.1875 1.515625l11.234375 0zm4.59375 2.703125l0 -3.203125l3.203125 0l0 3.203125l-3.203125 0zm33.6875 -8.03125l3.03125 0.765625q-0.953125 3.734375 -3.4375 5.703125q-2.46875 1.953125 -6.046875 1.953125q-3.703125 0 -6.03125 -1.5q-2.3125 -1.515625 -3.53125 -4.375q-1.203125 -2.859375 -1.203125 -6.140625q0 -3.578125 1.359375 -6.234375q1.375 -2.671875 3.890625 -4.046875q2.53125 -1.390625 5.5625 -1.390625q3.4375 0 5.78125 1.75q2.34375 1.75 3.265625 4.921875l-2.984375 0.703125q-0.796875 -2.5 -2.3125 -3.640625q-1.515625 -1.140625 -3.8125 -1.140625q-2.640625 0 -4.421875 1.265625q-1.765625 1.265625 -2.484375 3.40625q-0.71875 2.125 -0.71875 4.390625q0 2.921875 0.84375 5.109375q0.859375 2.171875 2.65625 3.25q1.796875 1.078125 3.890625 1.078125q2.546875 0 4.3125 -1.46875q1.765625 -1.46875 2.390625 -4.359375zm17.765625 2.6875l2.90625 0.359375q-0.6875 2.546875 -2.546875 3.953125q-1.859375 1.40625 -4.75 1.40625q-3.640625 0 -5.78125 -2.234375q-2.125 -2.25 -2.125 -6.296875q0 -4.1875 2.15625 -6.5q2.15625 -2.3125 5.59375 -2.3125q3.328125 0 5.4375 2.265625q2.109375 2.265625 2.109375 6.375q0 0.25 -0.015625 0.75l-12.375 0q0.15625 2.734375 1.546875 4.1875q1.390625 1.453125 3.46875 1.453125q1.546875 0 2.640625 -0.8125q1.09375 -0.8125 1.734375 -2.59375zm-9.234375 -4.546875l9.265625 0q-0.1875 -2.09375 -1.0625 -3.140625q-1.34375 -1.625 -3.484375 -1.625q-1.9375 0 -3.265625 1.296875q-1.3125 1.296875 -1.453125 3.46875zm14.15625 -6.703125l13.484375 0l0 2.328125l-5.34375 0l0 14.265625l-2.796875 0l0 -14.265625l-5.34375 0l0 -2.328125zm27.53125 11.25l2.90625 0.359375q-0.6875 2.546875 -2.546875 3.953125q-1.859375 1.40625 -4.75 1.40625q-3.640625 0 -5.78125 -2.234375q-2.125 -2.25 -2.125 -6.296875q0 -4.1875 2.15625 -6.5q2.15625 -2.3125 5.59375 -2.3125q3.328125 0 5.4375 2.265625q2.109375 2.265625 2.109375 6.375q0 0.25 -0.015625 0.75l-12.375 0q0.15625 2.734375 1.546875 4.1875q1.390625 1.453125 3.46875 1.453125q1.546875 0 2.640625 -0.8125q1.09375 -0.8125 1.734375 -2.59375zm-9.234375 -4.546875l9.265625 0q-0.1875 -2.09375 -1.0625 -3.140625q-1.34375 -1.625 -3.484375 -1.625q-1.9375 0 -3.265625 1.296875q-1.3125 1.296875 -1.453125 3.46875zm15.6875 -6.703125l6.484375 0q2.390625 0 3.546875 0.40625q1.171875 0.390625 2.0 1.453125q0.84375 1.0625 0.84375 2.546875q0 1.1875 -0.5 2.078125q-0.484375 0.875 -1.46875 1.46875q1.171875 0.390625 1.9375 1.46875q0.78125 1.0625 0.78125 2.53125q-0.15625 2.359375 -1.6875 3.5q-1.53125 1.140625 -4.453125 1.140625l-7.484375 0l0 -16.59375zm2.8125 6.984375l3.0 0q1.796875 0 2.46875 -0.1875q0.671875 -0.1875 1.203125 -0.75q0.53125 -0.578125 0.53125 -1.375q0 -1.3125 -0.9375 -1.828125q-0.921875 -0.515625 -3.171875 -0.515625l-3.09375 0l0 4.65625zm0 7.296875l3.703125 0q2.390625 0 3.28125 -0.546875q0.890625 -0.5625 0.9375 -1.921875q0 -0.796875 -0.515625 -1.46875q-0.515625 -0.6875 -1.34375 -0.859375q-0.828125 -0.1875 -2.65625 -0.1875l-3.40625 0l0 4.984375zm13.125 -5.984375q0 -4.609375 2.5625 -6.828125q2.140625 -1.84375 5.21875 -1.84375q3.421875 0 5.59375 2.25q2.171875 2.234375 2.171875 6.1875q0 3.203125 -0.96875 5.046875q-0.953125 1.828125 -2.796875 2.84375q-1.828125 1.015625 -4.0 1.015625q-3.484375 0 -5.640625 -2.234375q-2.140625 -2.234375 -2.140625 -6.4375zm2.890625 0q0 3.1875 1.390625 4.78125q1.390625 1.578125 3.5 1.578125q2.09375 0 3.484375 -1.59375q1.390625 -1.59375 1.390625 -4.859375q0 -3.078125 -1.40625 -4.65625q-1.390625 -1.59375 -3.46875 -1.59375q-2.109375 0 -3.5 1.578125q-1.390625 1.578125 -1.390625 4.765625zm15.953125 -8.296875l2.8125 0l0 12.65625l7.796875 -12.65625l3.03125 0l0 16.59375l-2.8125 0l0 -12.578125l-7.796875 12.578125l-3.03125 0l0 -16.59375zm9.921875 -6.28125l1.921875 0q-0.234375 1.953125 -1.4375 3.0q-1.1875 1.046875 -3.171875 1.046875q-2.0 0 -3.203125 -1.03125q-1.1875 -1.046875 -1.421875 -3.015625l1.921875 0q0.21875 1.0625 0.859375 1.59375q0.65625 0.515625 1.75 0.515625q1.265625 0 1.90625 -0.5q0.65625 -0.515625 0.875 -1.609375z" fill-rule="nonzero"></path><path fill="#fce5cd" d="m810.5066 233.14699l370.8661 0l0 79.68504l-370.8661 0z" fill-rule="nonzero"></path><path stroke="#000000" stroke-width="2.0" stroke-linejoin="round" stroke-linecap="butt" d="m810.5066 233.14699l370.8661 0l0 79.68504l-370.8661 0z" fill-rule="nonzero"></path><path fill="#000000" d="m874.1941 278.66263l2.8125 -0.375q0.484375 2.390625 1.640625 3.453125q1.171875 1.046875 2.84375 1.046875q1.984375 0 3.34375 -1.375q1.375 -1.375 1.375 -3.40625q0 -1.9375 -1.265625 -3.1875q-1.265625 -1.265625 -3.21875 -1.265625q-0.796875 0 -1.984375 0.3125l0.3125 -2.46875q0.28125 0.03125 0.453125 0.03125q1.796875 0 3.234375 -0.9375q1.4375 -0.9375 1.4375 -2.890625q0 -1.546875 -1.046875 -2.5625q-1.046875 -1.015625 -2.703125 -1.015625q-1.640625 0 -2.734375 1.03125q-1.09375 1.03125 -1.40625 3.09375l-2.8125 -0.5q0.515625 -2.828125 2.34375 -4.375q1.828125 -1.5625 4.546875 -1.5625q1.875 0 3.453125 0.8125q1.578125 0.796875 2.40625 2.1875q0.84375 1.390625 0.84375 2.953125q0 1.484375 -0.796875 2.703125q-0.796875 1.21875 -2.359375 1.9375q2.03125 0.46875 3.15625 1.953125q1.125 1.46875 1.125 3.6875q0 3.0 -2.1875 5.09375q-2.1875 2.078125 -5.53125 2.078125q-3.015625 0 -5.015625 -1.796875q-1.984375 -1.796875 -2.265625 -4.65625zm19.359375 6.046875l0 -3.203125l3.203125 0l0 3.203125l-3.203125 0zm23.171875 0l0 -20.203125l-7.546875 0l0 -2.703125l18.15625 0l0 2.703125l-7.578125 0l0 20.203125l-3.03125 0zm13.359375 6.359375l0 -22.953125l2.5625 0l0 2.15625q0.90625 -1.265625 2.046875 -1.890625q1.140625 -0.640625 2.765625 -0.640625q2.125 0 3.75 1.09375q1.625 1.09375 2.453125 3.09375q0.828125 1.984375 0.828125 4.359375q0 2.546875 -0.921875 4.59375q-0.90625 2.03125 -2.65625 3.125q-1.734375 1.078125 -3.65625 1.078125q-1.40625 0 -2.53125 -0.59375q-1.109375 -0.59375 -1.828125 -1.5l0 8.078125l-2.8125 0zm2.546875 -14.5625q0 3.203125 1.296875 4.734375q1.296875 1.53125 3.140625 1.53125q1.875 0 3.203125 -1.578125q1.34375 -1.59375 1.34375 -4.921875q0 -3.171875 -1.3125 -4.75q-1.296875 -1.578125 -3.109375 -1.578125q-1.796875 0 -3.1875 1.6875q-1.375 1.671875 -1.375 4.875zm26.078125 6.15625q-1.5625 1.328125 -3.015625 1.875q-1.4375 0.546875 -3.09375 0.546875q-2.734375 0 -4.203125 -1.328125q-1.46875 -1.34375 -1.46875 -3.421875q0 -1.21875 0.546875 -2.21875q0.5625 -1.015625 1.453125 -1.625q0.90625 -0.609375 2.03125 -0.921875q0.828125 -0.21875 2.5 -0.421875q3.40625 -0.40625 5.015625 -0.96875q0.015625 -0.578125 0.015625 -0.734375q0 -1.71875 -0.796875 -2.421875q-1.078125 -0.953125 -3.203125 -0.953125q-1.984375 0 -2.9375 0.703125q-0.9375 0.6875 -1.390625 2.453125l-2.75 -0.375q0.375 -1.765625 1.234375 -2.84375q0.859375 -1.09375 2.484375 -1.671875q1.625 -0.59375 3.765625 -0.59375q2.125 0 3.453125 0.5q1.328125 0.5 1.953125 1.265625q0.625 0.75 0.875 1.90625q0.140625 0.71875 0.140625 2.59375l0 3.75q0 3.921875 0.171875 4.96875q0.1875 1.03125 0.71875 1.984375l-2.9375 0q-0.4375 -0.875 -0.5625 -2.046875zm-0.234375 -6.28125q-1.53125 0.625 -4.59375 1.0625q-1.734375 0.25 -2.453125 0.5625q-0.71875 0.3125 -1.109375 0.921875q-0.390625 0.59375 -0.390625 1.328125q0 1.125 0.84375 1.875q0.859375 0.75 2.5 0.75q1.625 0 2.890625 -0.703125q1.265625 -0.71875 1.859375 -1.953125q0.453125 -0.953125 0.453125 -2.8125l0 -1.03125zm7.21875 -8.265625l2.8125 0l0 6.90625l7.796875 0l0 -6.90625l2.8125 0l0 16.59375l-2.8125 0l0 -7.359375l-7.796875 0l0 7.359375l-2.8125 0l0 -16.59375zm28.484375 10.515625l2.765625 0.359375q-0.453125 2.859375 -2.328125 4.484375q-1.859375 1.609375 -4.578125 1.609375q-3.40625 0 -5.484375 -2.21875q-2.0625 -2.234375 -2.0625 -6.390625q0 -2.6875 0.890625 -4.703125q0.890625 -2.015625 2.703125 -3.015625q1.828125 -1.015625 3.96875 -1.015625q2.703125 0 4.421875 1.375q1.71875 1.359375 2.203125 3.875l-2.734375 0.421875q-0.390625 -1.671875 -1.390625 -2.515625q-0.984375 -0.84375 -2.390625 -0.84375q-2.125 0 -3.453125 1.53125q-1.328125 1.515625 -1.328125 4.8125q0 3.34375 1.28125 4.859375q1.28125 1.515625 3.34375 1.515625q1.65625 0 2.765625 -1.015625q1.109375 -1.015625 1.40625 -3.125zm5.1875 -10.515625l13.09375 0l0 16.59375l-2.8125 0l0 -14.265625l-7.46875 0l0 14.265625l-2.8125 0l0 -16.59375zm16.265625 8.296875q0 -4.609375 2.5625 -6.828125q2.140625 -1.84375 5.21875 -1.84375q3.421875 0 5.59375 2.25q2.171875 2.234375 2.171875 6.1875q0 3.203125 -0.96875 5.046875q-0.953125 1.828125 -2.796875 2.84375q-1.828125 1.015625 -4.0 1.015625q-3.484375 0 -5.640625 -2.234375q-2.140625 -2.234375 -2.140625 -6.4375zm2.890625 0q0 3.1875 1.390625 4.78125q1.390625 1.578125 3.5 1.578125q2.09375 0 3.484375 -1.59375q1.390625 -1.59375 1.390625 -4.859375q0 -3.078125 -1.40625 -4.65625q-1.390625 -1.59375 -3.46875 -1.59375q-2.109375 0 -3.5 1.578125q-1.390625 1.578125 -1.390625 4.765625zm15.953125 14.65625l0 -22.953125l2.5625 0l0 2.15625q0.90625 -1.265625 2.046875 -1.890625q1.140625 -0.640625 2.765625 -0.640625q2.125 0 3.75 1.09375q1.625 1.09375 2.453125 3.09375q0.828125 1.984375 0.828125 4.359375q0 2.546875 -0.921875 4.59375q-0.90625 2.03125 -2.65625 3.125q-1.734375 1.078125 -3.65625 1.078125q-1.40625 0 -2.53125 -0.59375q-1.109375 -0.59375 -1.828125 -1.5l0 8.078125l-2.8125 0zm2.546875 -14.5625q0 3.203125 1.296875 4.734375q1.296875 1.53125 3.140625 1.53125q1.875 0 3.203125 -1.578125q1.34375 -1.59375 1.34375 -4.921875q0 -3.171875 -1.3125 -4.75q-1.296875 -1.578125 -3.109375 -1.578125q-1.796875 0 -3.1875 1.6875q-1.375 1.671875 -1.375 4.875zm13.734375 -8.390625l13.484375 0l0 2.328125l-5.34375 0l0 14.265625l-2.796875 0l0 -14.265625l-5.34375 0l0 -2.328125zm16.1875 0l2.8125 0l0 6.90625l7.796875 0l0 -6.90625l2.8125 0l0 16.59375l-2.8125 0l0 -7.359375l-7.796875 0l0 7.359375l-2.8125 0l0 -16.59375zm33.453125 0l2.8125 0l0 16.59375l-2.8125 0l0 -16.59375zm-15.734375 0l2.8125 0l0 6.484375l3.5625 0q3.484375 0 5.359375 1.359375q1.890625 1.34375 1.890625 3.71875q0 2.078125 -1.578125 3.5625q-1.5625 1.46875 -5.015625 1.46875l-7.03125 0l0 -16.59375zm2.8125 14.28125l2.953125 0q2.671875 0 3.8125 -0.65625q1.140625 -0.65625 1.140625 -2.046875q0 -1.078125 -0.84375 -1.921875q-0.84375 -0.84375 -3.734375 -0.84375l-3.328125 0l0 5.46875zm20.125 -14.28125l2.8125 0l0 12.65625l7.796875 -12.65625l3.03125 0l0 16.59375l-2.8125 0l0 -12.578125l-7.796875 12.578125l-3.03125 0l0 -16.59375zm9.921875 -6.28125l1.921875 0q-0.234375 1.953125 -1.4375 3.0q-1.1875 1.046875 -3.171875 1.046875q-2.0 0 -3.203125 -1.03125q-1.1875 -1.046875 -1.421875 -3.015625l1.921875 0q0.21875 1.0625 0.859375 1.59375q0.65625 0.515625 1.75 0.515625q1.265625 0 1.90625 -0.5q0.65625 -0.515625 0.875 -1.609375z" fill-rule="nonzero"></path><path fill="#f4cccc" d="m810.5066 153.46194l370.8661 0l0 79.68504l-370.8661 0z" fill-rule="nonzero"></path><path stroke="#000000" stroke-width="2.0" stroke-linejoin="round" stroke-linecap="butt" d="m810.5066 153.46194l370.8661 0l0 79.68504l-370.8661 0z" fill-rule="nonzero"></path><path fill="#000000" d="m883.1941 205.02446l0 -5.484375l-9.9375 0l0 -2.578125l10.453125 -14.84375l2.296875 0l0 14.84375l3.09375 0l0 2.578125l-3.09375 0l0 5.484375l-2.8125 0zm0 -8.0625l0 -10.328125l-7.171875 10.328125l7.171875 0zm10.359375 8.0625l0 -3.203125l3.203125 0l0 3.203125l-3.203125 0zm17.375 -22.90625l18.015625 0l0 22.90625l-3.046875 0l0 -20.203125l-11.9375 0l0 20.203125l-3.03125 0l0 -22.90625zm22.609375 29.265625l0 -22.953125l2.5625 0l0 2.15625q0.90625 -1.265625 2.046875 -1.890625q1.140625 -0.640625 2.765625 -0.640625q2.125 0 3.75 1.09375q1.625 1.09375 2.453125 3.09375q0.828125 1.984375 0.828125 4.359375q0 2.546875 -0.921875 4.59375q-0.90625 2.03125 -2.65625 3.125q-1.734375 1.078125 -3.65625 1.078125q-1.40625 0 -2.53125 -0.59375q-1.109375 -0.59375 -1.828125 -1.5l0 8.078125l-2.8125 0zm2.546875 -14.5625q0 3.203125 1.296875 4.734375q1.296875 1.53125 3.140625 1.53125q1.875 0 3.203125 -1.578125q1.34375 -1.59375 1.34375 -4.921875q0 -3.171875 -1.3125 -4.75q-1.296875 -1.578125 -3.109375 -1.578125q-1.796875 0 -3.1875 1.6875q-1.375 1.671875 -1.375 4.875zm15.25 -8.390625l2.8125 0l0 12.65625l7.796875 -12.65625l3.03125 0l0 16.59375l-2.8125 0l0 -12.578125l-7.796875 12.578125l-3.03125 0l0 -16.59375zm17.859375 0l2.8125 0l0 7.171875q1.34375 0 1.875 -0.515625q0.546875 -0.515625 1.59375 -3.0q0.828125 -1.96875 1.34375 -2.59375q0.515625 -0.625 1.1875 -0.84375q0.671875 -0.21875 2.15625 -0.21875l0.5625 0l0 2.328125l-0.78125 -0.015625q-1.109375 0 -1.421875 0.328125q-0.328125 0.34375 -1.0 2.046875q-0.640625 1.625 -1.171875 2.25q-0.53125 0.625 -1.640625 1.140625q1.8125 0.484375 3.5625 3.375l3.078125 5.140625l-3.09375 0l-3.0 -5.140625q-0.921875 -1.546875 -1.609375 -2.03125q-0.6875 -0.5 -1.640625 -0.5l0 7.671875l-2.8125 0l0 -16.59375zm15.390625 0l13.0625 0l0 16.59375l-2.796875 0l0 -14.265625l-7.453125 0l0 8.265625q0 2.890625 -0.1875 3.8125q-0.1875 0.921875 -1.03125 1.609375q-0.84375 0.6875 -2.4375 0.6875q-0.984375 0 -2.265625 -0.125l0 -2.34375l1.234375 0q0.875 0 1.25 -0.171875q0.375 -0.1875 0.5 -0.578125q0.125 -0.390625 0.125 -2.546875l0 -10.9375zm28.125 14.546875q-1.5625 1.328125 -3.015625 1.875q-1.4375 0.546875 -3.09375 0.546875q-2.734375 0 -4.203125 -1.328125q-1.46875 -1.34375 -1.46875 -3.421875q0 -1.21875 0.546875 -2.21875q0.5625 -1.015625 1.453125 -1.625q0.90625 -0.609375 2.03125 -0.921875q0.828125 -0.21875 2.5 -0.421875q3.40625 -0.40625 5.015625 -0.96875q0.015625 -0.578125 0.015625 -0.734375q0 -1.71875 -0.796875 -2.421875q-1.078125 -0.953125 -3.203125 -0.953125q-1.984375 0 -2.9375 0.703125q-0.9375 0.6875 -1.390625 2.453125l-2.75 -0.375q0.375 -1.765625 1.234375 -2.84375q0.859375 -1.09375 2.484375 -1.671875q1.625 -0.59375 3.765625 -0.59375q2.125 0 3.453125 0.5q1.328125 0.5 1.953125 1.265625q0.625 0.75 0.875 1.90625q0.140625 0.71875 0.140625 2.59375l0 3.75q0 3.921875 0.171875 4.96875q0.1875 1.03125 0.71875 1.984375l-2.9375 0q-0.4375 -0.875 -0.5625 -2.046875zm-0.234375 -6.28125q-1.53125 0.625 -4.59375 1.0625q-1.734375 0.25 -2.453125 0.5625q-0.71875 0.3125 -1.109375 0.921875q-0.390625 0.59375 -0.390625 1.328125q0 1.125 0.84375 1.875q0.859375 0.75 2.5 0.75q1.625 0 2.890625 -0.703125q1.265625 -0.71875 1.859375 -1.953125q0.453125 -0.953125 0.453125 -2.8125l0 -1.03125zm9.421875 -8.265625l11.5625 0l0 14.28125l1.796875 0l0 7.015625l-2.3125 0l0 -4.703125l-13.0625 0l0 4.703125l-2.3125 0l0 -7.015625l1.484375 0q2.96875 -4.03125 2.84375 -14.28125zm2.34375 2.328125q-0.3125 8.078125 -2.5 11.953125l8.921875 0l0 -11.953125l-6.421875 0zm14.125 -2.328125l2.8125 0l0 6.90625l7.796875 0l0 -6.90625l2.8125 0l0 16.59375l-2.8125 0l0 -7.359375l-7.796875 0l0 7.359375l-2.8125 0l0 -16.59375zm16.609375 8.296875q0 -4.609375 2.5625 -6.828125q2.140625 -1.84375 5.21875 -1.84375q3.421875 0 5.59375 2.25q2.171875 2.234375 2.171875 6.1875q0 3.203125 -0.96875 5.046875q-0.953125 1.828125 -2.796875 2.84375q-1.828125 1.015625 -4.0 1.015625q-3.484375 0 -5.640625 -2.234375q-2.140625 -2.234375 -2.140625 -6.4375zm2.890625 0q0 3.1875 1.390625 4.78125q1.390625 1.578125 3.5 1.578125q2.09375 0 3.484375 -1.59375q1.390625 -1.59375 1.390625 -4.859375q0 -3.078125 -1.40625 -4.65625q-1.390625 -1.59375 -3.46875 -1.59375q-2.109375 0 -3.5 1.578125q-1.390625 1.578125 -1.390625 4.765625zm15.953125 -8.296875l2.8125 0l0 12.65625l7.796875 -12.65625l3.03125 0l0 16.59375l-2.8125 0l0 -12.578125l-7.796875 12.578125l-3.03125 0l0 -16.59375zm9.921875 -6.28125l1.921875 0q-0.234375 1.953125 -1.4375 3.0q-1.1875 1.046875 -3.171875 1.046875q-2.0 0 -3.203125 -1.03125q-1.1875 -1.046875 -1.421875 -3.015625l1.921875 0q0.21875 1.0625 0.859375 1.59375q0.65625 0.515625 1.75 0.515625q1.265625 0 1.90625 -0.5q0.65625 -0.515625 0.875 -1.609375z" fill-rule="nonzero"></path><path fill="#f3f3f3" d="m810.5066 7.67979l370.8661 0l0 79.68504l-370.8661 0z" fill-rule="nonzero"></path><path stroke="#000000" stroke-width="2.0" stroke-linejoin="round" stroke-linecap="butt" d="m810.5066 7.67979l370.8661 0l0 79.68504l-370.8661 0z" fill-rule="nonzero"></path><path fill="#000000" d="m947.8381 59.24231l8.859375 -11.9375l-7.8125 -10.96875l3.609375 0l4.15625 5.875q1.296875 1.828125 1.84375 2.8125q0.765625 -1.25 1.8125 -2.609375l4.609375 -6.078125l3.296875 0l-8.046875 10.796875l8.671875 12.109375l-3.75 0l-5.765625 -8.171875q-0.484375 -0.703125 -1.0 -1.53125q-0.765625 1.25 -1.09375 1.71875l-5.75 7.984375l-3.640625 0zm22.265625 -8.296875q0 -4.609375 2.5625 -6.828125q2.140625 -1.84375 5.21875 -1.84375q3.421875 0 5.59375 2.25q2.171875 2.234375 2.171875 6.1875q0 3.203125 -0.96875 5.046875q-0.953125 1.828125 -2.796875 2.84375q-1.828125 1.015625 -4.0 1.015625q-3.484375 0 -5.640625 -2.234375q-2.140625 -2.234375 -2.140625 -6.4375zm2.890625 0q0 3.1875 1.390625 4.78125q1.390625 1.578125 3.5 1.578125q2.09375 0 3.484375 -1.59375q1.390625 -1.59375 1.390625 -4.859375q0 -3.078125 -1.40625 -4.65625q-1.390625 -1.59375 -3.46875 -1.59375q-2.109375 0 -3.5 1.578125q-1.390625 1.578125 -1.390625 4.765625zm26.78125 2.21875l2.765625 0.359375q-0.453125 2.859375 -2.328125 4.484375q-1.859375 1.609375 -4.578125 1.609375q-3.40625 0 -5.484375 -2.21875q-2.0625 -2.234375 -2.0625 -6.390625q0 -2.6875 0.890625 -4.703125q0.890625 -2.015625 2.703125 -3.015625q1.828125 -1.015625 3.96875 -1.015625q2.703125 0 4.421875 1.375q1.71875 1.359375 2.203125 3.875l-2.734375 0.421875q-0.390625 -1.671875 -1.390625 -2.515625q-0.984375 -0.84375 -2.390625 -0.84375q-2.125 0 -3.453125 1.53125q-1.328125 1.515625 -1.328125 4.8125q0 3.34375 1.28125 4.859375q1.28125 1.515625 3.34375 1.515625q1.65625 0 2.765625 -1.015625q1.109375 -1.015625 1.40625 -3.125zm3.65625 -10.515625l13.484375 0l0 2.328125l-5.34375 0l0 14.265625l-2.796875 0l0 -14.265625l-5.34375 0l0 -2.328125zm39.06256 13.890625l0 2.703125l-15.140625 0q-0.03125 -1.015625 0.328125 -1.953125q0.578125 -1.546875 1.84375 -3.046875q1.28125 -1.5 3.6875 -3.46875q3.734375 -3.0625 5.046875 -4.84375q1.3125 -1.796875 1.3125 -3.390625q0 -1.671875 -1.203125 -2.8125q-1.1875 -1.15625 -3.109375 -1.15625q-2.03125 0 -3.25 1.21875q-1.21875 1.21875 -1.234375 3.375l-2.890625 -0.296875q0.296875 -3.234375 2.234375 -4.921875q1.9375 -1.703125 5.203125 -1.703125q3.296875 0 5.21875 1.828125q1.921875 1.828125 1.921875 4.53125q0 1.375 -0.5625 2.703125q-0.5625 1.328125 -1.875 2.796875q-1.296875 1.46875 -4.328125 4.03125q-2.53125 2.125 -3.25 2.890625q-0.71875 0.75 -1.1875 1.515625l11.234375 0z" fill-rule="nonzero"></path><path fill="#000000" fill-opacity="0.0" d="m995.93964 87.36483l0 66.11024" fill-rule="nonzero"></path><path stroke="#000000" stroke-width="4.0" stroke-linejoin="round" stroke-linecap="butt" d="m995.93964 111.36483l0 42.110237" fill-rule="evenodd"></path><path fill="#000000" stroke="#000000" stroke-width="4.0" stroke-linecap="butt" d="m1002.5466 111.36483l-6.6069336 -18.15239l-6.6069336 18.15239z" fill-rule="evenodd"></path><path fill="#000000" fill-opacity="0.0" d="m330.20734 152.92651l2.7086792 394.96063" fill-rule="nonzero"></path><path stroke="#666666" stroke-width="8.0" stroke-linejoin="round" stroke-linecap="butt" d="m330.20734 152.92651l2.3795166 346.96176" fill-rule="evenodd"></path><path fill="#666666" stroke="#666666" stroke-width="8.0" stroke-linecap="butt" d="m319.3733 499.97888l13.462524 36.213318l12.964569 -36.39456z" fill-rule="evenodd"></path><path fill="#000000" fill-opacity="0.0" d="m850.3228 152.92651l2.7086792 394.96063" fill-rule="nonzero"></path><path stroke="#666666" stroke-width="8.0" stroke-linejoin="round" stroke-linecap="butt" d="m850.652 200.92538l2.3795166 346.96176" fill-rule="evenodd"></path><path fill="#666666" stroke="#666666" stroke-width="8.0" stroke-linecap="butt" d="m863.86554 200.83476l-13.462524 -36.213303l-12.964539 36.39453z" fill-rule="evenodd"></path><path fill="#000000" fill-opacity="0.0" d="m286.72443 473.84253l0 125.0105l611.86615 1.3569336l0.99194336 -126.36743" fill-rule="nonzero"></path><path stroke="#000000" stroke-width="2.0" stroke-linejoin="round" stroke-linecap="butt" d="m286.72443 473.84253l0 125.0105l611.86615 1.3569336l0.99194336 -126.36743" fill-rule="nonzero"></path><path fill="#000000" fill-opacity="0.0" d="m377.26514 472.2021l0 65.40552l432.5752 0.70996094l0.7012329 -66.11548" fill-rule="nonzero"></path><path stroke="#000000" stroke-width="2.0" stroke-linejoin="round" stroke-linecap="butt" d="m377.26514 472.2021l0 65.40552l432.5752 0.70996094l0.7012329 -66.11548" fill-rule="nonzero"></path><path fill="#ffff00" d="m514.3898 27.427822l158.99213 0l0 40.188976l-158.99213 0z" fill-rule="nonzero"></path><path stroke="#000000" stroke-width="2.0" stroke-linejoin="round" stroke-linecap="butt" d="m514.3898 27.427822l158.99213 0l0 40.188976l-158.99213 0z" fill-rule="nonzero"></path><path fill="#000000" d="m563.62225 44.58293l6.875 0l0 8.484375l1.0625 0l0 4.171875l-1.375 0l0 -2.796875l-7.75 0l0 2.796875l-1.375 0l0 -4.171875l0.875 0q1.765625 -2.390625 1.6875 -8.484375zm1.40625 1.390625q-0.1875 4.796875 -1.484375 7.09375l5.296875 0l0 -7.09375l-3.8125 0zm14.604614 7.25q-0.9375 0.796875 -1.796875 1.125q-0.859375 0.3125 -1.84375 0.3125q-1.609375 0 -2.484375 -0.78125q-0.875 -0.796875 -0.875 -2.03125q0 -0.734375 0.328125 -1.328125q0.328125 -0.59375 0.859375 -0.953125q0.53125 -0.359375 1.203125 -0.546875q0.5 -0.140625 1.484375 -0.25q2.03125 -0.25 2.984375 -0.578125q0 -0.34375 0 -0.4375q0 -1.015625 -0.46875 -1.4375q-0.640625 -0.5625 -1.90625 -0.5625q-1.171875 0 -1.734375 0.40625q-0.5625 0.40625 -0.828125 1.46875l-1.640625 -0.234375q0.234375 -1.046875 0.734375 -1.6875q0.515625 -0.640625 1.46875 -0.984375q0.96875 -0.359375 2.25 -0.359375q1.265625 0 2.046875 0.296875q0.78125 0.296875 1.15625 0.75q0.375 0.453125 0.515625 1.140625q0.09375 0.421875 0.09375 1.53125l0 2.234375q0 2.328125 0.09375 2.953125q0.109375 0.609375 0.4375 1.171875l-1.75 0q-0.265625 -0.515625 -0.328125 -1.21875zm-0.140625 -3.71875q-0.90625 0.359375 -2.734375 0.625q-1.03125 0.140625 -1.453125 0.328125q-0.421875 0.1875 -0.65625 0.546875q-0.234375 0.359375 -0.234375 0.796875q0 0.671875 0.5 1.125q0.515625 0.4375 1.484375 0.4375q0.96875 0 1.71875 -0.421875q0.75 -0.4375 1.109375 -1.15625q0.265625 -0.578125 0.265625 -1.671875l0 -0.609375zm4.0944824 -4.921875l1.671875 0l0 4.109375l4.625 0l0 -4.109375l1.671875 0l0 9.859375l-1.671875 0l0 -4.375l-4.625 0l0 4.375l-1.671875 0l0 -9.859375zm10.302795 0l1.671875 0l0 4.109375l4.625 0l0 -4.109375l1.671875 0l0 9.859375l-1.671875 0l0 -4.375l-4.625 0l0 4.375l-1.671875 0l0 -9.859375zm19.662231 0l1.671875 0l0 9.859375l-1.671875 0l0 -9.859375zm-9.328125 0l1.65625 0l0 3.859375l2.125 0q2.0625 0 3.171875 0.8125q1.125 0.796875 1.125 2.203125q0 1.234375 -0.9375 2.109375q-0.921875 0.875 -2.96875 0.875l-4.171875 0l0 -9.859375zm1.65625 8.484375l1.765625 0q1.578125 0 2.25 -0.390625q0.6875 -0.390625 0.6875 -1.21875q0 -0.640625 -0.5 -1.140625q-0.5 -0.5 -2.21875 -0.5l-1.984375 0l0 3.25zm18.456055 -1.796875l1.71875 0.21875q-0.40625 1.5 -1.515625 2.34375q-1.09375 0.828125 -2.8125 0.828125q-2.15625 0 -3.421875 -1.328125q-1.265625 -1.328125 -1.265625 -3.734375q0 -2.484375 1.265625 -3.859375q1.28125 -1.375 3.328125 -1.375q1.984375 0 3.234375 1.34375q1.25 1.34375 1.25 3.796875q0 0.140625 -0.015625 0.4375l-7.34375 0q0.09375 1.625 0.921875 2.484375q0.828125 0.859375 2.0625 0.859375q0.90625 0 1.546875 -0.46875q0.65625 -0.484375 1.046875 -1.546875zm-5.484375 -2.703125l5.5 0q-0.109375 -1.234375 -0.625 -1.859375q-0.796875 -0.96875 -2.078125 -0.96875q-1.140625 0 -1.9375 0.78125q-0.78125 0.765625 -0.859375 2.046875z" fill-rule="nonzero"></path><path fill="#000000" fill-opacity="0.0" d="m377.2651 47.52231l137.13382 0" fill-rule="nonzero"></path><path stroke="#000000" stroke-width="2.0" stroke-linejoin="round" stroke-linecap="butt" stroke-dasharray="8.0,6.0" d="m377.2651 47.52231l125.13385 0" fill-rule="evenodd"></path><path fill="#000000" stroke="#000000" stroke-width="2.0" stroke-linecap="butt" d="m502.39896 50.825775l9.076202 -3.3034668l-9.076202 -3.303463z" fill-rule="evenodd"></path><path fill="#000000" fill-opacity="0.0" d="m673.3819 47.52231l137.13385 0" fill-rule="nonzero"></path><path stroke="#000000" stroke-width="2.0" stroke-linejoin="round" stroke-linecap="butt" stroke-dasharray="8.0,6.0" d="m673.3819 47.52231l125.13385 0" fill-rule="evenodd"></path><path fill="#000000" stroke="#000000" stroke-width="2.0" stroke-linecap="butt" d="m798.51575 50.825775l9.076172 -3.3034668l-9.076172 -3.303463z" fill-rule="evenodd"></path><path fill="#ffff00" d="m514.3884 173.20998l158.99213 0l0 40.18898l-158.99213 0z" fill-rule="nonzero"></path><path stroke="#000000" stroke-width="2.0" stroke-linejoin="round" stroke-linecap="butt" d="m514.3884 173.20998l158.99213 0l0 40.18898l-158.99213 0z" fill-rule="nonzero"></path><path fill="#000000" d="m563.621 190.36508l6.875 0l0 8.484375l1.0625 0l0 4.171875l-1.375 0l0 -2.796875l-7.75 0l0 2.796875l-1.375 0l0 -4.171875l0.875 0q1.765625 -2.390625 1.6875 -8.484375zm1.40625 1.390625q-0.1875 4.796875 -1.484375 7.09375l5.296875 0l0 -7.09375l-3.8125 0zm14.604553 7.25q-0.9375 0.796875 -1.796875 1.125q-0.859375 0.3125 -1.84375 0.3125q-1.609375 0 -2.484375 -0.78125q-0.875 -0.796875 -0.875 -2.03125q0 -0.734375 0.328125 -1.328125q0.328125 -0.59375 0.859375 -0.953125q0.53125 -0.359375 1.203125 -0.546875q0.5 -0.140625 1.484375 -0.25q2.03125 -0.25 2.984375 -0.578125q0 -0.34375 0 -0.4375q0 -1.015625 -0.46875 -1.4375q-0.640625 -0.5625 -1.90625 -0.5625q-1.171875 0 -1.734375 0.40625q-0.5625 0.40625 -0.828125 1.46875l-1.640625 -0.234375q0.234375 -1.046875 0.734375 -1.6875q0.515625 -0.640625 1.46875 -0.984375q0.96875 -0.359375 2.25 -0.359375q1.265625 0 2.046875 0.296875q0.78125 0.296875 1.15625 0.75q0.375 0.453125 0.515625 1.140625q0.09375 0.421875 0.09375 1.53125l0 2.234375q0 2.328125 0.09375 2.953125q0.109375 0.609375 0.4375 1.171875l-1.75 0q-0.265625 -0.515625 -0.328125 -1.21875zm-0.140625 -3.71875q-0.90625 0.359375 -2.734375 0.625q-1.03125 0.140625 -1.453125 0.328125q-0.421875 0.1875 -0.65625 0.546875q-0.234375 0.359375 -0.234375 0.796875q0 0.671875 0.5 1.125q0.515625 0.4375 1.484375 0.4375q0.96875 0 1.71875 -0.421875q0.75 -0.4375 1.109375 -1.15625q0.265625 -0.578125 0.265625 -1.671875l0 -0.609375zm4.0944824 -4.921875l1.671875 0l0 4.109375l4.625 0l0 -4.109375l1.671875 0l0 9.859375l-1.671875 0l0 -4.375l-4.625 0l0 4.375l-1.671875 0l0 -9.859375zm10.302856 0l1.671875 0l0 4.109375l4.625 0l0 -4.109375l1.671875 0l0 9.859375l-1.671875 0l0 -4.375l-4.625 0l0 4.375l-1.671875 0l0 -9.859375zm19.662231 0l1.671875 0l0 9.859375l-1.671875 0l0 -9.859375zm-9.328125 0l1.65625 0l0 3.859375l2.125 0q2.0625 0 3.171875 0.8125q1.125 0.796875 1.125 2.203125q0 1.234375 -0.9375 2.109375q-0.921875 0.875 -2.96875 0.875l-4.171875 0l0 -9.859375zm1.65625 8.484375l1.765625 0q1.578125 0 2.25 -0.390625q0.6875 -0.390625 0.6875 -1.21875q0 -0.640625 -0.5 -1.140625q-0.5 -0.5 -2.21875 -0.5l-1.984375 0l0 3.25zm18.456055 -1.796875l1.71875 0.21875q-0.40625 1.5 -1.515625 2.34375q-1.09375 0.828125 -2.8125 0.828125q-2.15625 0 -3.421875 -1.328125q-1.265625 -1.328125 -1.265625 -3.734375q0 -2.484375 1.265625 -3.859375q1.28125 -1.375 3.328125 -1.375q1.984375 0 3.234375 1.34375q1.25 1.34375 1.25 3.796875q0 0.140625 -0.015625 0.4375l-7.34375 0q0.09375 1.625 0.921875 2.484375q0.828125 0.859375 2.0625 0.859375q0.90625 0 1.546875 -0.46875q0.65625 -0.484375 1.046875 -1.546875zm-5.484375 -2.703125l5.5 0q-0.109375 -1.234375 -0.625 -1.859375q-0.796875 -0.96875 -2.078125 -0.96875q-1.140625 0 -1.9375 0.78125q-0.78125 0.765625 -0.859375 2.046875z" fill-rule="nonzero"></path><path fill="#f4cccc" d="m492.02512 173.20998l22.362213 0l0 40.18898l-22.362213 0z" fill-rule="nonzero"></path><path stroke="#000000" stroke-width="2.0" stroke-linejoin="round" stroke-linecap="butt" d="m492.02512 173.20998l22.362213 0l0 40.18898l-22.362213 0z" fill-rule="nonzero"></path><path fill="#f4cccc" d="m671.1734 173.20998l22.362244 0l0 40.18898l-22.362244 0z" fill-rule="nonzero"></path><path stroke="#000000" stroke-width="2.0" stroke-linejoin="round" stroke-linecap="butt" d="m671.1734 173.20998l22.362244 0l0 40.18898l-22.362244 0z" fill-rule="nonzero"></path><path fill="#ffff00" d="m515.4934 252.89502l158.99213 0l0 40.188965l-158.99213 0z" fill-rule="nonzero"></path><path stroke="#000000" stroke-width="2.0" stroke-linejoin="round" stroke-linecap="butt" d="m515.4934 252.89502l158.99213 0l0 40.188965l-158.99213 0z" fill-rule="nonzero"></path><path fill="#000000" d="m564.72595 270.0501l6.875 0l0 8.484375l1.0625 0l0 4.171875l-1.375 0l0 -2.796875l-7.75 0l0 2.796875l-1.375 0l0 -4.171875l0.875 0q1.765625 -2.390625 1.6875 -8.484375zm1.40625 1.390625q-0.1875 4.796875 -1.484375 7.09375l5.296875 0l0 -7.09375l-3.8125 0zm14.604553 7.25q-0.9375 0.796875 -1.796875 1.125q-0.859375 0.3125 -1.84375 0.3125q-1.609375 0 -2.484375 -0.78125q-0.875 -0.796875 -0.875 -2.03125q0 -0.734375 0.328125 -1.328125q0.328125 -0.59375 0.859375 -0.953125q0.53125 -0.359375 1.203125 -0.546875q0.5 -0.140625 1.484375 -0.25q2.03125 -0.25 2.984375 -0.578125q0 -0.34375 0 -0.4375q0 -1.015625 -0.46875 -1.4375q-0.640625 -0.5625 -1.90625 -0.5625q-1.171875 0 -1.734375 0.40625q-0.5625 0.40625 -0.828125 1.46875l-1.640625 -0.234375q0.234375 -1.046875 0.734375 -1.6875q0.515625 -0.640625 1.46875 -0.984375q0.96875 -0.359375 2.25 -0.359375q1.265625 0 2.046875 0.296875q0.78125 0.296875 1.15625 0.75q0.375 0.453125 0.515625 1.140625q0.09375 0.421875 0.09375 1.53125l0 2.234375q0 2.328125 0.09375 2.953125q0.109375 0.609375 0.4375 1.171875l-1.75 0q-0.265625 -0.515625 -0.328125 -1.21875zm-0.140625 -3.71875q-0.90625 0.359375 -2.734375 0.625q-1.03125 0.140625 -1.453125 0.328125q-0.421875 0.1875 -0.65625 0.546875q-0.234375 0.359375 -0.234375 0.796875q0 0.671875 0.5 1.125q0.515625 0.4375 1.484375 0.4375q0.96875 0 1.71875 -0.421875q0.75 -0.4375 1.109375 -1.15625q0.265625 -0.578125 0.265625 -1.671875l0 -0.609375zm4.0944824 -4.921875l1.671875 0l0 4.109375l4.625 0l0 -4.109375l1.671875 0l0 9.859375l-1.671875 0l0 -4.375l-4.625 0l0 4.375l-1.671875 0l0 -9.859375zm10.302856 0l1.671875 0l0 4.109375l4.625 0l0 -4.109375l1.671875 0l0 9.859375l-1.671875 0l0 -4.375l-4.625 0l0 4.375l-1.671875 0l0 -9.859375zm19.662231 0l1.671875 0l0 9.859375l-1.671875 0l0 -9.859375zm-9.328125 0l1.65625 0l0 3.859375l2.125 0q2.0625 0 3.171875 0.8125q1.125 0.796875 1.125 2.203125q0 1.234375 -0.9375 2.109375q-0.921875 0.875 -2.96875 0.875l-4.171875 0l0 -9.859375zm1.65625 8.484375l1.765625 0q1.578125 0 2.25 -0.390625q0.6875 -0.390625 0.6875 -1.21875q0 -0.640625 -0.5 -1.140625q-0.5 -0.5 -2.21875 -0.5l-1.984375 0l0 3.25zm18.456055 -1.796875l1.71875 0.21875q-0.40625 1.5 -1.515625 2.34375q-1.09375 0.828125 -2.8125 0.828125q-2.15625 0 -3.421875 -1.328125q-1.265625 -1.328125 -1.265625 -3.734375q0 -2.484375 1.265625 -3.859375q1.28125 -1.375 3.328125 -1.375q1.984375 0 3.234375 1.34375q1.25 1.34375 1.25 3.796875q0 0.140625 -0.015625 0.4375l-7.34375 0q0.09375 1.625 0.921875 2.484375q0.828125 0.859375 2.0625 0.859375q0.90625 0 1.546875 -0.46875q0.65625 -0.484375 1.046875 -1.546875zm-5.484375 -2.703125l5.5 0q-0.109375 -1.234375 -0.625 -1.859375q-0.796875 -0.96875 -2.078125 -0.96875q-1.140625 0 -1.9375 0.78125q-0.78125 0.765625 -0.859375 2.046875z" fill-rule="nonzero"></path><path fill="#f4cccc" d="m493.1301 252.89502l22.362213 0l0 40.188965l-22.362213 0z" fill-rule="nonzero"></path><path stroke="#000000" stroke-width="2.0" stroke-linejoin="round" stroke-linecap="butt" d="m493.1301 252.89502l22.362213 0l0 40.188965l-22.362213 0z" fill-rule="nonzero"></path><path fill="#f4cccc" d="m672.2784 252.89502l22.362244 0l0 40.188965l-22.362244 0z" fill-rule="nonzero"></path><path stroke="#000000" stroke-width="2.0" stroke-linejoin="round" stroke-linecap="butt" d="m672.2784 252.89502l22.362244 0l0 40.188965l-22.362244 0z" fill-rule="nonzero"></path><path fill="#fff2cc" d="m470.7679 252.89502l22.362183 0l0 40.188965l-22.362183 0z" fill-rule="nonzero"></path><path stroke="#000000" stroke-width="2.0" stroke-linejoin="round" stroke-linecap="butt" d="m470.7679 252.89502l22.362183 0l0 40.188965l-22.362183 0z" fill-rule="nonzero"></path><path fill="#fff2cc" d="m693.5343 252.89502l22.362183 0l0 40.188965l-22.362183 0z" fill-rule="nonzero"></path><path stroke="#000000" stroke-width="2.0" stroke-linejoin="round" stroke-linecap="butt" d="m693.5343 252.89502l22.362183 0l0 40.188965l-22.362183 0z" fill-rule="nonzero"></path><path fill="#ffff00" d="m516.59845 332.58005l158.99213 0l0 40.188995l-158.99213 0z" fill-rule="nonzero"></path><path stroke="#000000" stroke-width="2.0" stroke-linejoin="round" stroke-linecap="butt" d="m516.59845 332.58005l158.99213 0l0 40.188995l-158.99213 0z" fill-rule="nonzero"></path><path fill="#000000" d="m565.83093 349.73517l6.875 0l0 8.484375l1.0625 0l0 4.171875l-1.375 0l0 -2.796875l-7.75 0l0 2.796875l-1.375 0l0 -4.171875l0.875 0q1.765625 -2.390625 1.6875 -8.484375zm1.40625 1.390625q-0.1875 4.796875 -1.484375 7.09375l5.296875 0l0 -7.09375l-3.8125 0zm14.604553 7.25q-0.9375 0.796875 -1.796875 1.125q-0.859375 0.3125 -1.84375 0.3125q-1.609375 0 -2.484375 -0.78125q-0.875 -0.796875 -0.875 -2.03125q0 -0.734375 0.328125 -1.328125q0.328125 -0.59375 0.859375 -0.953125q0.53125 -0.359375 1.203125 -0.546875q0.5 -0.140625 1.484375 -0.25q2.03125 -0.25 2.984375 -0.578125q0 -0.34375 0 -0.4375q0 -1.015625 -0.46875 -1.4375q-0.640625 -0.5625 -1.90625 -0.5625q-1.171875 0 -1.734375 0.40625q-0.5625 0.40625 -0.828125 1.46875l-1.640625 -0.234375q0.234375 -1.046875 0.734375 -1.6875q0.515625 -0.640625 1.46875 -0.984375q0.96875 -0.359375 2.25 -0.359375q1.265625 0 2.046875 0.296875q0.78125 0.296875 1.15625 0.75q0.375 0.453125 0.515625 1.140625q0.09375 0.421875 0.09375 1.53125l0 2.234375q0 2.328125 0.09375 2.953125q0.109375 0.609375 0.4375 1.171875l-1.75 0q-0.265625 -0.515625 -0.328125 -1.21875zm-0.140625 -3.71875q-0.90625 0.359375 -2.734375 0.625q-1.03125 0.140625 -1.453125 0.328125q-0.421875 0.1875 -0.65625 0.546875q-0.234375 0.359375 -0.234375 0.796875q0 0.671875 0.5 1.125q0.515625 0.4375 1.484375 0.4375q0.96875 0 1.71875 -0.421875q0.75 -0.4375 1.109375 -1.15625q0.265625 -0.578125 0.265625 -1.671875l0 -0.609375zm4.0944824 -4.921875l1.671875 0l0 4.109375l4.625 0l0 -4.109375l1.671875 0l0 9.859375l-1.671875 0l0 -4.375l-4.625 0l0 4.375l-1.671875 0l0 -9.859375zm10.302856 0l1.671875 0l0 4.109375l4.625 0l0 -4.109375l1.671875 0l0 9.859375l-1.671875 0l0 -4.375l-4.625 0l0 4.375l-1.671875 0l0 -9.859375zm19.662231 0l1.671875 0l0 9.859375l-1.671875 0l0 -9.859375zm-9.328125 0l1.65625 0l0 3.859375l2.125 0q2.0625 0 3.171875 0.8125q1.125 0.796875 1.125 2.203125q0 1.234375 -0.9375 2.109375q-0.921875 0.875 -2.96875 0.875l-4.171875 0l0 -9.859375zm1.65625 8.484375l1.765625 0q1.578125 0 2.25 -0.390625q0.6875 -0.390625 0.6875 -1.21875q0 -0.640625 -0.5 -1.140625q-0.5 -0.5 -2.21875 -0.5l-1.984375 0l0 3.25zm18.456055 -1.796875l1.71875 0.21875q-0.40625 1.5 -1.515625 2.34375q-1.09375 0.828125 -2.8125 0.828125q-2.15625 0 -3.421875 -1.328125q-1.265625 -1.328125 -1.265625 -3.734375q0 -2.484375 1.265625 -3.859375q1.28125 -1.375 3.328125 -1.375q1.984375 0 3.234375 1.34375q1.25 1.34375 1.25 3.796875q0 0.140625 -0.015625 0.4375l-7.34375 0q0.09375 1.625 0.921875 2.484375q0.828125 0.859375 2.0625 0.859375q0.90625 0 1.546875 -0.46875q0.65625 -0.484375 1.046875 -1.546875zm-5.484375 -2.703125l5.5 0q-0.109375 -1.234375 -0.625 -1.859375q-0.796875 -0.96875 -2.078125 -0.96875q-1.140625 0 -1.9375 0.78125q-0.78125 0.765625 -0.859375 2.046875z" fill-rule="nonzero"></path><path fill="#f4cccc" d="m494.2351 332.58005l22.362183 0l0 40.188995l-22.362183 0z" fill-rule="nonzero"></path><path stroke="#000000" stroke-width="2.0" stroke-linejoin="round" stroke-linecap="butt" d="m494.2351 332.58005l22.362183 0l0 40.188995l-22.362183 0z" fill-rule="nonzero"></path><path fill="#f4cccc" d="m673.38336 332.58005l22.362244 0l0 40.188995l-22.362244 0z" fill-rule="nonzero"></path><path stroke="#000000" stroke-width="2.0" stroke-linejoin="round" stroke-linecap="butt" d="m673.38336 332.58005l22.362244 0l0 40.188995l-22.362244 0z" fill-rule="nonzero"></path><path fill="#fff2cc" d="m472.42407 332.58005l22.362213 0l0 40.188995l-22.362213 0z" fill-rule="nonzero"></path><path stroke="#000000" stroke-width="2.0" stroke-linejoin="round" stroke-linecap="butt" d="m472.42407 332.58005l22.362213 0l0 40.188995l-22.362213 0z" fill-rule="nonzero"></path><path fill="#fff2cc" d="m694.6393 332.58005l22.362244 0l0 40.188995l-22.362244 0z" fill-rule="nonzero"></path><path stroke="#000000" stroke-width="2.0" stroke-linejoin="round" stroke-linecap="butt" d="m694.6393 332.58005l22.362244 0l0 40.188995l-22.362244 0z" fill-rule="nonzero"></path><path fill="#d9ead3" d="m450.06186 332.58005l22.362213 0l0 40.188995l-22.362213 0z" fill-rule="nonzero"></path><path stroke="#000000" stroke-width="2.0" stroke-linejoin="round" stroke-linecap="butt" d="m450.06186 332.58005l22.362213 0l0 40.188995l-22.362213 0z" fill-rule="nonzero"></path><path fill="#d9ead3" d="m715.8965 332.58005l22.362244 0l0 40.188995l-22.362244 0z" fill-rule="nonzero"></path><path stroke="#000000" stroke-width="2.0" stroke-linejoin="round" stroke-linecap="butt" d="m715.8965 332.58005l22.362244 0l0 40.188995l-22.362244 0z" fill-rule="nonzero"></path><path fill="#ffff00" d="m517.15094 412.2651l158.99213 0l0 40.188965l-158.99213 0z" fill-rule="nonzero"></path><path stroke="#000000" stroke-width="2.0" stroke-linejoin="round" stroke-linecap="butt" d="m517.15094 412.2651l158.99213 0l0 40.188965l-158.99213 0z" fill-rule="nonzero"></path><path fill="#000000" d="m566.3834 429.4202l6.875 0l0 8.484375l1.0625 0l0 4.171875l-1.375 0l0 -2.796875l-7.75 0l0 2.796875l-1.375 0l0 -4.171875l0.875 0q1.765625 -2.390625 1.6875 -8.484375zm1.40625 1.390625q-0.1875 4.796875 -1.484375 7.09375l5.296875 0l0 -7.09375l-3.8125 0zm14.604614 7.25q-0.9375 0.796875 -1.796875 1.125q-0.859375 0.3125 -1.84375 0.3125q-1.609375 0 -2.484375 -0.78125q-0.875 -0.796875 -0.875 -2.03125q0 -0.734375 0.328125 -1.328125q0.328125 -0.59375 0.859375 -0.953125q0.53125 -0.359375 1.203125 -0.546875q0.5 -0.140625 1.484375 -0.25q2.03125 -0.25 2.984375 -0.578125q0 -0.34375 0 -0.4375q0 -1.015625 -0.46875 -1.4375q-0.640625 -0.5625 -1.90625 -0.5625q-1.171875 0 -1.734375 0.40625q-0.5625 0.40625 -0.828125 1.46875l-1.640625 -0.234375q0.234375 -1.046875 0.734375 -1.6875q0.515625 -0.640625 1.46875 -0.984375q0.96875 -0.359375 2.25 -0.359375q1.265625 0 2.046875 0.296875q0.78125 0.296875 1.15625 0.75q0.375 0.453125 0.515625 1.140625q0.09375 0.421875 0.09375 1.53125l0 2.234375q0 2.328125 0.09375 2.953125q0.109375 0.609375 0.4375 1.171875l-1.75 0q-0.265625 -0.515625 -0.328125 -1.21875zm-0.140625 -3.71875q-0.90625 0.359375 -2.734375 0.625q-1.03125 0.140625 -1.453125 0.328125q-0.421875 0.1875 -0.65625 0.546875q-0.234375 0.359375 -0.234375 0.796875q0 0.671875 0.5 1.125q0.515625 0.4375 1.484375 0.4375q0.96875 0 1.71875 -0.421875q0.75 -0.4375 1.109375 -1.15625q0.265625 -0.578125 0.265625 -1.671875l0 -0.609375zm4.0944214 -4.921875l1.671875 0l0 4.109375l4.625 0l0 -4.109375l1.671875 0l0 9.859375l-1.671875 0l0 -4.375l-4.625 0l0 4.375l-1.671875 0l0 -9.859375zm10.302856 0l1.671875 0l0 4.109375l4.625 0l0 -4.109375l1.671875 0l0 9.859375l-1.671875 0l0 -4.375l-4.625 0l0 4.375l-1.671875 0l0 -9.859375zm19.662231 0l1.671875 0l0 9.859375l-1.671875 0l0 -9.859375zm-9.328125 0l1.65625 0l0 3.859375l2.125 0q2.0625 0 3.171875 0.8125q1.125 0.796875 1.125 2.203125q0 1.234375 -0.9375 2.109375q-0.921875 0.875 -2.96875 0.875l-4.171875 0l0 -9.859375zm1.65625 8.484375l1.765625 0q1.578125 0 2.25 -0.390625q0.6875 -0.390625 0.6875 -1.21875q0 -0.640625 -0.5 -1.140625q-0.5 -0.5 -2.21875 -0.5l-1.984375 0l0 3.25zm18.456055 -1.796875l1.71875 0.21875q-0.40625 1.5 -1.515625 2.34375q-1.09375 0.828125 -2.8125 0.828125q-2.15625 0 -3.421875 -1.328125q-1.265625 -1.328125 -1.265625 -3.734375q0 -2.484375 1.265625 -3.859375q1.28125 -1.375 3.328125 -1.375q1.984375 0 3.234375 1.34375q1.25 1.34375 1.25 3.796875q0 0.140625 -0.015625 0.4375l-7.34375 0q0.09375 1.625 0.921875 2.484375q0.828125 0.859375 2.0625 0.859375q0.90625 0 1.546875 -0.46875q0.65625 -0.484375 1.046875 -1.546875zm-5.484375 -2.703125l5.5 0q-0.109375 -1.234375 -0.625 -1.859375q-0.796875 -0.96875 -2.078125 -0.96875q-1.140625 0 -1.9375 0.78125q-0.78125 0.765625 -0.859375 2.046875z" fill-rule="nonzero"></path><path fill="#f4cccc" d="m494.7876 412.2651l22.362183 0l0 40.188965l-22.362183 0z" fill-rule="nonzero"></path><path stroke="#000000" stroke-width="2.0" stroke-linejoin="round" stroke-linecap="butt" d="m494.7876 412.2651l22.362183 0l0 40.188965l-22.362183 0z" fill-rule="nonzero"></path><path fill="#f4cccc" d="m673.93585 412.2651l22.362244 0l0 40.188965l-22.362244 0z" fill-rule="nonzero"></path><path stroke="#000000" stroke-width="2.0" stroke-linejoin="round" stroke-linecap="butt" d="m673.93585 412.2651l22.362244 0l0 40.188965l-22.362244 0z" fill-rule="nonzero"></path><path fill="#fff2cc" d="m472.42538 412.2651l22.362213 0l0 40.188965l-22.362213 0z" fill-rule="nonzero"></path><path stroke="#000000" stroke-width="2.0" stroke-linejoin="round" stroke-linecap="butt" d="m472.42538 412.2651l22.362213 0l0 40.188965l-22.362213 0z" fill-rule="nonzero"></path><path fill="#fff2cc" d="m695.1918 412.2651l22.362244 0l0 40.188965l-22.362244 0z" fill-rule="nonzero"></path><path stroke="#000000" stroke-width="2.0" stroke-linejoin="round" stroke-linecap="butt" d="m695.1918 412.2651l22.362244 0l0 40.188965l-22.362244 0z" fill-rule="nonzero"></path><path fill="#d9ead3" d="m450.06317 412.2651l22.362213 0l0 40.188965l-22.362213 0z" fill-rule="nonzero"></path><path stroke="#000000" stroke-width="2.0" stroke-linejoin="round" stroke-linecap="butt" d="m450.06317 412.2651l22.362213 0l0 40.188965l-22.362213 0z" fill-rule="nonzero"></path><path fill="#d9ead3" d="m716.449 412.2651l22.362244 0l0 40.188965l-22.362244 0z" fill-rule="nonzero"></path><path stroke="#000000" stroke-width="2.0" stroke-linejoin="round" stroke-linecap="butt" d="m716.449 412.2651l22.362244 0l0 40.188965l-22.362244 0z" fill-rule="nonzero"></path><path fill="#d9ead3" d="m427.70096 412.2651l22.362213 0l0 40.188965l-22.362213 0z" fill-rule="nonzero"></path><path stroke="#000000" stroke-width="2.0" stroke-linejoin="round" stroke-linecap="butt" d="m427.70096 412.2651l22.362213 0l0 40.188965l-22.362213 0z" fill-rule="nonzero"></path><path fill="#d9ead3" d="m738.8112 412.2651l22.362183 0l0 40.188965l-22.362183 0z" fill-rule="nonzero"></path><path stroke="#000000" stroke-width="2.0" stroke-linejoin="round" stroke-linecap="butt" d="m738.8112 412.2651l22.362183 0l0 40.188965l-22.362183 0z" fill-rule="nonzero"></path><path fill="#000000" fill-opacity="0.0" d="m377.2651 193.30446l114.77164 0" fill-rule="nonzero"></path><path stroke="#000000" stroke-width="2.0" stroke-linejoin="round" stroke-linecap="butt" stroke-dasharray="8.0,6.0" d="m377.2651 193.30446l102.77164 0" fill-rule="evenodd"></path><path fill="#000000" stroke="#000000" stroke-width="2.0" stroke-linecap="butt" d="m480.03674 196.60793l9.076202 -3.3034668l-9.076202 -3.3034668z" fill-rule="evenodd"></path><path fill="#000000" fill-opacity="0.0" d="m693.53564 193.30446l116.97638 0" fill-rule="nonzero"></path><path stroke="#000000" stroke-width="2.0" stroke-linejoin="round" stroke-linecap="butt" stroke-dasharray="8.0,6.0" d="m693.5356 193.30446l104.97638 0" fill-rule="evenodd"></path><path fill="#000000" stroke="#000000" stroke-width="2.0" stroke-linecap="butt" d="m798.51196 196.60793l9.076233 -3.3034668l-9.076233 -3.3034668z" fill-rule="evenodd"></path><path fill="#000000" fill-opacity="0.0" d="m377.2651 272.9895l93.51181 0" fill-rule="nonzero"></path><path stroke="#000000" stroke-width="2.0" stroke-linejoin="round" stroke-linecap="butt" stroke-dasharray="8.0,6.0" d="m377.2651 272.9895l81.51181 0" fill-rule="evenodd"></path><path fill="#000000" stroke="#000000" stroke-width="2.0" stroke-linecap="butt" d="m458.77692 276.29297l9.076172 -3.3034668l-9.076172 -3.3034668z" fill-rule="evenodd"></path><path fill="#000000" fill-opacity="0.0" d="m715.8965 272.9895l94.6142 0" fill-rule="nonzero"></path><path stroke="#000000" stroke-width="2.0" stroke-linejoin="round" stroke-linecap="butt" stroke-dasharray="8.0,6.0" d="m715.8965 272.9895l82.6142 0" fill-rule="evenodd"></path><path fill="#000000" stroke="#000000" stroke-width="2.0" stroke-linecap="butt" d="m798.5107 276.29297l9.076172 -3.3034668l-9.076172 -3.3034668z" fill-rule="evenodd"></path><path fill="#000000" fill-opacity="0.0" d="m377.2651 352.67453l72.787384 0" fill-rule="nonzero"></path><path stroke="#000000" stroke-width="2.0" stroke-linejoin="round" stroke-linecap="butt" stroke-dasharray="8.0,6.0" d="m377.2651 352.67453l60.787384 0" fill-rule="evenodd"></path><path fill="#000000" stroke="#000000" stroke-width="2.0" stroke-linecap="butt" d="m438.0525 355.978l9.076202 -3.3034668l-9.076202 -3.3034668z" fill-rule="evenodd"></path><path fill="#000000" fill-opacity="0.0" d="m738.2587 352.67453l72.25195 0" fill-rule="nonzero"></path><path stroke="#000000" stroke-width="2.0" stroke-linejoin="round" stroke-linecap="butt" stroke-dasharray="8.0,6.0" d="m738.25867 352.67453l60.252014 0" fill-rule="evenodd"></path><path fill="#000000" stroke="#000000" stroke-width="2.0" stroke-linecap="butt" d="m798.5107 355.978l9.076172 -3.3034668l-9.076172 -3.3034668z" fill-rule="evenodd"></path><path fill="#000000" fill-opacity="0.0" d="m377.2651 432.3596l50.42517 0" fill-rule="nonzero"></path><path stroke="#000000" stroke-width="2.0" stroke-linejoin="round" stroke-linecap="butt" stroke-dasharray="8.0,6.0" d="m377.2651 432.3596l38.42517 0" fill-rule="evenodd"></path><path fill="#000000" stroke="#000000" stroke-width="2.0" stroke-linecap="butt" d="m415.69028 435.66306l9.076202 -3.3034668l-9.076202 -3.3034668z" fill-rule="evenodd"></path><path fill="#000000" fill-opacity="0.0" d="m761.1734 432.3596l49.322876 0" fill-rule="nonzero"></path><path stroke="#000000" stroke-width="2.0" stroke-linejoin="round" stroke-linecap="butt" stroke-dasharray="8.0,6.0" d="m761.1734 432.3596l37.322815 0" fill-rule="evenodd"></path><path fill="#000000" stroke="#000000" stroke-width="2.0" stroke-linecap="butt" d="m798.4962 435.66306l9.076233 -3.3034668l-9.076233 -3.3034668z" fill-rule="evenodd"></path><path fill="#000000" fill-opacity="0.0" d="m401.65616 541.78217l389.98428 0l0 66.11023l-389.98428 0z" fill-rule="nonzero"></path><path fill="#000000" d="m418.7108 558.5959l3.03125 0l0 10.03125q2.078125 0 2.921875 -0.796875q0.84375 -0.8125 2.15625 -3.875q0.953125 -2.25 1.5625 -3.171875q0.625 -0.9375 1.765625 -1.5625q1.140625 -0.640625 2.515625 -0.640625q1.75 0 1.84375 0.03125l0 2.625q-0.15625 0 -0.609375 -0.015625q-0.5 -0.015625 -0.609375 -0.015625q-1.453125 0 -2.15625 0.703125q-0.71875 0.703125 -1.640625 3.0q-1.15625 2.90625 -1.953125 3.671875q-0.796875 0.75 -1.90625 1.203125q2.21875 0.609375 4.375 4.09375l4.71875 7.625l-3.765625 0l-3.828125 -6.21875q-1.578125 -2.578125 -2.640625 -3.53125q-1.0625 -0.96875 -2.75 -0.96875l0 10.71875l-3.03125 0l0 -22.90625zm29.0625 20.859375q-1.5625 1.328125 -3.015625 1.875q-1.4375 0.546875 -3.09375 0.546875q-2.734375 0 -4.203125 -1.328125q-1.46875 -1.34375 -1.46875 -3.421875q0 -1.21875 0.546875 -2.21875q0.5625 -1.015625 1.453125 -1.625q0.90625 -0.609375 2.03125 -0.921875q0.828125 -0.21875 2.5 -0.421875q3.40625 -0.40625 5.015625 -0.96875q0.015625 -0.578125 0.015625 -0.734375q0 -1.71875 -0.796875 -2.421875q-1.078125 -0.953125 -3.203125 -0.953125q-1.984375 0 -2.9375 0.703125q-0.9375 0.6875 -1.390625 2.453125l-2.75 -0.375q0.375 -1.765625 1.234375 -2.84375q0.859375 -1.09375 2.484375 -1.671875q1.625 -0.59375 3.765625 -0.59375q2.125 0 3.453125 0.5q1.328125 0.5 1.953125 1.265625q0.625 0.75 0.875 1.90625q0.140625 0.71875 0.140625 2.59375l0 3.75q0 3.921875 0.171875 4.96875q0.1875 1.03125 0.71875 1.984375l-2.9375 0q-0.4375 -0.875 -0.5625 -2.046875zm-0.234375 -6.28125q-1.53125 0.625 -4.59375 1.0625q-1.734375 0.25 -2.453125 0.5625q-0.71875 0.3125 -1.109375 0.921875q-0.390625 0.59375 -0.390625 1.328125q0 1.125 0.84375 1.875q0.859375 0.75 2.5 0.75q1.625 0 2.890625 -0.703125q1.265625 -0.71875 1.859375 -1.953125q0.453125 -0.953125 0.453125 -2.8125l0 -1.03125zm7.21875 -8.265625l2.8125 0l0 6.90625l7.796875 0l0 -6.90625l2.8125 0l0 16.59375l-2.8125 0l0 -7.359375l-7.796875 0l0 7.359375l-2.8125 0l0 -16.59375zm28.484375 14.546875q-1.5625 1.328125 -3.015625 1.875q-1.4375 0.546875 -3.09375 0.546875q-2.734375 0 -4.203125 -1.328125q-1.46875 -1.34375 -1.46875 -3.421875q0 -1.21875 0.546875 -2.21875q0.5625 -1.015625 1.453125 -1.625q0.90625 -0.609375 2.03125 -0.921875q0.828125 -0.21875 2.5 -0.421875q3.40625 -0.40625 5.015625 -0.96875q0.015625 -0.578125 0.015625 -0.734375q0 -1.71875 -0.796875 -2.421875q-1.078125 -0.953125 -3.203125 -0.953125q-1.984375 0 -2.9375 0.703125q-0.9375 0.6875 -1.390625 2.453125l-2.75 -0.375q0.375 -1.765625 1.234375 -2.84375q0.859375 -1.09375 2.484375 -1.671875q1.625 -0.59375 3.765625 -0.59375q2.125 0 3.453125 0.5q1.328125 0.5 1.953125 1.265625q0.625 0.75 0.875 1.90625q0.140625 0.71875 0.140625 2.59375l0 3.75q0 3.921875 0.171875 4.96875q0.1875 1.03125 0.71875 1.984375l-2.9375 0q-0.4375 -0.875 -0.5625 -2.046875zm-0.234375 -6.28125q-1.53125 0.625 -4.59375 1.0625q-1.734375 0.25 -2.453125 0.5625q-0.71875 0.3125 -1.109375 0.921875q-0.390625 0.59375 -0.390625 1.328125q0 1.125 0.84375 1.875q0.859375 0.75 2.5 0.75q1.625 0 2.890625 -0.703125q1.265625 -0.71875 1.859375 -1.953125q0.453125 -0.953125 0.453125 -2.8125l0 -1.03125zm8.578125 -8.265625l13.0625 0l0 16.59375l-2.796875 0l0 -14.265625l-7.453125 0l0 8.265625q0 2.890625 -0.1875 3.8125q-0.1875 0.921875 -1.03125 1.609375q-0.84375 0.6875 -2.4375 0.6875q-0.984375 0 -2.265625 -0.125l0 -2.34375l1.234375 0q0.875 0 1.25 -0.171875q0.375 -0.1875 0.5 -0.578125q0.125 -0.390625 0.125 -2.546875l0 -10.9375zm26.203156 0l13.09375 0l0 16.59375l-2.8125 0l0 -14.265625l-7.46875 0l0 14.265625l-2.8125 0l0 -16.59375zm28.671875 11.25l2.90625 0.359375q-0.6875 2.546875 -2.546875 3.953125q-1.859375 1.40625 -4.75 1.40625q-3.640625 0 -5.78125 -2.234375q-2.125 -2.25 -2.125 -6.296875q0 -4.1875 2.15625 -6.5q2.15625 -2.3125 5.59375 -2.3125q3.328125 0 5.4375 2.265625q2.109375 2.265625 2.109375 6.375q0 0.25 -0.015625 0.75l-12.375 0q0.15625 2.734375 1.546875 4.1875q1.390625 1.453125 3.46875 1.453125q1.546875 0 2.640625 -0.8125q1.09375 -0.8125 1.734375 -2.59375zm-9.234375 -4.546875l9.265625 0q-0.1875 -2.09375 -1.0625 -3.140625q-1.34375 -1.625 -3.484375 -1.625q-1.9375 0 -3.265625 1.296875q-1.3125 1.296875 -1.453125 3.46875zm15.671875 16.25l0 -22.953125l2.5625 0l0 2.15625q0.90625 -1.265625 2.046875 -1.890625q1.140625 -0.640625 2.765625 -0.640625q2.125 0 3.75 1.09375q1.625 1.09375 2.453125 3.09375q0.828125 1.984375 0.828125 4.359375q0 2.546875 -0.921875 4.59375q-0.90625 2.03125 -2.65625 3.125q-1.734375 1.078125 -3.65625 1.078125q-1.40625 0 -2.53125 -0.59375q-1.109375 -0.59375 -1.828125 -1.5l0 8.078125l-2.8125 0zm2.546875 -14.5625q0 3.203125 1.296875 4.734375q1.296875 1.53125 3.140625 1.53125q1.875 0 3.203125 -1.578125q1.34375 -1.59375 1.34375 -4.921875q0 -3.171875 -1.3125 -4.75q-1.296875 -1.578125 -3.109375 -1.578125q-1.796875 0 -3.1875 1.6875q-1.375 1.671875 -1.375 4.875zm26.609375 2.859375l2.90625 0.359375q-0.6875 2.546875 -2.546875 3.953125q-1.859375 1.40625 -4.75 1.40625q-3.640625 0 -5.78125 -2.234375q-2.125 -2.25 -2.125 -6.296875q0 -4.1875 2.15625 -6.5q2.15625 -2.3125 5.59375 -2.3125q3.328125 0 5.4375 2.265625q2.109375 2.265625 2.109375 6.375q0 0.25 -0.015625 0.75l-12.375 0q0.15625 2.734375 1.546875 4.1875q1.390625 1.453125 3.46875 1.453125q1.546875 0 2.640625 -0.8125q1.09375 -0.8125 1.734375 -2.59375zm-9.234375 -4.546875l9.265625 0q-0.1875 -2.09375 -1.0625 -3.140625q-1.34375 -1.625 -3.484375 -1.625q-1.9375 0 -3.265625 1.296875q-1.3125 1.296875 -1.453125 3.46875zm17.890625 -6.703125l11.5625 0l0 14.28125l1.796875 0l0 7.015625l-2.3125 0l0 -4.703125l-13.0625 0l0 4.703125l-2.3125 0l0 -7.015625l1.484375 0q2.96875 -4.03125 2.84375 -14.28125zm2.34375 2.328125q-0.3125 8.078125 -2.5 11.953125l8.921875 0l0 -11.953125l-6.421875 0zm24.9375 12.21875q-1.5625 1.328125 -3.015625 1.875q-1.4375 0.546875 -3.09375 0.546875q-2.734375 0 -4.203125 -1.328125q-1.46875 -1.34375 -1.46875 -3.421875q0 -1.21875 0.546875 -2.21875q0.5625 -1.015625 1.453125 -1.625q0.90625 -0.609375 2.03125 -0.921875q0.828125 -0.21875 2.5 -0.421875q3.40625 -0.40625 5.015625 -0.96875q0.015625 -0.578125 0.015625 -0.734375q0 -1.71875 -0.796875 -2.421875q-1.078125 -0.953125 -3.203125 -0.953125q-1.984375 0 -2.9375 0.703125q-0.9375 0.6875 -1.390625 2.453125l-2.75 -0.375q0.375 -1.765625 1.234375 -2.84375q0.859375 -1.09375 2.484375 -1.671875q1.625 -0.59375 3.765625 -0.59375q2.125 0 3.453125 0.5q1.328125 0.5 1.953125 1.265625q0.625 0.75 0.875 1.90625q0.140625 0.71875 0.140625 2.59375l0 3.75q0 3.921875 0.171875 4.96875q0.1875 1.03125 0.71875 1.984375l-2.9375 0q-0.4375 -0.875 -0.5625 -2.046875zm-0.234375 -6.28125q-1.53125 0.625 -4.59375 1.0625q-1.734375 0.25 -2.453125 0.5625q-0.71875 0.3125 -1.109375 0.921875q-0.390625 0.59375 -0.390625 1.328125q0 1.125 0.84375 1.875q0.859375 0.75 2.5 0.75q1.625 0 2.890625 -0.703125q1.265625 -0.71875 1.859375 -1.953125q0.453125 -0.953125 0.453125 -2.8125l0 -1.03125zm6.171875 -8.265625l2.8125 0l0 3.140625q0 2.03125 0.234375 2.953125q0.25 0.90625 1.171875 1.59375q0.921875 0.671875 2.3125 0.671875q1.59375 0 4.125 -0.84375l0 -7.515625l2.8125 0l0 16.59375l-2.8125 0l0 -6.6875q-2.59375 0.8125 -4.84375 0.8125q-1.890625 0 -3.34375 -0.953125q-1.4375 -0.96875 -1.953125 -2.359375q-0.515625 -1.390625 -0.515625 -3.0625l0 -4.34375zm17.703125 0l2.8125 0l0 12.65625l7.796875 -12.65625l3.03125 0l0 16.59375l-2.8125 0l0 -12.578125l-7.796875 12.578125l-3.03125 0l0 -16.59375zm28.984375 0l11.5625 0l0 14.28125l1.796875 0l0 7.015625l-2.3125 0l0 -4.703125l-13.0625 0l0 4.703125l-2.3125 0l0 -7.015625l1.484375 0q2.96875 -4.03125 2.84375 -14.28125zm2.34375 2.328125q-0.3125 8.078125 -2.5 11.953125l8.921875 0l0 -11.953125l-6.421875 0zm24.9375 12.21875q-1.5625 1.328125 -3.015625 1.875q-1.4375 0.546875 -3.09375 0.546875q-2.734375 0 -4.203125 -1.328125q-1.46875 -1.34375 -1.46875 -3.421875q0 -1.21875 0.546875 -2.21875q0.5625 -1.015625 1.453125 -1.625q0.90625 -0.609375 2.03125 -0.921875q0.828125 -0.21875 2.5 -0.421875q3.40625 -0.40625 5.015625 -0.96875q0.015625 -0.578125 0.015625 -0.734375q0 -1.71875 -0.796875 -2.421875q-1.078125 -0.953125 -3.203125 -0.953125q-1.984375 0 -2.9375 0.703125q-0.9375 0.6875 -1.390625 2.453125l-2.75 -0.375q0.375 -1.765625 1.234375 -2.84375q0.859375 -1.09375 2.484375 -1.671875q1.625 -0.59375 3.765625 -0.59375q2.125 0 3.453125 0.5q1.328125 0.5 1.953125 1.265625q0.625 0.75 0.875 1.90625q0.140625 0.71875 0.140625 2.59375l0 3.75q0 3.921875 0.171875 4.96875q0.1875 1.03125 0.71875 1.984375l-2.9375 0q-0.4375 -0.875 -0.5625 -2.046875zm-0.234375 -6.28125q-1.53125 0.625 -4.59375 1.0625q-1.734375 0.25 -2.453125 0.5625q-0.71875 0.3125 -1.109375 0.921875q-0.390625 0.59375 -0.390625 1.328125q0 1.125 0.84375 1.875q0.859375 0.75 2.5 0.75q1.625 0 2.890625 -0.703125q1.265625 -0.71875 1.859375 -1.953125q0.453125 -0.953125 0.453125 -2.8125l0 -1.03125zm7.21875 -8.265625l2.8125 0l0 6.90625l7.796875 0l0 -6.90625l2.8125 0l0 16.59375l-2.8125 0l0 -7.359375l-7.796875 0l0 7.359375l-2.8125 0l0 -16.59375zm17.671875 0l2.8125 0l0 6.90625l7.796875 0l0 -6.90625l2.8125 0l0 16.59375l-2.8125 0l0 -7.359375l-7.796875 0l0 7.359375l-2.8125 0l0 -16.59375zm33.453125 0l2.8125 0l0 16.59375l-2.8125 0l0 -16.59375zm-15.734375 0l2.8125 0l0 6.484375l3.5625 0q3.484375 0 5.359375 1.359375q1.890625 1.34375 1.890625 3.71875q0 2.078125 -1.578125 3.5625q-1.5625 1.46875 -5.015625 1.46875l-7.03125 0l0 -16.59375zm2.8125 14.28125l2.953125 0q2.671875 0 3.8125 -0.65625q1.140625 -0.65625 1.140625 -2.046875q0 -1.078125 -0.84375 -1.921875q-0.84375 -0.84375 -3.734375 -0.84375l-3.328125 0l0 5.46875zm18.25 2.3125l6.0625 -8.625l-5.609375 -7.96875l3.515625 0l2.546875 3.890625q0.71875 1.109375 1.15625 1.859375q0.6875 -1.03125 1.265625 -1.828125l2.796875 -3.921875l3.359375 0l-5.734375 7.8125l6.171875 8.78125l-3.453125 0l-3.40625 -5.15625l-0.90625 -1.390625l-4.359375 6.546875l-3.40625 0z" fill-rule="nonzero"></path></g></svg>

